<svg width="31" height="32" viewBox="0 0 31 32" fill="none" xmlns="http://www.w3.org/2000/svg">
<g clip-path="url(#clip0_1_17306)">
<path d="M15.7505 2.29537C15.1483 2.34645 14.7014 2.87359 14.7485 3.44584C14.7956 4.0181 15.3449 4.43743 15.9471 4.38635C15.9618 4.38477 15.9618 4.38477 15.9764 4.38318C21.456 3.79027 26.3194 7.50262 26.8827 12.7082C26.9298 13.2805 27.4791 13.6998 28.0813 13.6488C28.6835 13.5977 29.1305 13.0705 29.0834 12.4983C29.0819 12.4844 29.0819 12.4844 29.0804 12.4704C28.3951 6.1374 22.4169 1.57404 15.7505 2.29537ZM6.15542 3.34768C5.78612 3.35948 5.4082 3.42853 5.05397 3.57952L3.52434 4.23789C2.0225 4.87917 0.958147 6.27578 0.735759 7.91924C0.223883 11.8189 1.8374 16.3195 5.54851 21.438C9.25811 26.5425 13.0258 29.444 16.8662 30.1409C18.4998 30.443 20.1541 29.8415 21.2174 28.5717L22.2953 27.3004C23.2928 26.1082 23.2672 24.3648 22.2365 23.1949L20.1618 20.8706C19.2678 19.869 17.8408 19.5587 16.6245 20.0987L13.9796 21.272C13.6253 21.423 13.2091 21.4117 12.8905 21.2068C11.6806 20.4365 10.6108 19.4539 9.69719 18.2713C8.76896 17.0903 8.13076 15.8497 7.75476 14.5667C7.65851 14.2251 7.76737 13.8613 8.00549 13.5961L10.1208 11.2268C11.0192 10.2143 11.1717 8.74738 10.4809 7.56885L8.92984 4.8781C8.33189 3.87259 7.2618 3.29838 6.15542 3.34768ZM16.2023 6.47099C15.6001 6.52207 15.1532 7.04921 15.2003 7.62147C15.2474 8.19372 15.7967 8.61306 16.399 8.56198C16.4136 8.56039 16.4136 8.56039 16.4283 8.55881C19.4757 8.22906 22.174 10.2887 22.4873 13.1838C22.5344 13.7561 23.0837 14.1754 23.6859 14.1244C24.2882 14.0733 24.7351 13.5461 24.688 12.9739C24.6865 12.96 24.6865 12.96 24.685 12.946C24.2497 8.92352 20.4366 6.01283 16.2023 6.47099ZM16.6542 10.6466C16.052 10.6977 15.605 11.2248 15.6521 11.7971C15.6992 12.3693 16.2486 12.7887 16.8508 12.7376C16.8654 12.736 16.8654 12.736 16.8801 12.7344C17.4954 12.6679 18.0286 13.0749 18.0919 13.6594C18.139 14.2317 18.6883 14.651 19.2905 14.6C19.8928 14.5489 20.3397 14.0217 20.2926 13.4495C20.2911 13.4356 20.2911 13.4356 20.2896 13.4216C20.1043 11.7096 18.4563 10.4516 16.6542 10.6466Z" fill="white"/>
</g>
<defs>
<clipPath id="clip0_1_17306">
<rect width="28" height="28" fill="white" transform="translate(0 4) rotate(-6.17562)"/>
</clipPath>
</defs>
</svg>
