<svg width="20" height="29" viewBox="0 0 20 29" fill="none" xmlns="http://www.w3.org/2000/svg">
<path fill-rule="evenodd" clip-rule="evenodd" d="M9.96833 0C15.4794 0 19.9367 4.43418 19.9367 9.9167C19.9367 17.3542 9.96833 28.3334 9.96833 28.3334C9.96833 28.3334 0 17.3542 0 9.9167C0 4.43418 4.45727 0 9.96833 0ZM2.84808 9.91716C2.84808 13.9547 7.00629 20.1314 9.96831 23.9139C12.9873 20.103 17.0885 13.9972 17.0885 9.91716C17.0885 6.00715 13.8987 2.8338 9.96831 2.8338C6.03794 2.8338 2.84808 6.00715 2.84808 9.91716ZM9.96839 13.4585C8.00219 13.4585 6.40827 11.8728 6.40827 9.91678C6.40827 7.96077 8.00219 6.3751 9.96839 6.3751C11.9346 6.3751 13.5285 7.96077 13.5285 9.91678C13.5285 11.8728 11.9346 13.4585 9.96839 13.4585Z" fill="white"/>
</svg>
