<svg width="62" height="45" viewBox="0 0 62 45" fill="none" xmlns="http://www.w3.org/2000/svg">
<g id="Group 1951">
<g id="Group">
<g id="Clip path group">
<mask id="mask0_1_17255" style="mask-type:luminance" maskUnits="userSpaceOnUse" x="0" y="0" width="62" height="39">
<g id="SVGID_2_">
<path id="Vector" d="M53.3387 18.678C50.4032 17.7693 46.9372 16.901 43.143 16.1089C45.5575 14.0559 47.7508 12.0672 49.642 10.2046C50.4175 10.8707 50.9123 11.8579 50.9123 12.9593C50.9123 10.9539 52.537 9.32681 54.5447 9.32681C53.4314 9.32681 52.4347 8.82488 51.7686 8.03273C54.4734 5.14244 57.0758 1.80255 56.0957 0.491807C55.0086 -0.966421 50.2628 1.09365 46.4733 3.07761C43.476 4.64764 40.0576 6.70057 36.4418 9.09369C32.6356 7.05264 27.8256 7.24771 24.1384 9.99527C23.0204 10.8279 22.0974 11.8294 21.379 12.9355C17.844 12.6334 14.4756 12.4597 11.502 12.4383C12.1443 11.7175 12.406 10.6875 12.0944 9.70029C11.6257 8.21114 10.0295 7.37854 8.54038 7.84956C7.81721 8.07792 7.25105 8.57272 6.91087 9.19122C5.85467 8.24682 5.02683 7.3952 4.47018 6.66727C4.41309 6.59353 4.30842 6.57925 4.2323 6.63635C4.15856 6.69344 4.14428 6.79811 4.20138 6.87423C4.78181 7.63308 5.65009 8.52277 6.76101 9.50761C6.55881 10.0143 6.50171 10.5828 6.62303 11.1442C6.62066 11.1657 6.62303 11.1894 6.63017 11.2109C6.63255 11.2204 6.64206 11.2251 6.64682 11.2346C6.6611 11.2917 6.67299 11.3464 6.68964 11.4035C6.77052 11.6581 6.88946 11.8912 7.02982 12.1053V12.1077C7.03219 12.1124 7.03695 12.1148 7.03933 12.1196C7.13448 12.2647 7.24153 12.3979 7.35809 12.5216C3.02861 12.7523 0.19779 13.4636 0.00986222 14.7744C-0.201854 16.2492 3.01196 17.9311 8.03369 19.5273C7.63166 19.6795 7.19871 19.7675 6.74435 19.7675C8.74971 19.7675 10.3768 21.3923 10.3768 23.4C10.3768 22.2701 10.893 21.2614 11.7019 20.5954C13.907 21.1877 16.3239 21.7562 18.8645 22.2867C15.9076 24.7988 13.2766 27.2228 11.1309 29.428C8.14549 32.4943 4.81749 36.4527 5.90462 37.9109C6.16154 38.2535 6.62065 38.4034 7.2225 38.4034C9.17553 38.4034 12.632 36.8428 15.527 35.3251C18.5267 33.7551 21.9451 31.6998 25.561 29.3091C27.2452 30.2106 29.1221 30.6816 31.0156 30.6816C33.4016 30.6816 35.8066 29.9418 37.8643 28.4099C38.9824 27.5773 39.9054 26.5758 40.6238 25.4696C44.4228 25.7931 48.0291 25.9715 51.1596 25.9715C57.4041 25.9715 61.7574 25.2698 61.9905 23.6332C62.2427 21.8276 57.4255 19.9436 53.3387 18.678ZM46.628 3.37971C50.4103 1.39814 53.2911 0.339561 54.7945 0.339561C55.2941 0.339561 55.6438 0.456124 55.8222 0.696387C56.4787 1.57656 54.8897 4.18614 51.5569 7.76154C51.1501 7.17397 50.9123 6.46507 50.9123 5.6967C50.9123 7.70207 49.2851 9.32919 47.2798 9.32919C48.06 9.32919 48.7808 9.57659 49.3731 9.99527C47.4415 11.8936 45.1959 13.9275 42.7219 16.0232C42.4769 15.9733 42.2319 15.9233 41.9845 15.8734C41.611 14.634 41.0187 13.4374 40.2027 12.3408C39.2464 11.0586 38.0737 10.0357 36.7724 9.28162C40.324 6.93608 43.6806 4.92358 46.628 3.37971ZM42.0558 17.8645L41.6681 17.3459C41.7609 17.2698 41.8513 17.1936 41.9417 17.1175C41.9892 17.3649 42.0249 17.6147 42.0558 17.8645ZM41.8988 21.4779L39.8982 18.7946C40.4097 18.3831 40.914 17.9715 41.4088 17.5624L42.063 18.4401C42.0772 18.4592 42.0939 18.4711 42.1129 18.4806C42.1748 19.4868 42.1034 20.4955 41.8988 21.4779ZM37.6907 24.0494L38.3448 24.9272C37.4837 24.8416 36.6012 24.7464 35.702 24.6418L34.7195 23.3239C34.6648 23.2478 34.5577 23.2335 34.484 23.2882C34.4102 23.3453 34.3936 23.45 34.4483 23.5237L35.2428 24.5894C34.4317 24.4943 33.6014 24.3896 32.7641 24.2802C33.197 23.9614 33.6324 23.6403 34.0677 23.3168C34.7314 22.822 35.388 22.3248 36.035 21.8276L36.6773 22.6888C36.7106 22.7339 36.7605 22.7577 36.8129 22.7577C36.8486 22.7577 36.8842 22.7458 36.9128 22.7244C36.9889 22.6697 37.0032 22.5627 36.9485 22.4889L36.3038 21.6254C36.8224 21.2281 37.3362 20.8285 37.8429 20.4312L40.8307 24.4396C40.707 24.6703 40.5738 24.8987 40.4358 25.1223C39.8982 25.0747 39.3535 25.0248 38.7992 24.9724L37.9619 23.8496C37.9071 23.7759 37.8001 23.7592 37.7263 23.8163C37.6502 23.8687 37.6336 23.9757 37.6907 24.0494ZM21.5621 13.2781C23.9671 13.4874 26.5339 13.7681 29.2339 14.1202C28.8009 14.4389 28.3656 14.7601 27.9303 15.0836C25.1542 17.1532 22.5042 19.2418 20.054 21.2829C19.5354 18.5377 20.0682 15.664 21.5621 13.2781ZM19.9088 22.1678C19.8066 22.1464 19.7019 22.1273 19.5996 22.1059C19.6805 22.0393 19.759 21.9703 19.8399 21.9037C19.8613 21.9894 19.8851 22.0798 19.9088 22.1678ZM20.1325 21.6587C22.616 19.5844 25.3088 17.4601 28.1325 15.3572C28.663 14.9623 29.1935 14.5722 29.7216 14.1868C30.3662 14.2724 31.0156 14.3604 31.677 14.4556C33.4611 14.7101 35.2167 14.9885 36.9342 15.281C36.9223 15.3286 36.9294 15.3786 36.9604 15.4214L39.432 18.7375C38.93 19.1419 38.421 19.5463 37.9071 19.9507L37.1911 18.9897C37.1364 18.9159 37.0294 18.8993 36.9532 18.9564C36.8795 19.0111 36.8628 19.1181 36.9199 19.1919L37.6431 20.1624C37.1364 20.5597 36.6226 20.9593 36.104 21.3566L35.5664 20.6358C35.5117 20.5597 35.4046 20.5454 35.3309 20.6025C35.2547 20.6572 35.2405 20.7643 35.2976 20.838L35.8376 21.5612C35.1881 22.0584 34.5339 22.5532 33.8703 23.048C33.3945 23.4024 32.9211 23.7497 32.4501 24.097L32.2074 23.7711C32.1527 23.6974 32.0457 23.6807 31.9719 23.7378C31.8958 23.7925 31.8815 23.8996 31.9363 23.9733L32.1028 24.1946C31.5176 24.1161 30.9252 24.0352 30.3282 23.9495C26.7171 23.4333 23.3582 22.8553 20.2871 22.2439C20.2252 22.0488 20.1753 21.8538 20.1325 21.6587ZM41.8632 16.744C41.7323 16.8535 41.5991 16.9653 41.4659 17.0747L40.6262 15.9471C40.9925 16.0185 41.3541 16.0899 41.7157 16.1612C41.7704 16.3563 41.8203 16.549 41.8632 16.744ZM41.2042 17.2912C40.707 17.7003 40.2051 18.1119 39.6936 18.5234L37.3243 15.3453C38.2759 15.5094 39.2107 15.6807 40.1337 15.8543L41.2042 17.2912ZM40.3264 15.5475L39.6936 14.6982C39.6389 14.6221 39.5319 14.6078 39.4581 14.6649C39.3844 14.7196 39.3677 14.8267 39.4248 14.9004L39.8388 15.4571C37.2339 14.9694 34.5149 14.5198 31.7245 14.1202C31.1893 14.0441 30.6541 13.9703 30.1188 13.8989C32.2693 12.3384 34.396 10.8588 36.4584 9.49095C37.7787 10.2308 38.9705 11.2537 39.9315 12.543C40.688 13.5564 41.2399 14.6578 41.6062 15.7996C41.1828 15.7116 40.757 15.6284 40.3264 15.5475ZM30.2711 24.2826C30.8063 24.3587 31.3415 24.4324 31.8792 24.5038C29.7311 26.0643 27.6044 27.544 25.5396 28.9118C24.2169 28.172 23.0251 27.1514 22.0641 25.8597C21.3076 24.844 20.7533 23.7402 20.387 22.596C23.5794 23.2335 26.9312 23.8068 30.2711 24.2826ZM40.9996 24.0994L38.107 20.2195C38.6232 19.8151 39.1299 19.4107 39.6318 19.0063L41.7751 21.8799C41.7823 21.8895 41.7918 21.8942 41.8013 21.9014C41.6134 22.6578 41.3446 23.3953 40.9996 24.0994ZM42.0868 16.235C42.1891 16.2564 42.2913 16.2778 42.3936 16.2992C42.3127 16.3658 42.2366 16.4324 42.1557 16.499C42.1343 16.411 42.1105 16.323 42.0868 16.235ZM24.3382 10.2665C26.3341 8.77968 28.6677 8.06127 30.9847 8.06127C32.7617 8.06127 34.5244 8.48709 36.1183 9.30778C34.0058 10.7113 31.8316 12.229 29.6335 13.8323C26.9835 13.485 24.3311 13.1924 21.7643 12.9688C22.4447 11.9554 23.3035 11.0372 24.3382 10.2665ZM7.47228 12.1457L8.97809 11.6723C9.0661 11.6438 9.11606 11.5486 9.08751 11.4606C9.08275 11.4464 9.07562 11.4368 9.06848 11.4249C9.04707 11.3893 9.01377 11.3631 8.97571 11.3512C8.94478 11.3417 8.91148 11.3369 8.87817 11.3488L7.27008 11.8555C7.16541 11.6842 7.07739 11.5011 7.01554 11.3012C7.01316 11.2917 7.01078 11.2798 7.00841 11.2703L8.35245 10.8469L8.73782 10.7256L9.38724 10.521C9.47526 10.4924 9.52522 10.3973 9.49667 10.3093C9.46813 10.2213 9.37297 10.1713 9.28495 10.1998L8.41906 10.4734L8.03606 10.5947L6.93228 10.942C6.8966 10.7184 6.89184 10.4972 6.91563 10.2783L7.45325 10.1095L7.82673 9.99051C7.8291 9.99051 7.83148 9.98813 7.83148 9.98813C7.91712 9.95721 7.9647 9.86681 7.93615 9.77879C7.90761 9.69078 7.81245 9.64082 7.72444 9.66936L7.52699 9.73122L7.15114 9.85016L6.987 9.90249C7.00127 9.85016 7.01792 9.8002 7.03457 9.74787C7.07263 9.63606 7.11783 9.52664 7.17255 9.41959C7.46514 8.84391 7.98135 8.38241 8.64267 8.17308C8.89007 8.09458 9.14222 8.05889 9.392 8.05889C10.453 8.05889 11.4378 8.74162 11.7732 9.80496C12.0801 10.7803 11.7542 11.8056 11.0286 12.4383C11.0191 12.4478 11.0072 12.4574 10.9977 12.4669C10.9073 12.543 10.8098 12.6096 10.7075 12.6738C10.648 12.7119 10.5838 12.7476 10.5196 12.7785C10.4006 12.838 10.2746 12.8927 10.1437 12.9355C9.56566 13.1187 8.97095 13.0782 8.4476 12.8641L8.59271 12.8189L9.775 12.4479L10.2175 12.3075L10.4434 12.2361C10.4958 12.2195 10.5315 12.1814 10.5481 12.1338C10.56 12.1005 10.5648 12.0625 10.5529 12.0244C10.5243 11.9364 10.4292 11.8864 10.3412 11.915L10.2793 11.934L9.88442 12.0577L8.56179 12.474L8.02655 12.6429C7.95994 12.6001 7.89571 12.5525 7.83148 12.5026C7.69827 12.3931 7.57933 12.2742 7.47228 12.1457ZM12.0492 20.3432C12.6129 19.9816 13.2838 19.7675 14.0046 19.7675C11.9992 19.7675 10.3721 18.1428 10.3721 16.135C10.3721 17.5029 9.61561 18.6947 8.49756 19.3132C3.15231 17.6266 0.176381 15.978 0.3429 14.8219C0.490388 13.7848 3.15945 13.0759 7.73395 12.8523C8.2121 13.1948 8.79016 13.3875 9.392 13.3875C9.67271 13.3875 9.95817 13.3447 10.2412 13.2567C10.5172 13.1686 10.7717 13.0426 10.9977 12.8879C12.7652 14.182 14.7825 15.5594 17.009 16.9819C17.0376 17.0009 17.0685 17.0081 17.0994 17.0081C17.1565 17.0081 17.2089 16.9795 17.2422 16.9296C17.2921 16.8511 17.2707 16.7464 17.1898 16.6965C15.0608 15.3358 13.1244 14.0203 11.4188 12.7761C14.2353 12.788 17.5157 12.9379 21.1815 13.2471C19.6805 15.7283 19.1738 18.6994 19.7566 21.5279C19.5615 21.692 19.3689 21.8538 19.1762 22.0179C16.5642 21.4779 14.183 20.9141 12.0492 20.3432ZM15.3676 35.023C10.3245 37.6635 6.88709 38.6674 6.17343 37.7064C5.4574 36.7477 7.40091 33.7385 11.3712 29.6611C13.5597 27.4131 16.2526 24.9391 19.2832 22.3724C19.5235 22.4223 19.7661 22.4723 20.0088 22.5199C20.3822 23.764 20.9746 24.9629 21.7953 26.0619C22.7492 27.3441 23.9243 28.3647 25.2279 29.1211C21.6716 31.4667 18.315 33.4792 15.3676 35.023ZM33.9464 29.9442C33.944 29.9395 33.944 29.9347 33.9392 29.9299L31.8435 27.1205C31.7888 27.0444 31.6817 27.0301 31.608 27.0872C31.5319 27.1419 31.5176 27.249 31.5747 27.3227L33.5967 30.037C32.8664 30.2106 32.1242 30.3082 31.3796 30.3343C31.3748 30.3248 31.3725 30.3153 31.3677 30.3082L29.8881 28.3242C29.8334 28.2505 29.7263 28.2338 29.6526 28.2909C29.5788 28.3456 29.5622 28.4527 29.6193 28.5264L30.9728 30.3439C29.2077 30.3391 27.4569 29.9157 25.875 29.0997C27.9874 27.6938 30.1664 26.1761 32.3644 24.5728C32.3668 24.5728 32.3716 24.5728 32.374 24.5752L35.8494 29.2353C35.2333 29.5303 34.5958 29.7658 33.9464 29.9442ZM37.6574 28.1339C37.1745 28.4931 36.6725 28.8071 36.1563 29.0759L32.8426 24.6299C33.7347 24.7441 34.6267 24.8535 35.514 24.9534L37.8001 28.0197C37.7525 28.0602 37.7073 28.0982 37.6574 28.1339ZM38.0665 27.8128L35.9755 25.0081C36.8581 25.1057 37.7382 25.1984 38.6113 25.2841L39.47 26.4378C39.049 26.9278 38.5827 27.3917 38.0665 27.8128ZM39.6936 26.1714L39.0633 25.3269C39.4558 25.3626 39.8459 25.4006 40.2336 25.4339C40.0647 25.6837 39.884 25.9311 39.6936 26.1714ZM40.8117 25.1532C42.3128 22.6721 42.8171 19.7009 42.2366 16.8725C42.4317 16.7107 42.622 16.549 42.8123 16.3872C46.697 17.1913 50.2438 18.0762 53.2364 19.0016C58.6744 20.6834 61.8192 22.3962 61.6503 23.5808C61.391 25.403 53.322 26.2142 40.8117 25.1532Z" fill="white"/>
</g>
</mask>
<g mask="url(#mask0_1_17255)">
<path id="Vector_2" d="M46.6327 -28.0044L79.4036 28.7594L15.4105 65.7076L-17.3628 8.94373L46.6327 -28.0044Z" fill="#35093C"/>
</g>
</g>
</g>
<g id="Group_2">
<g id="Clip path group_2">
<mask id="mask1_1_17255" style="mask-type:luminance" maskUnits="userSpaceOnUse" x="16" y="32" width="12" height="13">
<g id="SVGID_5_">
<path id="Vector_3" d="M27.2642 32.7061C25.7512 34.6591 24.2954 36.4338 22.9299 37.9967L22.34 37.4067L20.5082 39.2384L21.191 39.9211C19.1904 42.0621 17.4562 43.6321 16.1383 44.4695C16.0598 44.5194 16.036 44.6241 16.086 44.7026C16.1169 44.7526 16.1716 44.7811 16.2287 44.7811C16.2596 44.7811 16.2906 44.7716 16.3191 44.7549C17.6536 43.9057 19.4092 42.319 21.4289 40.1614L22.3376 41.0701L24.1693 39.2384L23.1678 38.2369C24.5428 36.6645 26.0105 34.8804 27.5306 32.9131C27.5877 32.8393 27.5734 32.7323 27.4997 32.6752C27.4259 32.6181 27.3212 32.6324 27.2642 32.7061Z" fill="white"/>
</g>
</mask>
<g mask="url(#mask1_1_17255)">
<path id="Vector_4" d="M24.6998 27.6177L32.8545 41.7408L18.924 49.7813L10.7717 35.6581L24.6998 27.6177Z" fill="#35093C"/>
</g>
</g>
</g>
<g id="Group_3">
<g id="Clip path group_3">
<mask id="mask2_1_17255" style="mask-type:luminance" maskUnits="userSpaceOnUse" x="41" y="33" width="6" height="6">
<g id="SVGID_8_">
<path id="Vector_5" d="M44.6249 33.1297C43.897 32.9227 43.131 33.0107 42.4697 33.3771C41.8083 33.7458 41.3302 34.3476 41.1209 35.0755C40.9139 35.8035 41.0019 36.5671 41.3683 37.2308C41.737 37.8921 42.3388 38.3702 43.0668 38.5796C43.3237 38.6533 43.5877 38.689 43.847 38.689C44.2348 38.689 44.6178 38.6034 44.9793 38.4464C45.0008 38.444 45.0245 38.4416 45.0436 38.4297C45.0578 38.4202 45.0697 38.4083 45.0816 38.3988C45.1268 38.375 45.1744 38.3583 45.2196 38.3322C45.8809 37.9635 46.3591 37.3616 46.5684 36.6337C46.7754 35.9058 46.6873 35.1398 46.321 34.4785C45.957 33.8148 45.3528 33.3366 44.6249 33.1297ZM45.2838 34.488C45.2386 34.4071 45.1363 34.3762 45.0531 34.4214C44.9722 34.4666 44.9413 34.5689 44.9865 34.6521L46.1664 36.774C46.0736 37.0072 45.9475 37.2236 45.7953 37.4139L45.0269 36.0318C44.9817 35.951 44.8794 35.92 44.7962 35.9652C44.7153 36.0104 44.6844 36.1127 44.7296 36.196L45.5503 37.6709C45.4028 37.8088 45.241 37.9302 45.0602 38.0324C45.0507 38.0372 45.0412 38.042 45.0317 38.0467L43.8185 35.8677C43.7733 35.7868 43.671 35.7559 43.5877 35.8011C43.5068 35.8463 43.4759 35.9486 43.5211 36.0318L44.72 38.1871C44.5107 38.2656 44.2942 38.3155 44.0754 38.3369L43.6091 37.4996C43.5639 37.4187 43.4616 37.3878 43.3784 37.433C43.2975 37.4782 43.2666 37.5805 43.3118 37.6637L43.69 38.3417C43.5116 38.3298 43.3356 38.3012 43.1595 38.2513C42.5196 38.0681 41.9868 37.6471 41.6632 37.0643C41.3397 36.4814 41.2612 35.8082 41.4444 35.1683C41.6276 34.5284 42.0486 33.9955 42.6314 33.672C43.0073 33.4627 43.4212 33.3556 43.8399 33.3556C44.0706 33.3556 44.3014 33.3866 44.5274 33.4532C45.1673 33.6363 45.7001 34.0574 46.0236 34.6402C46.3115 35.1564 46.4043 35.744 46.2948 36.3149L45.2838 34.488Z" fill="white"/>
</g>
</mask>
<g mask="url(#mask2_1_17255)">
<path id="Vector_6" d="M45.3147 30.3818L49.2779 37.2472L42.3816 41.227L38.4185 34.364L45.3147 30.3818Z" fill="#35093C"/>
</g>
</g>
</g>
</g>
</svg>
