<svg width="62" height="60" viewBox="0 0 62 60" fill="none" xmlns="http://www.w3.org/2000/svg">
<g id="Group 1952">
<g id="Group">
<g id="Clip path group">
<mask id="mask0_1_16726" style="mask-type:luminance" maskUnits="userSpaceOnUse" x="13" y="48" width="3" height="3">
<g id="SVGID_2_">
<path id="Vector" d="M13.8381 48.4108C13.7424 48.3279 13.6021 48.3375 13.5192 48.4331C13.4363 48.5288 13.4459 48.6723 13.5415 48.752C14.1474 49.2781 14.7882 49.7851 15.4451 50.2538C15.4833 50.2825 15.5312 50.2952 15.5758 50.2952C15.6459 50.2952 15.7161 50.2601 15.7607 50.1996C15.8341 50.0975 15.8086 49.9572 15.7065 49.8839C15.0593 49.4248 14.4311 48.9274 13.8381 48.4108Z" fill="white"/>
</g>
</mask>
<g mask="url(#mask0_1_16726)">
<path id="Vector_2" d="M15.2314 47.2886L16.6822 49.8043L14.0325 51.3316L12.5818 48.819L15.2314 47.2886Z" fill="#FD4380"/>
</g>
</g>
</g>
<g id="Group_2">
<g id="Clip path group_2">
<mask id="mask1_1_16726" style="mask-type:luminance" maskUnits="userSpaceOnUse" x="16" y="50" width="25" height="5">
<g id="SVGID_5_">
<path id="Vector_3" d="M40.312 52.1094C37.047 53.643 33.546 54.4178 29.9112 54.4178C25.409 54.4178 21.0089 53.1871 17.1827 50.8563C17.0743 50.7894 16.9372 50.8244 16.8703 50.9328C16.8065 51.0381 16.8384 51.1783 16.9468 51.2421C20.8431 53.6143 25.3261 54.8706 29.9112 54.8706C33.613 54.8706 37.1777 54.0799 40.5033 52.5175C40.6181 52.4633 40.6659 52.3294 40.6117 52.2146C40.5607 52.103 40.4236 52.0552 40.312 52.1094Z" fill="white"/>
</g>
</mask>
<g mask="url(#mask1_1_16726)">
<path id="Vector_4" d="M34.7002 40.4619L42.4323 53.8503L22.7721 65.2013L15.04 51.8129L34.7002 40.4619Z" fill="#FD4380"/>
</g>
</g>
</g>
<g id="Group_3">
<g id="Clip path group_3">
<mask id="mask2_1_16726" style="mask-type:luminance" maskUnits="userSpaceOnUse" x="44" y="45" width="5" height="6">
<g id="SVGID_8_">
<path id="Vector_5" d="M48.4393 45.9522C47.1958 47.387 45.7897 48.6752 44.2528 49.7848C44.1508 49.8581 44.1285 50.0016 44.2018 50.1004C44.2464 50.161 44.3166 50.1929 44.3867 50.1929C44.4314 50.1929 44.4792 50.177 44.5207 50.1483C46.083 49.0164 47.5178 47.7027 48.7836 46.2456C48.8665 46.1499 48.857 46.0064 48.7613 45.9267C48.6625 45.847 48.519 45.8566 48.4393 45.9522Z" fill="white"/>
</g>
</mask>
<g mask="url(#mask2_1_16726)">
<path id="Vector_6" d="M47.6773 43.7969L50.7446 49.1089L45.3115 52.2463L42.2441 46.9343L47.6773 43.7969Z" fill="#FD4380"/>
</g>
</g>
</g>
<g id="Group_4">
<g id="Clip path group_4">
<mask id="mask3_1_16726" style="mask-type:luminance" maskUnits="userSpaceOnUse" x="5" y="47" width="6" height="6">
<g id="SVGID_11_">
<path id="Vector_7" d="M6.02307 47.1478C5.94973 47.0458 5.80625 47.0235 5.70741 47.0968C5.60538 47.1702 5.58306 47.3105 5.65639 47.4125C7.0115 49.2873 8.58342 51.0059 10.3339 52.5204C10.3753 52.5587 10.4295 52.5746 10.4806 52.5746C10.5443 52.5746 10.6081 52.5491 10.6527 52.4949C10.7356 52.3993 10.7229 52.2558 10.6304 52.1761C8.90546 50.6871 7.35585 48.994 6.02307 47.1478Z" fill="white"/>
</g>
</mask>
<g mask="url(#mask3_1_16726)">
<path id="Vector_8" d="M9.44752 44.7949L13.1398 51.191L6.87123 54.8099L3.17578 48.4138L9.44752 44.7949Z" fill="#FD4380"/>
</g>
</g>
</g>
<g id="Group_5">
<g id="Clip path group_5">
<mask id="mask4_1_16726" style="mask-type:luminance" maskUnits="userSpaceOnUse" x="19" y="57" width="12" height="3">
<g id="SVGID_14_">
<path id="Vector_9" d="M29.9112 59.3693C27.8355 59.3693 25.763 59.1525 23.7511 58.7253C22.3163 58.4192 20.891 58.0015 19.52 57.4849C19.402 57.4403 19.2713 57.5009 19.2266 57.6157C19.182 57.7336 19.2426 57.8644 19.3574 57.909C20.7507 58.4351 22.1983 58.8592 23.6554 59.1685C25.6993 59.6021 27.8005 59.8221 29.9081 59.8221C30.0324 59.8221 30.1344 59.7201 30.1344 59.5957C30.1344 59.4714 30.0356 59.3693 29.9112 59.3693Z" fill="white"/>
</g>
</mask>
<g mask="url(#mask4_1_16726)">
<path id="Vector_10" d="M27.3987 52.6924L31.1707 59.2256L21.9241 64.5631L18.1521 58.0331L27.3987 52.6924Z" fill="#FD4380"/>
</g>
</g>
</g>
<g id="Group_6">
<g id="Clip path group_6">
<mask id="mask5_1_16726" style="mask-type:luminance" maskUnits="userSpaceOnUse" x="10" y="10" width="40" height="40">
<g id="SVGID_17_">
<path id="Vector_11" d="M29.911 10.7578C20.1638 10.7578 12.097 18.0786 10.9109 27.5133C10.9077 27.5324 10.9045 27.5547 10.9045 27.5739C10.8088 28.3423 10.7578 29.1203 10.7578 29.9142C10.7578 30.4786 10.7865 31.0334 10.8343 31.585C10.8343 31.5945 10.8343 31.6073 10.8375 31.6169C11.7016 41.3832 19.9247 49.0706 29.9142 49.0706C35.1306 49.0706 39.8655 46.9726 43.3218 43.5768C43.3505 43.5481 43.3792 43.5226 43.4078 43.4971C46.9024 40.0249 49.0706 35.2198 49.0706 29.9174C49.0674 19.3508 40.4744 10.7578 29.911 10.7578ZM43.3026 42.9487C43.2931 42.9232 43.2867 42.9009 43.2771 42.8754C43.2357 42.7574 43.1049 42.6968 42.987 42.7415C42.869 42.7861 42.8084 42.9136 42.8531 43.0316C42.8881 43.1305 42.9168 43.2165 42.9455 43.309C39.5753 46.59 34.9775 48.6146 29.9142 48.6146C20.2244 48.6146 12.2341 41.2078 11.303 31.7571C11.3859 31.7285 11.4657 31.6998 11.5581 31.6679C11.6761 31.6296 11.7431 31.5021 11.7048 31.3841C11.6665 31.2661 11.539 31.1992 11.421 31.2374C11.3668 31.2566 11.3222 31.2725 11.268 31.2884C11.2329 30.8325 11.2106 30.3765 11.2106 29.9142C11.2106 29.1936 11.2552 28.4858 11.3349 27.7875C11.4242 27.7779 11.5135 27.7652 11.6028 27.7556C11.7271 27.7428 11.8164 27.6313 11.8036 27.5069C11.7909 27.3825 11.6793 27.2933 11.5549 27.306C11.5039 27.3124 11.4497 27.3188 11.3955 27.3252C12.6613 18.2348 20.4795 11.2138 29.9142 11.2138C40.2257 11.2138 48.6146 19.6027 48.6146 29.9142C48.6115 34.9775 46.5836 39.5785 43.3026 42.9487Z" fill="white"/>
</g>
</mask>
<g mask="url(#mask5_1_16726)">
<path id="Vector_12" d="M39.4893 -5.83154L65.6539 39.4895L20.3329 65.6542L-5.83179 20.3331L39.4893 -5.83154Z" fill="#FD4380"/>
</g>
</g>
</g>
<g id="Group_7">
<g id="Clip path group_7">
<mask id="mask6_1_16726" style="mask-type:luminance" maskUnits="userSpaceOnUse" x="14" y="6" width="8" height="5">
<g id="SVGID_20_">
<path id="Vector_13" d="M21.0599 6.56834C18.7037 7.46111 16.4972 8.70781 14.5044 10.2733C14.4056 10.3499 14.3896 10.4934 14.4662 10.5922C14.5108 10.6496 14.5778 10.6783 14.6447 10.6783C14.6925 10.6783 14.7436 10.6623 14.785 10.6305C16.7396 9.09361 18.9045 7.86924 21.2194 6.9924C21.3373 6.94777 21.3947 6.81704 21.3501 6.69906C21.3086 6.58109 21.1779 6.5237 21.0599 6.56834Z" fill="white"/>
</g>
</mask>
<g mask="url(#mask6_1_16726)">
<path id="Vector_14" d="M19.6442 3.49121L23.1962 9.6386L16.1433 13.7103L12.5913 7.5629L19.6442 3.49121Z" fill="#FD4380"/>
</g>
</g>
</g>
<g id="Group_8">
<g id="Clip path group_8">
<mask id="mask7_1_16726" style="mask-type:luminance" maskUnits="userSpaceOnUse" x="6" y="12" width="7" height="11">
<g id="SVGID_23_">
<path id="Vector_15" d="M6.32287 22.4566C6.34519 22.4629 6.3707 22.4661 6.39301 22.4661C6.48867 22.4661 6.57795 22.4055 6.60983 22.3099C7.79595 18.6686 9.86208 15.308 12.585 12.585C12.6743 12.4957 12.6743 12.3523 12.585 12.2662C12.4958 12.1769 12.3523 12.1769 12.2662 12.2662C9.49222 15.0402 7.38782 18.4646 6.17939 22.1728C6.13794 22.2876 6.20171 22.4151 6.32287 22.4566Z" fill="white"/>
</g>
</mask>
<g mask="url(#mask7_1_16726)">
<path id="Vector_16" d="M11.0386 9.34521L17.1254 19.8927L7.77042 25.294L1.68042 14.7465L11.0386 9.34521Z" fill="#FD4380"/>
</g>
</g>
</g>
<g id="Group_9">
<g id="Clip path group_9">
<mask id="mask8_1_16726" style="mask-type:luminance" maskUnits="userSpaceOnUse" x="2" y="25" width="9" height="20">
<g id="SVGID_26_">
<path id="Vector_17" d="M9.79172 44.5271C9.83636 44.5271 9.88418 44.5143 9.92244 44.4856C10.0245 44.4123 10.0468 44.272 9.97346 44.17C7.43224 40.6212 5.91453 36.5304 5.51278 32.2195C6.74034 32.1111 7.70964 31.0876 7.70964 29.8346C7.70964 28.5847 6.74991 27.5676 5.53191 27.4496C5.58292 26.9299 5.64669 26.4165 5.72959 25.9032C5.74872 25.7788 5.66582 25.664 5.54147 25.6417C5.41712 25.6194 5.30234 25.7055 5.28002 25.8298C5.19074 26.3655 5.12697 26.9044 5.07277 27.4464C3.85158 27.5644 2.89185 28.5815 2.89185 29.8314C2.89185 31.0749 3.8452 32.0888 5.05682 32.2132C5.45857 36.6196 7.00817 40.8061 9.6036 44.4314C9.65142 44.4952 9.72157 44.5271 9.79172 44.5271ZM3.35099 29.8314C3.35099 28.8461 4.08434 28.0363 5.0345 27.9055C5.12378 27.8928 5.21306 27.8768 5.30553 27.8768C5.36929 27.8768 5.42669 27.8896 5.48727 27.896C6.47889 27.9884 7.26006 28.8174 7.26006 29.8314C7.26006 30.8517 6.47251 31.6807 5.4777 31.7668C5.42031 31.7732 5.36611 31.7827 5.30553 31.7827C5.20668 31.7827 5.11422 31.7668 5.02175 31.754C4.07796 31.6169 3.35099 30.8102 3.35099 29.8314Z" fill="white"/>
</g>
</mask>
<g mask="url(#mask8_1_16726)">
<path id="Vector_18" d="M8.26125 22.5234L18.238 39.7986L4.68377 47.6232L-5.28979 30.3448L8.26125 22.5234Z" fill="#FD4380"/>
</g>
</g>
</g>
<g id="Group_10">
<g id="Clip path group_10">
<mask id="mask9_1_16726" style="mask-type:luminance" maskUnits="userSpaceOnUse" x="52" y="29" width="3" height="10">
<g id="SVGID_29_">
<path id="Vector_19" d="M54.6441 29.6846C54.5197 29.6846 54.4177 29.7866 54.4177 29.911C54.4177 31.6359 54.2359 33.3609 53.882 35.0348C53.6269 36.2305 53.2826 37.4134 52.8521 38.5549C52.8075 38.6729 52.8681 38.8036 52.9829 38.8483C53.0084 38.8578 53.0371 38.8642 53.0626 38.8642C53.155 38.8642 53.2411 38.81 53.2762 38.7175C53.713 37.5569 54.0669 36.3485 54.3284 35.1305C54.6919 33.4247 54.8736 31.671 54.8736 29.911C54.8704 29.7866 54.7684 29.6846 54.6441 29.6846Z" fill="white"/>
</g>
</mask>
<g mask="url(#mask9_1_16726)">
<path id="Vector_20" d="M54.354 28.792L58.8434 36.5687L53.3209 39.7572L48.8315 31.9805L54.354 28.792Z" fill="#FD4380"/>
</g>
</g>
</g>
<g id="Group_11">
<g id="Clip path group_11">
<mask id="mask10_1_16726" style="mask-type:luminance" maskUnits="userSpaceOnUse" x="26" y="4" width="5" height="2">
<g id="SVGID_32_">
<path id="Vector_21" d="M26.847 5.13964C26.7226 5.15558 26.6334 5.26718 26.6493 5.39153C26.6621 5.50631 26.7609 5.5924 26.8725 5.5924C26.8821 5.5924 26.8916 5.5924 26.9012 5.58921C27.8928 5.46805 28.9036 5.40747 29.9111 5.40747C30.0355 5.40747 30.1375 5.30544 30.1375 5.18109C30.1375 5.05674 30.0355 4.9547 29.9111 4.9547C28.8876 4.95152 27.8546 5.01529 26.847 5.13964Z" fill="white"/>
</g>
</mask>
<g mask="url(#mask10_1_16726)">
<path id="Vector_22" d="M29.2606 3.43359L30.4149 5.42958L27.5102 7.10672L26.3591 5.11073L29.2606 3.43359Z" fill="#FD4380"/>
</g>
</g>
</g>
<g id="Group_12">
<g id="Clip path group_12">
<mask id="mask11_1_16726" style="mask-type:luminance" maskUnits="userSpaceOnUse" x="53" y="11" width="5" height="9">
<g id="SVGID_35_">
<path id="Vector_23" d="M57.4628 19.4656C57.4979 19.5549 57.584 19.6123 57.6733 19.6123C57.6988 19.6123 57.7275 19.6059 57.753 19.5963C57.871 19.5517 57.9284 19.4209 57.8837 19.303C56.8124 16.478 55.317 13.8347 53.4422 11.4497C53.3656 11.3509 53.2222 11.335 53.1233 11.4115C53.0245 11.488 53.0085 11.6315 53.0851 11.7303C54.9344 14.0802 56.4075 16.682 57.4628 19.4656Z" fill="white"/>
</g>
</mask>
<g mask="url(#mask11_1_16726)">
<path id="Vector_24" d="M56.7009 9.20508L61.5123 17.543L54.2426 21.7422L49.428 13.4043L56.7009 9.20508Z" fill="#FD4380"/>
</g>
</g>
</g>
<g id="Group_13">
<g id="Clip path group_13">
<mask id="mask12_1_16726" style="mask-type:luminance" maskUnits="userSpaceOnUse" x="38" y="1" width="14" height="9">
<g id="SVGID_38_">
<path id="Vector_25" d="M39.1896 1.47008C39.0717 1.43182 38.9441 1.49559 38.9059 1.61356C38.8676 1.73154 38.9314 1.85908 39.0494 1.90053C43.424 3.32578 47.4669 5.8096 50.7415 9.08417C50.7862 9.12881 50.8435 9.15113 50.9009 9.15113C50.9583 9.15113 51.0157 9.12881 51.0604 9.08417C51.1496 8.9949 51.1496 8.85141 51.0604 8.76533C47.738 5.43974 43.6312 2.91765 39.1896 1.47008Z" fill="white"/>
</g>
</mask>
<g mask="url(#mask12_1_16726)">
<path id="Vector_26" d="M48.076 -3.88672L54.4912 7.21876L41.935 14.4662L35.5229 3.3607L48.076 -3.88672Z" fill="#FD4380"/>
</g>
</g>
</g>
<g id="Group_14">
<g id="Clip path group_14">
<mask id="mask13_1_16726" style="mask-type:luminance" maskUnits="userSpaceOnUse" x="12" y="0" width="23" height="6">
<g id="SVGID_41_">
<path id="Vector_27" d="M12.6424 5.99115C12.687 5.99115 12.7348 5.9784 12.7731 5.94971C17.7917 2.35629 23.7159 0.455953 29.908 0.455953C31.5245 0.455953 33.1475 0.586681 34.729 0.848136C34.8533 0.867267 34.9681 0.784367 34.9904 0.660016C35.0095 0.535665 34.9266 0.420879 34.8023 0.39856C33.1985 0.133916 31.55 0 29.908 0C23.6203 0 17.6036 1.92903 12.5084 5.57984C12.4064 5.65318 12.3841 5.79347 12.4574 5.8955C12.5021 5.95927 12.5722 5.99115 12.6424 5.99115Z" fill="white"/>
</g>
</mask>
<g mask="url(#mask13_1_16726)">
<path id="Vector_28" d="M29.3565 -9.79492L37.6051 4.49585L18.0438 15.7894L9.79199 1.49868L29.3565 -9.79492Z" fill="#FD4380"/>
</g>
</g>
</g>
<g id="Group_15">
<g id="Clip path group_15">
<mask id="mask14_1_16726" style="mask-type:luminance" maskUnits="userSpaceOnUse" x="5" y="10" width="3" height="3">
<g id="SVGID_44_">
<path id="Vector_29" d="M5.72012 12.9326C5.79027 12.9326 5.86041 12.9007 5.90505 12.8369C6.45347 12.0653 7.04972 11.3096 7.67466 10.589C7.75756 10.4934 7.74799 10.3531 7.65234 10.2702C7.55669 10.1873 7.4132 10.1969 7.33349 10.2925C6.69898 11.0227 6.09317 11.7911 5.53519 12.5723C5.46185 12.6743 5.48736 12.8146 5.58939 12.8879C5.63084 12.9166 5.67548 12.9326 5.72012 12.9326Z" fill="white"/>
</g>
</mask>
<g mask="url(#mask14_1_16726)">
<path id="Vector_30" d="M7.18696 9.19238L8.947 12.2438L6.03911 13.9241L4.27588 10.8727L7.18696 9.19238Z" fill="#FD4380"/>
</g>
</g>
</g>
<g id="Group_16">
<g id="Clip path group_16">
<mask id="mask15_1_16726" style="mask-type:luminance" maskUnits="userSpaceOnUse" x="0" y="14" width="5" height="29">
<g id="SVGID_47_">
<path id="Vector_31" d="M0.455953 29.911C0.455953 24.5001 1.93541 19.2104 4.73489 14.6126C4.79866 14.5074 4.76678 14.3671 4.65837 14.3002C4.54996 14.2332 4.41286 14.2683 4.3459 14.3767C1.50177 19.0446 0 24.4172 0 29.911C0 34.3493 0.950167 38.6187 2.81862 42.6043C2.85688 42.6872 2.93978 42.735 3.02268 42.735C3.05456 42.735 3.08645 42.7286 3.11833 42.7127C3.23312 42.6585 3.28095 42.5246 3.22674 42.4098C1.39018 38.488 0.455953 34.2824 0.455953 29.911Z" fill="white"/>
</g>
</mask>
<g mask="url(#mask15_1_16726)">
<path id="Vector_32" d="M3.59986 12.1572L17.1413 35.6085L1.20212 44.8136L-12.3394 21.3592L3.59986 12.1572Z" fill="#FD4380"/>
</g>
</g>
</g>
<g id="Group_17">
<g id="Group_18">
<g id="Clip path group_17">
<mask id="mask16_1_16726" style="mask-type:luminance" maskUnits="userSpaceOnUse" x="29" y="47" width="2" height="1">
<g id="SVGID_50_">
<path id="Vector_33" d="M29.8505 47.4259C29.7071 47.3972 29.5636 47.3653 29.4201 47.3302C29.2989 47.2983 29.1746 47.3717 29.1459 47.4928C29.114 47.614 29.1873 47.7383 29.3085 47.767C29.4584 47.8053 29.6114 47.8404 29.7645 47.8691C29.7804 47.8723 29.7931 47.8723 29.8091 47.8723C29.9143 47.8723 30.01 47.7957 30.0323 47.6873C30.0546 47.5662 29.9749 47.4482 29.8505 47.4259Z" fill="white"/>
</g>
</mask>
<g mask="url(#mask16_1_16726)">
<path id="Vector_34" d="M29.8186 46.8901L30.3032 47.7287L29.3499 48.2803L28.8652 47.4417L29.8186 46.8901Z" fill="#FD4380"/>
</g>
</g>
</g>
<g id="Group_19">
<g id="Clip path group_18">
<mask id="mask17_1_16726" style="mask-type:luminance" maskUnits="userSpaceOnUse" x="27" y="46" width="1" height="2">
<g id="SVGID_53_">
<path id="Vector_35" d="M27.775 46.7081C27.6442 46.6411 27.5167 46.571 27.3891 46.4976C27.2807 46.4371 27.1436 46.4689 27.0799 46.5774C27.0161 46.6858 27.0512 46.8229 27.1596 46.8866C27.2935 46.9663 27.4306 47.0397 27.5677 47.1098C27.5996 47.1258 27.6347 47.1353 27.6697 47.1353C27.7526 47.1353 27.8323 47.0907 27.8706 47.011C27.9312 46.8994 27.8866 46.7655 27.775 46.7081Z" fill="white"/>
</g>
</mask>
<g mask="url(#mask17_1_16726)">
<path id="Vector_36" d="M27.7016 46.0386L28.234 46.96L27.2456 47.5308L26.7131 46.6093L27.7016 46.0386Z" fill="#FD4380"/>
</g>
</g>
</g>
<g id="Group_20">
<g id="Clip path group_19">
<mask id="mask18_1_16726" style="mask-type:luminance" maskUnits="userSpaceOnUse" x="35" y="45" width="2" height="2">
<g id="SVGID_56_">
<path id="Vector_37" d="M36.0586 45.892C35.9502 45.9877 35.8386 46.077 35.7206 46.163C35.6186 46.2364 35.5963 46.3799 35.6728 46.4787C35.7174 46.5393 35.7844 46.5712 35.8545 46.5712C35.9024 46.5712 35.947 46.5584 35.9885 46.5265C36.116 46.4309 36.2404 46.332 36.3583 46.23C36.454 46.1471 36.4604 46.0036 36.3775 45.9112C36.2946 45.8155 36.1511 45.8059 36.0586 45.892Z" fill="white"/>
</g>
</mask>
<g mask="url(#mask18_1_16726)">
<path id="Vector_38" d="M36.2435 45.4331L36.7919 46.3801L35.8131 46.9444L35.2678 45.9975L36.2435 45.4331Z" fill="#FD4380"/>
</g>
</g>
</g>
<g id="Group_21">
<g id="Clip path group_20">
<mask id="mask19_1_16726" style="mask-type:luminance" maskUnits="userSpaceOnUse" x="35" y="39" width="2" height="2">
<g id="SVGID_59_">
<path id="Vector_39" d="M36.0012 40.6949C36.0586 40.6949 36.1128 40.6725 36.1575 40.6311C36.2468 40.545 36.2499 40.4015 36.1639 40.3123C36.0554 40.1975 35.9407 40.0891 35.8259 39.9838C35.7334 39.9009 35.5899 39.9073 35.507 39.9998C35.4241 40.0922 35.4305 40.2357 35.523 40.3186C35.6314 40.4143 35.7366 40.5163 35.8354 40.6215C35.8833 40.6725 35.9439 40.6949 36.0012 40.6949Z" fill="white"/>
</g>
</mask>
<g mask="url(#mask19_1_16726)">
<path id="Vector_40" d="M36.0459 39.5439L36.5975 40.4973L35.6314 41.0553L35.0798 40.0987L36.0459 39.5439Z" fill="#FD4380"/>
</g>
</g>
</g>
<g id="Group_22">
<g id="Clip path group_21">
<mask id="mask20_1_16726" style="mask-type:luminance" maskUnits="userSpaceOnUse" x="36" y="41" width="2" height="2">
<g id="SVGID_62_">
<path id="Vector_41" d="M37.1969 42.6014C37.2224 42.6014 37.2479 42.5982 37.2702 42.5887C37.3882 42.5472 37.4519 42.4197 37.4105 42.2985C37.3595 42.1486 37.2989 42.002 37.2319 41.8585C37.1809 41.7437 37.0438 41.6959 36.9322 41.7469C36.8174 41.7979 36.7696 41.935 36.8206 42.0466C36.8812 42.1773 36.9354 42.3113 36.9832 42.4452C37.0151 42.5408 37.1044 42.6014 37.1969 42.6014Z" fill="white"/>
</g>
</mask>
<g mask="url(#mask20_1_16726)">
<path id="Vector_42" d="M37.283 41.3994L37.8441 42.3751L36.9386 42.8948L36.3774 41.9223L37.283 41.3994Z" fill="#FD4380"/>
</g>
</g>
</g>
<g id="Group_23">
<g id="Clip path group_22">
<mask id="mask21_1_16726" style="mask-type:luminance" maskUnits="userSpaceOnUse" x="33" y="46" width="2" height="2">
<g id="SVGID_65_">
<path id="Vector_43" d="M34.1775 46.9825C34.0404 47.0367 33.9001 47.0845 33.763 47.1292C33.645 47.1674 33.578 47.295 33.6195 47.4161C33.6514 47.5118 33.7407 47.5724 33.8363 47.5724C33.8586 47.5724 33.8841 47.5692 33.9065 47.5596C34.0531 47.5118 34.1998 47.4608 34.3465 47.4034C34.4644 47.3587 34.5218 47.228 34.4772 47.11C34.4326 46.9921 34.2955 46.941 34.1775 46.9825Z" fill="white"/>
</g>
</mask>
<g mask="url(#mask21_1_16726)">
<path id="Vector_44" d="M34.2828 46.5327L34.7898 47.4159L33.8109 47.9803L33.304 47.0971L34.2828 46.5327Z" fill="#FD4380"/>
</g>
</g>
</g>
<g id="Group_24">
<g id="Clip path group_23">
<mask id="mask22_1_16726" style="mask-type:luminance" maskUnits="userSpaceOnUse" x="24" y="43" width="1" height="2">
<g id="SVGID_68_">
<path id="Vector_45" d="M24.5228 43.2838C24.4749 43.1691 24.3442 43.1117 24.2262 43.1595C24.1114 43.2073 24.054 43.338 24.1019 43.456C24.1593 43.5995 24.223 43.743 24.2932 43.8833C24.3314 43.963 24.4143 44.0108 24.4972 44.0108C24.5323 44.0108 24.5642 44.0044 24.5961 43.9885C24.7077 43.9343 24.7555 43.7972 24.7013 43.6856C24.6375 43.5517 24.577 43.4178 24.5228 43.2838Z" fill="white"/>
</g>
</mask>
<g mask="url(#mask22_1_16726)">
<path id="Vector_46" d="M24.5833 42.8091L25.1445 43.7848L24.2326 44.314L23.6682 43.3384L24.5833 42.8091Z" fill="#FD4380"/>
</g>
</g>
</g>
<g id="Group_25">
<g id="Clip path group_24">
<mask id="mask23_1_16726" style="mask-type:luminance" maskUnits="userSpaceOnUse" x="23" y="40" width="2" height="2">
<g id="SVGID_71_">
<path id="Vector_47" d="M24.0666 41.1508C24.0602 41.0264 23.9518 40.9212 23.8275 40.9372C23.7031 40.9435 23.6074 41.0519 23.6138 41.1763C23.6234 41.3325 23.6361 41.4856 23.6521 41.6418C23.6648 41.7566 23.7637 41.8427 23.8753 41.8427C23.8848 41.8427 23.8912 41.8427 23.9008 41.8427C24.0251 41.8299 24.1144 41.7151 24.1017 41.594C24.0889 41.4441 24.0762 41.2974 24.0666 41.1508Z" fill="white"/>
</g>
</mask>
<g mask="url(#mask23_1_16726)">
<path id="Vector_48" d="M23.9902 40.6982L24.5194 41.6133L23.7351 42.0629L23.209 41.151L23.9902 40.6982Z" fill="#FD4380"/>
</g>
</g>
</g>
<g id="Group_26">
<g id="Clip path group_25">
<mask id="mask24_1_16726" style="mask-type:luminance" maskUnits="userSpaceOnUse" x="23" y="38" width="2" height="2">
<g id="SVGID_74_">
<path id="Vector_49" d="M23.7288 38.8742C23.7096 39.0273 23.6905 39.1771 23.6746 39.3302C23.6618 39.4545 23.7511 39.5661 23.8754 39.5789C23.885 39.5789 23.8914 39.5789 23.9009 39.5789C24.0157 39.5789 24.1146 39.4928 24.1273 39.3748C24.1433 39.2282 24.1624 39.0783 24.1815 38.9316C24.1975 38.8073 24.1114 38.6957 23.987 38.6765C23.8595 38.6638 23.7447 38.7499 23.7288 38.8742Z" fill="white"/>
</g>
</mask>
<g mask="url(#mask24_1_16726)">
<path id="Vector_50" d="M24.0603 38.4341L24.5928 39.3524L23.7956 39.8115L23.2664 38.8932L24.0603 38.4341Z" fill="#FD4380"/>
</g>
</g>
</g>
<g id="Group_27">
<g id="Clip path group_26">
<mask id="mask25_1_16726" style="mask-type:luminance" maskUnits="userSpaceOnUse" x="33" y="38" width="2" height="2">
<g id="SVGID_77_">
<path id="Vector_51" d="M33.7756 38.8361C33.6544 38.8042 33.5301 38.8775 33.5014 38.9987C33.4695 39.1198 33.5428 39.2442 33.664 39.2761C33.7947 39.3112 33.9318 39.3526 34.0689 39.4068C34.0944 39.4164 34.1231 39.4228 34.1486 39.4228C34.2411 39.4228 34.324 39.3685 34.3591 39.2793C34.4037 39.1613 34.3463 39.0306 34.2283 38.9859C34.0753 38.9222 33.9222 38.8743 33.7756 38.8361Z" fill="white"/>
</g>
</mask>
<g mask="url(#mask25_1_16726)">
<path id="Vector_52" d="M34.171 38.3994L34.6747 39.2667L33.7022 39.8279L33.2017 38.9574L34.171 38.3994Z" fill="#FD4380"/>
</g>
</g>
</g>
<g id="Group_28">
<g id="Clip path group_27">
<mask id="mask26_1_16726" style="mask-type:luminance" maskUnits="userSpaceOnUse" x="31" y="47" width="2" height="1">
<g id="SVGID_80_">
<path id="Vector_53" d="M32.038 47.5086C31.8881 47.5245 31.7414 47.5373 31.598 47.5468C31.4736 47.5532 31.378 47.6616 31.3843 47.786C31.3907 47.9071 31.4927 47.9996 31.6107 47.9996C31.6139 47.9996 31.6203 47.9996 31.6235 47.9996C31.7733 47.99 31.9296 47.9773 32.089 47.9582C32.2133 47.9422 32.3026 47.8306 32.2899 47.7063C32.2739 47.5819 32.1623 47.4958 32.038 47.5086Z" fill="white"/>
</g>
</mask>
<g mask="url(#mask26_1_16726)">
<path id="Vector_54" d="M32.0699 47.0942L32.5194 47.8722L31.6107 48.3983L31.1611 47.6203L32.0699 47.0942Z" fill="#FD4380"/>
</g>
</g>
</g>
<g id="Group_29">
<g id="Clip path group_28">
<mask id="mask27_1_16726" style="mask-type:luminance" maskUnits="userSpaceOnUse" x="31" y="38" width="2" height="2">
<g id="SVGID_83_">
<path id="Vector_55" d="M31.9135 39.1582C32.041 39.1582 32.1398 39.0594 32.143 38.935C32.143 38.8107 32.0442 38.7086 31.9198 38.7054C31.7477 38.7023 31.6201 38.6927 31.5053 38.6736C31.381 38.6512 31.263 38.7341 31.2407 38.8553C31.2184 38.9797 31.3013 39.0976 31.4224 39.1199C31.5627 39.1423 31.7158 39.155 31.9135 39.1582Z" fill="white"/>
</g>
</mask>
<g mask="url(#mask27_1_16726)">
<path id="Vector_56" d="M31.9136 38.2495L32.3632 39.0307L31.4513 39.5568L31.0017 38.7788L31.9136 38.2495Z" fill="#FD4380"/>
</g>
</g>
</g>
<g id="Group_30">
<g id="Clip path group_29">
<mask id="mask28_1_16726" style="mask-type:luminance" maskUnits="userSpaceOnUse" x="37" y="43" width="1" height="2">
<g id="SVGID_86_">
<path id="Vector_57" d="M37.401 43.9373C37.2766 43.915 37.1587 43.9947 37.1363 44.1191C37.1108 44.253 37.0726 44.3901 37.0279 44.5208C36.9865 44.6388 37.0471 44.7695 37.165 44.811C37.1905 44.8205 37.216 44.8237 37.2416 44.8237C37.334 44.8237 37.4233 44.7663 37.4552 44.6739C37.5094 44.5208 37.554 44.3614 37.5827 44.2052C37.6019 44.0776 37.5221 43.9597 37.401 43.9373Z" fill="white"/>
</g>
</mask>
<g mask="url(#mask28_1_16726)">
<path id="Vector_58" d="M37.4488 43.644L37.9972 44.5942L37.1395 45.0884L36.5911 44.1414L37.4488 43.644Z" fill="#FD4380"/>
</g>
</g>
</g>
<g id="Group_31">
<g id="Clip path group_30">
<mask id="mask29_1_16726" style="mask-type:luminance" maskUnits="userSpaceOnUse" x="25" y="45" width="2" height="1">
<g id="SVGID_89_">
<path id="Vector_59" d="M25.6865 45.1238C25.6036 45.0313 25.4602 45.025 25.3677 45.1079C25.2752 45.1908 25.2689 45.3342 25.3518 45.4267C25.457 45.5415 25.5654 45.6531 25.677 45.7615C25.7216 45.803 25.779 45.8253 25.8364 45.8253C25.8938 45.8253 25.9544 45.8029 25.999 45.7583C26.0851 45.669 26.0851 45.5256 25.9958 45.4395C25.8874 45.3342 25.7854 45.229 25.6865 45.1238Z" fill="white"/>
</g>
</mask>
<g mask="url(#mask29_1_16726)">
<path id="Vector_60" d="M25.8779 44.668L26.4327 45.6245L25.4698 46.1793L24.9182 45.2228L25.8779 44.668Z" fill="#FD4380"/>
</g>
</g>
</g>
<g id="Group_32">
<g id="Clip path group_31">
<mask id="mask30_1_16726" style="mask-type:luminance" maskUnits="userSpaceOnUse" x="31" y="45" width="1" height="2">
<g id="SVGID_92_">
<path id="Vector_61" d="M31.7062 46.1055H31.7349C31.8593 46.1055 31.9486 46.0035 31.9486 45.8791C31.9486 45.7548 31.8338 45.6528 31.7094 45.6528C31.6552 45.6528 31.5978 45.6528 31.5436 45.6496C31.4193 45.64 31.3109 45.7388 31.3045 45.8632C31.2981 45.9875 31.3938 46.096 31.5181 46.1023C31.5787 46.1023 31.6425 46.1055 31.7062 46.1055Z" fill="white"/>
</g>
</mask>
<g mask="url(#mask30_1_16726)">
<path id="Vector_62" d="M31.7827 45.353L32.1494 45.9875L31.4575 46.3861L31.094 45.7548L31.7827 45.353Z" fill="#FD4380"/>
</g>
</g>
</g>
<g id="Group_33">
<g id="Clip path group_32">
<mask id="mask31_1_16726" style="mask-type:luminance" maskUnits="userSpaceOnUse" x="33" y="44" width="1" height="2">
<g id="SVGID_95_">
<path id="Vector_63" d="M33.919 44.8591C33.8266 44.773 33.6831 44.7794 33.6002 44.8719C33.5109 44.9707 33.4089 45.0632 33.2941 45.1461C33.1952 45.2194 33.1729 45.3629 33.2494 45.4617C33.2941 45.5223 33.361 45.5542 33.4312 45.5542C33.479 45.5542 33.5268 45.5383 33.5651 45.5096C33.699 45.4075 33.8234 45.2991 33.9318 45.178C34.0179 45.0887 34.0115 44.9452 33.919 44.8591Z" fill="white"/>
</g>
</mask>
<g mask="url(#mask31_1_16726)">
<path id="Vector_64" d="M33.8074 44.4092L34.3559 45.3593L33.3866 45.9205L32.835 44.9704L33.8074 44.4092Z" fill="#FD4380"/>
</g>
</g>
</g>
<g id="Group_34">
<g id="Clip path group_33">
<mask id="mask32_1_16726" style="mask-type:luminance" maskUnits="userSpaceOnUse" x="28" y="42" width="1" height="2">
<g id="SVGID_98_">
<path id="Vector_65" d="M28.5879 42.3273C28.4699 42.4294 28.3583 42.5346 28.2435 42.6494C28.1542 42.7386 28.1574 42.8821 28.2435 42.9682C28.2881 43.0129 28.3455 43.0352 28.4029 43.0352C28.4603 43.0352 28.5209 43.0129 28.5624 42.9682C28.6676 42.863 28.7728 42.7641 28.8812 42.6685C28.9769 42.5856 28.9864 42.4453 28.9035 42.3496C28.8238 42.254 28.6803 42.2444 28.5879 42.3273Z" fill="white"/>
</g>
</mask>
<g mask="url(#mask32_1_16726)">
<path id="Vector_66" d="M28.7791 41.8843L29.3307 42.8376L28.3646 43.3956L27.813 42.4423L28.7791 41.8843Z" fill="#FD4380"/>
</g>
</g>
</g>
<g id="Group_35">
<g id="Clip path group_34">
<mask id="mask33_1_16726" style="mask-type:luminance" maskUnits="userSpaceOnUse" x="33" y="42" width="2" height="2">
<g id="SVGID_101_">
<path id="Vector_67" d="M34.3273 42.8311C34.2763 42.7163 34.1456 42.6621 34.0308 42.7131C33.916 42.7609 33.8618 42.8948 33.9128 43.0096C33.967 43.1372 34.0085 43.2679 34.034 43.3954C34.0563 43.5038 34.1487 43.5772 34.2572 43.5772C34.2731 43.5772 34.2858 43.5772 34.3018 43.574C34.4261 43.5485 34.5027 43.4305 34.4803 43.3061C34.4453 43.1499 34.3943 42.9905 34.3273 42.8311Z" fill="white"/>
</g>
</mask>
<g mask="url(#mask33_1_16726)">
<path id="Vector_68" d="M34.3431 42.3848L34.9011 43.3509L34.0211 43.8578L33.4663 42.8917L34.3431 42.3848Z" fill="#FD4380"/>
</g>
</g>
</g>
<g id="Group_36">
<g id="Clip path group_35">
<mask id="mask34_1_16726" style="mask-type:luminance" maskUnits="userSpaceOnUse" x="32" y="41" width="2" height="1">
<g id="SVGID_104_">
<path id="Vector_69" d="M33.0232 41.4057C32.8797 41.3292 32.7267 41.2654 32.5672 41.2144C32.4461 41.1761 32.3217 41.2431 32.2835 41.3642C32.2452 41.4854 32.3122 41.6097 32.4333 41.648C32.5672 41.6895 32.6948 41.7437 32.8128 41.8042C32.8478 41.8234 32.8829 41.8298 32.918 41.8298C32.9977 41.8298 33.0774 41.7851 33.1189 41.7086C33.1762 41.6034 33.1348 41.4663 33.0232 41.4057Z" fill="white"/>
</g>
</mask>
<g mask="url(#mask34_1_16726)">
<path id="Vector_70" d="M32.9435 40.7744L33.46 41.6704L32.4779 42.2347L31.9646 41.342L32.9435 40.7744Z" fill="#FD4380"/>
</g>
</g>
</g>
<g id="Group_37">
<g id="Clip path group_36">
<mask id="mask35_1_16726" style="mask-type:luminance" maskUnits="userSpaceOnUse" x="30" y="41" width="1" height="1">
<g id="SVGID_107_">
<path id="Vector_71" d="M30.654 41.2114C30.5042 41.2497 30.3511 41.2975 30.2013 41.3549C30.0833 41.3995 30.0259 41.5303 30.0674 41.6482C30.1024 41.7375 30.1885 41.7949 30.281 41.7949C30.3065 41.7949 30.3352 41.7917 30.3607 41.7821C30.4978 41.7311 30.6349 41.6865 30.7688 41.6514C30.89 41.6195 30.9633 41.4952 30.9314 41.374C30.8996 41.2497 30.7752 41.1763 30.654 41.2114Z" fill="white"/>
</g>
</mask>
<g mask="url(#mask35_1_16726)">
<path id="Vector_72" d="M30.7274 40.7715L31.228 41.6388L30.2587 42.1999L29.7549 41.3295L30.7274 40.7715Z" fill="#FD4380"/>
</g>
</g>
</g>
<g id="Group_38">
<g id="Clip path group_37">
<mask id="mask36_1_16726" style="mask-type:luminance" maskUnits="userSpaceOnUse" x="41" y="40" width="2" height="2">
<g id="SVGID_110_">
<path id="Vector_73" d="M42.1678 40.8287C42.0912 40.7298 41.951 40.7107 41.8521 40.7872C41.7533 40.8637 41.7341 41.0072 41.8107 41.1061C41.8999 41.224 41.986 41.3452 42.0657 41.4632C42.1104 41.5301 42.1805 41.5652 42.2539 41.5652C42.2953 41.5652 42.3399 41.5525 42.3782 41.527C42.4834 41.4568 42.5089 41.3165 42.442 41.2145C42.3559 41.0838 42.2634 40.9562 42.1678 40.8287Z" fill="white"/>
</g>
</mask>
<g mask="url(#mask36_1_16726)">
<path id="Vector_74" d="M42.3144 40.376L42.8788 41.3517L41.9254 41.9001L41.3643 40.9244L42.3144 40.376Z" fill="#FD4380"/>
</g>
</g>
</g>
<g id="Group_39">
<g id="Clip path group_38">
<mask id="mask37_1_16726" style="mask-type:luminance" maskUnits="userSpaceOnUse" x="40" y="39" width="1" height="1">
<g id="SVGID_113_">
<path id="Vector_75" d="M40.4428 39.2538C40.3343 39.1901 40.1972 39.2219 40.1303 39.3303C40.0665 39.4388 40.0984 39.5759 40.2068 39.6428C40.3216 39.713 40.4428 39.7927 40.5671 39.882C40.6086 39.9106 40.6532 39.9266 40.701 39.9266C40.7712 39.9266 40.8413 39.8947 40.886 39.8341C40.9593 39.7321 40.937 39.5918 40.8381 39.5185C40.701 39.4164 40.5703 39.3303 40.4428 39.2538Z" fill="white"/>
</g>
</mask>
<g mask="url(#mask37_1_16726)">
<path id="Vector_76" d="M40.736 38.8042L41.278 39.7416L40.2896 40.3123L39.7507 39.3749L40.736 38.8042Z" fill="#FD4380"/>
</g>
</g>
</g>
<g id="Group_40">
<g id="Group_41">
<g id="Clip path group_39">
<mask id="mask38_1_16726" style="mask-type:luminance" maskUnits="userSpaceOnUse" x="29" y="28" width="2" height="2">
<g id="SVGID_116_">
<path id="Vector_77" d="M29.8157 28.3461C29.7168 28.4226 29.6977 28.5629 29.771 28.6617C29.8603 28.7797 29.9464 28.8977 30.0293 29.0188C30.0739 29.0826 30.1441 29.1177 30.2174 29.1177C30.262 29.1177 30.3067 29.1049 30.3449 29.0794C30.447 29.0093 30.4757 28.869 30.4055 28.7638C30.3194 28.633 30.227 28.5087 30.1345 28.3843C30.058 28.2919 29.9177 28.2695 29.8157 28.3461Z" fill="white"/>
</g>
</mask>
<g mask="url(#mask38_1_16726)">
<path id="Vector_78" d="M30.2812 27.9346L30.8424 28.9071L29.8922 29.4587L29.3279 28.483L30.2812 27.9346Z" fill="#FD4380"/>
</g>
</g>
</g>
<g id="Group_42">
<g id="Clip path group_40">
<mask id="mask39_1_16726" style="mask-type:luminance" maskUnits="userSpaceOnUse" x="30" y="36" width="1" height="2">
<g id="SVGID_119_">
<path id="Vector_79" d="M30.2333 37.1142C30.211 37.2705 30.2014 37.4108 30.2014 37.5447V37.6021C30.2046 37.7264 30.3066 37.8221 30.4278 37.8221H30.4342C30.5585 37.8189 30.6574 37.7137 30.6542 37.5893V37.5415C30.6542 37.4235 30.6637 37.3024 30.6829 37.1748C30.6988 37.0505 30.6127 36.9357 30.4916 36.9197C30.364 36.907 30.2492 36.9899 30.2333 37.1142Z" fill="white"/>
</g>
</mask>
<g mask="url(#mask39_1_16726)">
<path id="Vector_80" d="M30.5743 36.6904L31.0941 37.596L30.3256 38.0423L29.8027 37.1368L30.5743 36.6904Z" fill="#FD4380"/>
</g>
</g>
</g>
<g id="Group_43">
<g id="Clip path group_41">
<mask id="mask40_1_16726" style="mask-type:luminance" maskUnits="userSpaceOnUse" x="24" y="31" width="1" height="2">
<g id="SVGID_122_">
<path id="Vector_81" d="M24.682 31.952C24.5577 31.9711 24.4716 32.0859 24.4907 32.2071C24.513 32.3506 24.5258 32.4973 24.5385 32.6407C24.5481 32.7619 24.6469 32.8512 24.7649 32.8512C24.7713 32.8512 24.7777 32.8512 24.7808 32.8512C24.9052 32.8416 25.0009 32.7332 24.9913 32.6089C24.9785 32.4526 24.9626 32.2964 24.9403 32.1433C24.9211 32.019 24.8064 31.9393 24.682 31.952Z" fill="white"/>
</g>
</mask>
<g mask="url(#mask40_1_16726)">
<path id="Vector_82" d="M24.8669 31.7095L25.3962 32.6246L24.6055 33.0805L24.0762 32.1654L24.8669 31.7095Z" fill="#FD4380"/>
</g>
</g>
</g>
<g id="Group_44">
<g id="Clip path group_42">
<mask id="mask41_1_16726" style="mask-type:luminance" maskUnits="userSpaceOnUse" x="28" y="26" width="1" height="2">
<g id="SVGID_125_">
<path id="Vector_83" d="M28.5592 26.7035C28.4667 26.6175 28.3233 26.627 28.2404 26.7227C28.1575 26.8151 28.1638 26.9586 28.2595 27.0415C28.3679 27.1404 28.4795 27.2392 28.5879 27.3444C28.6325 27.3859 28.6867 27.405 28.7441 27.405C28.8047 27.405 28.8621 27.3827 28.9067 27.3349C28.9928 27.2456 28.9896 27.1021 28.9004 27.016C28.7856 26.9076 28.6708 26.8056 28.5592 26.7035Z" fill="white"/>
</g>
</mask>
<g mask="url(#mask41_1_16726)">
<path id="Vector_84" d="M28.7823 26.2573L29.3307 27.2107L28.3646 27.7687L27.813 26.8153L28.7823 26.2573Z" fill="#FD4380"/>
</g>
</g>
</g>
<g id="Group_45">
<g id="Clip path group_43">
<mask id="mask42_1_16726" style="mask-type:luminance" maskUnits="userSpaceOnUse" x="31" y="32" width="1" height="2">
<g id="SVGID_128_">
<path id="Vector_85" d="M31.1739 32.7203C31.1707 32.8669 31.1611 33.0136 31.1484 33.1571C31.1388 33.2814 31.2313 33.3898 31.3556 33.4026C31.362 33.4026 31.3684 33.4026 31.3748 33.4026C31.4896 33.4026 31.5884 33.3133 31.6011 33.1953C31.6139 33.0423 31.6235 32.8861 31.6267 32.7266C31.6298 32.6023 31.531 32.4971 31.4067 32.4971C31.2791 32.4971 31.1771 32.5959 31.1739 32.7203Z" fill="white"/>
</g>
</mask>
<g mask="url(#mask42_1_16726)">
<path id="Vector_86" d="M31.5055 32.2832L32.022 33.1792L31.2599 33.6192L30.7434 32.7232L31.5055 32.2832Z" fill="#FD4380"/>
</g>
</g>
</g>
<g id="Group_46">
<g id="Clip path group_44">
<mask id="mask43_1_16726" style="mask-type:luminance" maskUnits="userSpaceOnUse" x="30" y="34" width="2" height="2">
<g id="SVGID_131_">
<path id="Vector_87" d="M31.0941 34.7386C30.973 34.7068 30.8486 34.7769 30.8167 34.8981C30.7753 35.0447 30.737 35.1882 30.6956 35.3285C30.6605 35.4497 30.7306 35.574 30.8486 35.6091C30.8709 35.6155 30.8901 35.6187 30.9124 35.6187C31.0112 35.6187 31.1005 35.5549 31.1292 35.456C31.1707 35.3126 31.2121 35.1659 31.2536 35.016C31.2854 34.8949 31.2153 34.7705 31.0941 34.7386Z" fill="white"/>
</g>
</mask>
<g mask="url(#mask43_1_16726)">
<path id="Vector_88" d="M31.1292 34.4355L31.6808 35.3921L30.8136 35.8895L30.262 34.9329L31.1292 34.4355Z" fill="#FD4380"/>
</g>
</g>
</g>
<g id="Group_47">
<g id="Clip path group_45">
<mask id="mask44_1_16726" style="mask-type:luminance" maskUnits="userSpaceOnUse" x="30" y="30" width="2" height="2">
<g id="SVGID_134_">
<path id="Vector_89" d="M30.9602 30.9953C30.9889 31.0974 31.0781 31.1611 31.1802 31.1611C31.1993 31.1611 31.2216 31.1579 31.2407 31.1516C31.3619 31.1197 31.4321 30.9921 31.397 30.8742C31.3555 30.7211 31.3077 30.5744 31.2567 30.4278C31.2152 30.3098 31.0845 30.246 30.9665 30.2907C30.8486 30.3321 30.788 30.4628 30.8294 30.5808C30.8773 30.7147 30.9219 30.855 30.9602 30.9953Z" fill="white"/>
</g>
</mask>
<g mask="url(#mask44_1_16726)">
<path id="Vector_90" d="M31.2694 29.9653L31.8274 30.9314L30.9474 31.4384L30.3894 30.4755L31.2694 29.9653Z" fill="#FD4380"/>
</g>
</g>
</g>
<g id="Group_48">
<g id="Clip path group_46">
<mask id="mask45_1_16726" style="mask-type:luminance" maskUnits="userSpaceOnUse" x="19" y="27" width="2" height="2">
<g id="SVGID_137_">
<path id="Vector_91" d="M20.6392 27.6601C20.4957 27.6155 20.3459 27.574 20.1928 27.5358C20.0717 27.5039 19.9473 27.5772 19.9154 27.6984C19.8835 27.8196 19.9569 27.9439 20.078 27.9758C20.2247 28.0141 20.3682 28.0523 20.5053 28.097C20.5276 28.1033 20.5499 28.1065 20.5722 28.1065C20.6679 28.1065 20.7604 28.0427 20.7891 27.9471C20.8273 27.8227 20.7604 27.6952 20.6392 27.6601Z" fill="white"/>
</g>
</mask>
<g mask="url(#mask45_1_16726)">
<path id="Vector_92" d="M20.5913 27.0957L21.0856 27.9534L20.1226 28.5082L19.6284 27.6537L20.5913 27.0957Z" fill="#FD4380"/>
</g>
</g>
</g>
<g id="Group_49">
<g id="Clip path group_47">
<mask id="mask46_1_16726" style="mask-type:luminance" maskUnits="userSpaceOnUse" x="17" y="27" width="2" height="1">
<g id="SVGID_140_">
<path id="Vector_93" d="M18.3848 27.1982C18.2349 27.1791 18.0851 27.1631 17.9288 27.1472C17.8045 27.1376 17.6929 27.2269 17.6801 27.3512C17.6674 27.4756 17.7598 27.5872 17.8842 27.5999C18.0372 27.6159 18.1839 27.6318 18.3274 27.6478C18.337 27.6478 18.3465 27.6478 18.3561 27.6478C18.4677 27.6478 18.5665 27.5649 18.5793 27.4501C18.5984 27.3289 18.5091 27.2141 18.3848 27.1982Z" fill="white"/>
</g>
</mask>
<g mask="url(#mask46_1_16726)">
<path id="Vector_94" d="M18.3655 26.7393L18.8183 27.5236L17.9 28.0529L17.4473 27.2685L18.3655 26.7393Z" fill="#FD4380"/>
</g>
</g>
</g>
<g id="Group_50">
<g id="Clip path group_48">
<mask id="mask47_1_16726" style="mask-type:luminance" maskUnits="userSpaceOnUse" x="17" y="22" width="2" height="1">
<g id="SVGID_143_">
<path id="Vector_95" d="M18.6368 22.4378C18.4837 22.4251 18.3307 22.4187 18.1777 22.4091C18.0533 22.3868 17.9449 22.4984 17.9417 22.6259C17.9353 22.7503 18.031 22.8555 18.1585 22.8619C18.3052 22.8683 18.4551 22.8778 18.6049 22.8906C18.6113 22.8906 18.6177 22.8906 18.6209 22.8906C18.7388 22.8906 18.8377 22.7981 18.8472 22.6801C18.8536 22.5526 18.7611 22.4442 18.6368 22.4378Z" fill="white"/>
</g>
</mask>
<g mask="url(#mask47_1_16726)">
<path id="Vector_96" d="M18.624 21.9883L19.0736 22.7631L18.1649 23.286L17.7185 22.5112L18.624 21.9883Z" fill="#FD4380"/>
</g>
</g>
</g>
<g id="Group_51">
<g id="Clip path group_49">
<mask id="mask48_1_16726" style="mask-type:luminance" maskUnits="userSpaceOnUse" x="15" y="22" width="2" height="1">
<g id="SVGID_146_">
<path id="Vector_97" d="M16.3442 22.4024C16.188 22.4088 16.0381 22.4184 15.8882 22.4247C15.7639 22.4311 15.6682 22.5395 15.6746 22.6639C15.681 22.785 15.783 22.8775 15.901 22.8775C15.9042 22.8775 15.9106 22.8775 15.9138 22.8775C16.0604 22.8679 16.2103 22.8616 16.3633 22.8552C16.4877 22.8488 16.5865 22.7436 16.5801 22.6192C16.577 22.4949 16.4685 22.3897 16.3442 22.4024Z" fill="white"/>
</g>
</mask>
<g mask="url(#mask48_1_16726)">
<path id="Vector_98" d="M16.3569 21.9941L16.7969 22.7562L15.8978 23.2759L15.4578 22.5107L16.3569 21.9941Z" fill="#FD4380"/>
</g>
</g>
</g>
<g id="Group_52">
<g id="Clip path group_50">
<mask id="mask49_1_16726" style="mask-type:luminance" maskUnits="userSpaceOnUse" x="15" y="27" width="2" height="1">
<g id="SVGID_149_">
<path id="Vector_99" d="M16.1018 27.0515C15.971 27.0483 15.8403 27.0483 15.7064 27.0483H15.6458C15.5215 27.0483 15.4194 27.1504 15.4194 27.2747C15.4194 27.3991 15.5215 27.5011 15.6458 27.5011H15.7064C15.8371 27.5011 15.9679 27.5011 16.0954 27.5043H16.0986C16.2229 27.5043 16.3218 27.4054 16.325 27.2811C16.3282 27.1567 16.2261 27.0547 16.1018 27.0515Z" fill="white"/>
</g>
</mask>
<g mask="url(#mask49_1_16726)">
<path id="Vector_100" d="M16.0985 26.6562L16.5258 27.3896L15.6457 27.8966L15.2217 27.1632L16.0985 26.6562Z" fill="#FD4380"/>
</g>
</g>
</g>
<g id="Group_53">
<g id="Clip path group_51">
<mask id="mask50_1_16726" style="mask-type:luminance" maskUnits="userSpaceOnUse" x="20" y="22" width="2" height="2">
<g id="SVGID_152_">
<path id="Vector_101" d="M20.9102 22.7403C20.7604 22.7085 20.6073 22.6829 20.4575 22.6574C20.3331 22.6351 20.2183 22.718 20.196 22.8424C20.1737 22.9667 20.2566 23.0815 20.3809 23.1038C20.5276 23.1293 20.6743 23.158 20.821 23.1867C20.8369 23.1899 20.8497 23.1899 20.8656 23.1899C20.9708 23.1899 21.0665 23.1166 21.0888 23.0082C21.1111 22.8838 21.0314 22.7627 20.9102 22.7403Z" fill="white"/>
</g>
</mask>
<g mask="url(#mask50_1_16726)">
<path id="Vector_102" d="M20.8752 22.2271L21.3503 23.0497L20.4097 23.5949L19.9346 22.7723L20.8752 22.2271Z" fill="#FD4380"/>
</g>
</g>
</g>
<g id="Group_54">
<g id="Clip path group_52">
<mask id="mask51_1_16726" style="mask-type:luminance" maskUnits="userSpaceOnUse" x="13" y="27" width="2" height="1">
<g id="SVGID_155_">
<path id="Vector_103" d="M13.8221 27.1056L13.3693 27.1343C13.245 27.1439 13.1493 27.2523 13.1589 27.3766C13.1684 27.4978 13.2673 27.5871 13.3852 27.5871C13.3916 27.5871 13.3948 27.5871 13.4012 27.5871L13.8508 27.5584C13.9751 27.552 14.0708 27.4436 14.0644 27.3192C14.0516 27.1949 13.9432 27.0897 13.8221 27.1056Z" fill="white"/>
</g>
</mask>
<g mask="url(#mask51_1_16726)">
<path id="Vector_104" d="M13.8379 26.6909L14.2843 27.4625L13.3756 27.9886L12.9324 27.2138L13.8379 26.6909Z" fill="#FD4380"/>
</g>
</g>
</g>
<g id="Group_55">
<g id="Clip path group_53">
<mask id="mask52_1_16726" style="mask-type:luminance" maskUnits="userSpaceOnUse" x="13" y="22" width="2" height="2">
<g id="SVGID_158_">
<path id="Vector_105" d="M14.0677 22.6097C13.9083 22.6321 13.7584 22.6544 13.6149 22.6799C13.4906 22.699 13.4077 22.817 13.4268 22.9413C13.4459 23.0529 13.5416 23.1295 13.65 23.1295C13.6628 23.1295 13.6755 23.1295 13.6883 23.1263C13.8286 23.1039 13.9752 23.0816 14.1315 23.0593C14.2558 23.0402 14.3419 22.9254 14.3228 22.801C14.3036 22.6767 14.1889 22.597 14.0677 22.6097Z" fill="white"/>
</g>
</mask>
<g mask="url(#mask52_1_16726)">
<path id="Vector_106" d="M14.1058 22.1919L14.5714 22.9954L13.6403 23.5342L13.1748 22.7276L14.1058 22.1919Z" fill="#FD4380"/>
</g>
</g>
</g>
<g id="Group_56">
<g id="Clip path group_54">
<mask id="mask53_1_16726" style="mask-type:luminance" maskUnits="userSpaceOnUse" x="22" y="28" width="1" height="2">
<g id="SVGID_161_">
<path id="Vector_107" d="M22.3512 28.3874C22.2428 28.3236 22.1057 28.3619 22.0419 28.4703C21.9782 28.5787 22.0164 28.7158 22.1248 28.7796C22.2556 28.8561 22.3767 28.9326 22.4947 29.0123C22.533 29.0378 22.5776 29.0506 22.6222 29.0506C22.6956 29.0506 22.7657 29.0155 22.8104 28.9517C22.8805 28.8465 22.855 28.7062 22.753 28.6361C22.6254 28.55 22.4915 28.4671 22.3512 28.3874Z" fill="white"/>
</g>
</mask>
<g mask="url(#mask53_1_16726)">
<path id="Vector_108" d="M22.6542 27.9346L23.1931 28.8688L22.2046 29.4395L21.6658 28.5053L22.6542 27.9346Z" fill="#FD4380"/>
</g>
</g>
</g>
<g id="Group_57">
<g id="Clip path group_55">
<mask id="mask54_1_16726" style="mask-type:luminance" maskUnits="userSpaceOnUse" x="24" y="34" width="1" height="2">
<g id="SVGID_164_">
<path id="Vector_109" d="M24.7299 34.2093C24.6056 34.1965 24.494 34.2826 24.478 34.4101C24.4621 34.5568 24.4429 34.7035 24.4206 34.8533C24.4015 34.9777 24.4876 35.0925 24.6119 35.1084C24.6215 35.1084 24.6343 35.1116 24.6438 35.1116C24.7554 35.1116 24.8511 35.0319 24.867 34.9171C24.8893 34.7641 24.9085 34.611 24.9244 34.4612C24.9435 34.3368 24.8543 34.2252 24.7299 34.2093Z" fill="white"/>
</g>
</mask>
<g mask="url(#mask54_1_16726)">
<path id="Vector_110" d="M24.8096 33.9639L25.3421 34.8821L24.5386 35.3445L24.0093 34.4262L24.8096 33.9639Z" fill="#FD4380"/>
</g>
</g>
</g>
<g id="Group_58">
<g id="Clip path group_56">
<mask id="mask55_1_16726" style="mask-type:luminance" maskUnits="userSpaceOnUse" x="23" y="29" width="2" height="2">
<g id="SVGID_167_">
<path id="Vector_111" d="M23.7254 30.2112L23.7637 30.2654C23.8338 30.3675 23.8976 30.4727 23.955 30.5747C23.9965 30.648 24.073 30.6895 24.1527 30.6895C24.191 30.6895 24.226 30.6799 24.2643 30.6608C24.3727 30.6002 24.411 30.4631 24.3504 30.3515C24.2866 30.2335 24.2165 30.1219 24.1399 30.0072L24.0985 29.9466C24.0283 29.8446 23.8849 29.819 23.7828 29.8892C23.6776 29.9657 23.6521 30.1092 23.7254 30.2112Z" fill="white"/>
</g>
</mask>
<g mask="url(#mask55_1_16726)">
<path id="Vector_112" d="M24.2197 29.4971L24.784 30.4759L23.8434 31.018L23.2791 30.0423L24.2197 29.4971Z" fill="#FD4380"/>
</g>
</g>
</g>
<g id="Group_59">
<g id="Clip path group_57">
<mask id="mask56_1_16726" style="mask-type:luminance" maskUnits="userSpaceOnUse" x="22" y="23" width="2" height="1">
<g id="SVGID_170_">
<path id="Vector_113" d="M23.123 23.3464C22.9795 23.2954 22.8328 23.2476 22.6862 23.1998C22.5682 23.1615 22.4406 23.2284 22.4024 23.3464C22.3641 23.4644 22.4311 23.5919 22.5491 23.6302C22.6894 23.6748 22.8296 23.7227 22.9731 23.7737C22.9986 23.7832 23.0241 23.7864 23.0496 23.7864C23.1421 23.7864 23.2314 23.729 23.2633 23.6366C23.3015 23.5154 23.241 23.3879 23.123 23.3464Z" fill="white"/>
</g>
</mask>
<g mask="url(#mask56_1_16726)">
<path id="Vector_114" d="M23.0687 22.7563L23.5725 23.63L22.6 24.1912L22.093 23.3175L23.0687 22.7563Z" fill="#FD4380"/>
</g>
</g>
</g>
<g id="Group_60">
<g id="Clip path group_58">
<mask id="mask57_1_16726" style="mask-type:luminance" maskUnits="userSpaceOnUse" x="24" y="24" width="2" height="1">
<g id="SVGID_173_">
<path id="Vector_115" d="M25.224 24.2776C25.0901 24.2042 24.953 24.1341 24.8159 24.0639C24.7043 24.0066 24.5672 24.0544 24.513 24.166C24.4556 24.2776 24.5003 24.4147 24.615 24.4721C24.7458 24.539 24.8797 24.606 25.0104 24.6793C25.0455 24.6985 25.0806 24.708 25.1188 24.708C25.1985 24.708 25.2782 24.6634 25.3165 24.59C25.3739 24.4753 25.3356 24.3382 25.224 24.2776Z" fill="white"/>
</g>
</mask>
<g mask="url(#mask57_1_16726)">
<path id="Vector_116" d="M25.1444 23.6113L25.6769 24.5296L24.6853 25.1035L24.156 24.1821L25.1444 23.6113Z" fill="#FD4380"/>
</g>
</g>
</g>
<g id="Group_61">
<g id="Clip path group_59">
<mask id="mask58_1_16726" style="mask-type:luminance" maskUnits="userSpaceOnUse" x="24" y="36" width="1" height="2">
<g id="SVGID_176_">
<path id="Vector_117" d="M24.2516 37.3436C24.36 37.3436 24.4525 37.267 24.4748 37.1586L24.5577 36.7122C24.58 36.5879 24.5003 36.4699 24.376 36.4476C24.2516 36.4253 24.1336 36.505 24.1113 36.6293L24.0252 37.0757C24.0029 37.2001 24.0826 37.318 24.207 37.3404C24.2261 37.3404 24.2389 37.3436 24.2516 37.3436Z" fill="white"/>
</g>
</mask>
<g mask="url(#mask58_1_16726)">
<path id="Vector_118" d="M24.4396 36.1763L24.9816 37.1137L24.1494 37.592L23.6106 36.6545L24.4396 36.1763Z" fill="#FD4380"/>
</g>
</g>
</g>
<g id="Group_62">
<g id="Clip path group_60">
<mask id="mask59_1_16726" style="mask-type:luminance" maskUnits="userSpaceOnUse" x="26" y="25" width="2" height="1">
<g id="SVGID_179_">
<path id="Vector_119" d="M27.1372 25.5336L27.099 25.5017C26.9937 25.4188 26.8885 25.3391 26.7801 25.2626C26.6781 25.1892 26.5378 25.2115 26.4645 25.3104C26.3911 25.4124 26.4134 25.5527 26.5123 25.626C26.6143 25.7026 26.7163 25.7791 26.8216 25.8588L26.8566 25.8875L26.8662 25.8971C26.9077 25.9289 26.9523 25.9449 27.0001 25.9449C27.0671 25.9449 27.134 25.913 27.1787 25.8556C27.2584 25.76 27.2361 25.6133 27.1372 25.5336Z" fill="white"/>
</g>
</mask>
<g mask="url(#mask59_1_16726)">
<path id="Vector_120" d="M27.0416 24.8164L27.5836 25.757L26.6048 26.3214L26.0627 25.3808L27.0416 24.8164Z" fill="#FD4380"/>
</g>
</g>
</g>
<g id="Group_63">
<g id="Clip path group_61">
<mask id="mask60_1_16726" style="mask-type:luminance" maskUnits="userSpaceOnUse" x="19" y="32" width="1" height="2">
<g id="SVGID_182_">
<path id="Vector_121" d="M19.6667 32.7681C19.5902 32.6693 19.4499 32.6502 19.3511 32.7267C19.2522 32.8032 19.2331 32.9435 19.3064 33.0423C19.3957 33.1603 19.4754 33.2783 19.5487 33.3963C19.5902 33.4664 19.6667 33.5047 19.7432 33.5047C19.7847 33.5047 19.8261 33.4951 19.8612 33.4696C19.9664 33.4058 20.0015 33.2655 19.9345 33.1571C19.8548 33.0296 19.7656 32.8989 19.6667 32.7681Z" fill="white"/>
</g>
</mask>
<g mask="url(#mask60_1_16726)">
<path id="Vector_122" d="M19.8103 32.3154L20.3746 33.2911L19.4245 33.8395L18.8601 32.8638L19.8103 32.3154Z" fill="#FD4380"/>
</g>
</g>
</g>
<g id="Group_64">
<g id="Clip path group_62">
<mask id="mask61_1_16726" style="mask-type:luminance" maskUnits="userSpaceOnUse" x="20" y="36" width="1" height="2">
<g id="SVGID_185_">
<path id="Vector_123" d="M20.5497 36.9867C20.4253 36.9708 20.3106 37.06 20.2978 37.1844C20.2787 37.3374 20.2532 37.4809 20.2277 37.6148C20.2021 37.736 20.2819 37.8572 20.4062 37.8827C20.4221 37.8859 20.4381 37.8859 20.4508 37.8859C20.5561 37.8859 20.6517 37.8125 20.674 37.7041C20.7027 37.5606 20.7282 37.4044 20.7506 37.2418C20.7601 37.1174 20.6709 37.0026 20.5497 36.9867Z" fill="white"/>
</g>
</mask>
<g mask="url(#mask61_1_16726)">
<path id="Vector_124" d="M20.6197 36.7285L21.1554 37.6564L20.3391 38.1283L19.8035 37.1972L20.6197 36.7285Z" fill="#FD4380"/>
</g>
</g>
</g>
<g id="Group_65">
<g id="Clip path group_63">
<mask id="mask62_1_16726" style="mask-type:luminance" maskUnits="userSpaceOnUse" x="13" y="30" width="1" height="2">
<g id="SVGID_188_">
<path id="Vector_125" d="M13.6914 30.798C13.532 30.8108 13.3789 30.8235 13.2291 30.8427C13.1047 30.8586 13.0154 30.9702 13.0314 31.0946C13.0441 31.2093 13.143 31.2954 13.2546 31.2954C13.2641 31.2954 13.2737 31.2954 13.2801 31.2922C13.4236 31.2763 13.5702 31.2604 13.7201 31.2508C13.8444 31.2412 13.9401 31.1328 13.9305 31.0085C13.9242 30.8841 13.8158 30.7885 13.6914 30.798Z" fill="white"/>
</g>
</mask>
<g mask="url(#mask62_1_16726)">
<path id="Vector_126" d="M13.7105 30.3867L14.1601 31.1679L13.2482 31.694L12.7986 30.916L13.7105 30.3867Z" fill="#FD4380"/>
</g>
</g>
</g>
<g id="Group_66">
<g id="Clip path group_64">
<mask id="mask63_1_16726" style="mask-type:luminance" maskUnits="userSpaceOnUse" x="17" y="31" width="2" height="1">
<g id="SVGID_191_">
<path id="Vector_127" d="M18.2382 31.531C18.0979 31.4544 17.9544 31.3843 17.8109 31.3205C17.6961 31.2695 17.5622 31.3237 17.5112 31.4385C17.4602 31.5533 17.5144 31.6872 17.6292 31.735C17.7599 31.7924 17.8874 31.8562 18.015 31.9263C18.05 31.9455 18.0883 31.955 18.1234 31.955C18.2031 31.955 18.2796 31.9136 18.3211 31.837C18.388 31.7286 18.3466 31.5915 18.2382 31.531Z" fill="white"/>
</g>
</mask>
<g mask="url(#mask63_1_16726)">
<path id="Vector_128" d="M18.1552 30.8711L18.6845 31.783L17.696 32.3537L17.1667 31.4418L18.1552 30.8711Z" fill="#FD4380"/>
</g>
</g>
</g>
<g id="Group_67">
<g id="Clip path group_65">
<mask id="mask64_1_16726" style="mask-type:luminance" maskUnits="userSpaceOnUse" x="20" y="34" width="1" height="2">
<g id="SVGID_194_">
<path id="Vector_129" d="M20.486 35.6315C20.4956 35.6315 20.5083 35.6315 20.5211 35.6283C20.6454 35.6092 20.7315 35.4944 20.7124 35.37C20.6933 35.2329 20.6646 35.0767 20.6295 34.9077C20.604 34.7833 20.4828 34.7068 20.3585 34.7355C20.2373 34.761 20.1576 34.8822 20.1863 35.0065C20.2214 35.166 20.2469 35.3094 20.266 35.437C20.2787 35.5518 20.3776 35.6315 20.486 35.6315Z" fill="white"/>
</g>
</mask>
<g mask="url(#mask64_1_16726)">
<path id="Vector_130" d="M20.588 34.4644L21.1301 35.4018L20.3011 35.88L19.759 34.9394L20.588 34.4644Z" fill="#FD4380"/>
</g>
</g>
</g>
<g id="Group_68">
<g id="Clip path group_66">
<mask id="mask65_1_16726" style="mask-type:luminance" maskUnits="userSpaceOnUse" x="15" y="30" width="2" height="2">
<g id="SVGID_197_">
<path id="Vector_131" d="M15.9966 30.8616C15.8403 30.8425 15.6873 30.8297 15.5342 30.8201C15.4099 30.8138 15.3015 30.9062 15.2919 31.0306C15.2824 31.1549 15.378 31.2633 15.5024 31.2729C15.6458 31.2825 15.7957 31.2952 15.9456 31.3143C15.9551 31.3143 15.9615 31.3143 15.9711 31.3143C16.0859 31.3143 16.1815 31.2283 16.1943 31.1135C16.2102 30.9891 16.1209 30.8775 15.9966 30.8616Z" fill="white"/>
</g>
</mask>
<g mask="url(#mask65_1_16726)">
<path id="Vector_132" d="M15.9773 30.4121L16.4269 31.1869L15.515 31.713L15.0654 30.9382L15.9773 30.4121Z" fill="#FD4380"/>
</g>
</g>
</g>
<g id="Group_69">
<g id="Clip path group_67">
<mask id="mask66_1_16726" style="mask-type:luminance" maskUnits="userSpaceOnUse" x="35" y="31" width="1" height="2">
<g id="SVGID_200_">
<path id="Vector_133" d="M35.5866 32.6884C35.6153 32.5417 35.6408 32.3887 35.6663 32.2356C35.6854 32.1113 35.6025 31.9965 35.4782 31.9774C35.3538 31.9582 35.239 32.0411 35.2199 32.1655C35.1976 32.3153 35.1721 32.462 35.1434 32.6055C35.1211 32.7298 35.2008 32.8478 35.3251 32.8701C35.3411 32.8733 35.3538 32.8733 35.3666 32.8733C35.4686 32.8701 35.5643 32.7968 35.5866 32.6884Z" fill="white"/>
</g>
</mask>
<g mask="url(#mask66_1_16726)">
<path id="Vector_134" d="M35.5418 31.7095L36.0807 32.6437L35.2581 33.1156L34.7224 32.1846L35.5418 31.7095Z" fill="#FD4380"/>
</g>
</g>
</g>
<g id="Group_70">
<g id="Clip path group_68">
<mask id="mask67_1_16726" style="mask-type:luminance" maskUnits="userSpaceOnUse" x="34" y="25" width="2" height="2">
<g id="SVGID_203_">
<path id="Vector_135" d="M34.678 26.0693C34.7163 26.1522 34.7992 26.1968 34.8821 26.1968C34.914 26.1968 34.9491 26.1904 34.9809 26.1745C35.0957 26.1203 35.1404 25.9864 35.0893 25.8716C35.0224 25.7281 34.9491 25.591 34.8757 25.4571C34.8151 25.3487 34.678 25.3072 34.5664 25.3678C34.458 25.4284 34.4166 25.5655 34.4803 25.6771C34.5473 25.8046 34.6143 25.9354 34.678 26.0693Z" fill="white"/>
</g>
</mask>
<g mask="url(#mask67_1_16726)">
<path id="Vector_136" d="M34.9618 24.998L35.5261 25.9769L34.5983 26.5126L34.0339 25.5337L34.9618 24.998Z" fill="#FD4380"/>
</g>
</g>
</g>
<g id="Group_71">
<g id="Clip path group_69">
<mask id="mask68_1_16726" style="mask-type:luminance" maskUnits="userSpaceOnUse" x="27" y="20" width="2" height="1">
<g id="SVGID_206_">
<path id="Vector_137" d="M27.9503 20.3364C27.8068 20.2822 27.6602 20.2312 27.5199 20.1801C27.4019 20.1387 27.2712 20.2025 27.2297 20.3204C27.1883 20.4384 27.252 20.5691 27.37 20.6074C27.5103 20.6552 27.6506 20.7062 27.7909 20.7605C27.8164 20.77 27.8451 20.7764 27.8706 20.7764C27.9631 20.7764 28.0491 20.7222 28.081 20.6297C28.1257 20.5117 28.0651 20.381 27.9503 20.3364Z" fill="white"/>
</g>
</mask>
<g mask="url(#mask68_1_16726)">
<path id="Vector_138" d="M27.8897 19.7339L28.3999 20.6171L27.421 21.1815L26.9141 20.2982L27.8897 19.7339Z" fill="#FD4380"/>
</g>
</g>
</g>
<g id="Group_72">
<g id="Clip path group_70">
<mask id="mask69_1_16726" style="mask-type:luminance" maskUnits="userSpaceOnUse" x="35" y="27" width="1" height="2">
<g id="SVGID_209_">
<path id="Vector_139" d="M35.5676 28.3588C35.6919 28.3397 35.778 28.2249 35.7589 28.1005C35.7366 27.9507 35.711 27.7976 35.6792 27.6414C35.6537 27.517 35.5357 27.4405 35.4113 27.4628C35.2902 27.4883 35.2105 27.6063 35.236 27.7307C35.2647 27.8773 35.2902 28.0208 35.3125 28.1643C35.3284 28.2759 35.4273 28.3588 35.5357 28.3588C35.5452 28.362 35.5548 28.3588 35.5676 28.3588Z" fill="white"/>
</g>
</mask>
<g mask="url(#mask69_1_16726)">
<path id="Vector_140" d="M35.6344 27.1948L36.1733 28.129L35.3506 28.6073L34.8086 27.6699L35.6344 27.1948Z" fill="#FD4380"/>
</g>
</g>
</g>
<g id="Group_73">
<g id="Clip path group_71">
<mask id="mask70_1_16726" style="mask-type:luminance" maskUnits="userSpaceOnUse" x="35" y="29" width="1" height="2">
<g id="SVGID_212_">
<path id="Vector_141" d="M35.5995 30.6226C35.6027 30.6226 35.6059 30.6226 35.6122 30.6226C35.7334 30.6226 35.8322 30.527 35.8386 30.4058C35.845 30.256 35.8514 30.1029 35.8578 29.9467C35.8609 29.8223 35.7621 29.7171 35.6378 29.7139C35.5134 29.698 35.4082 29.8096 35.405 29.9339C35.4018 30.087 35.3954 30.2368 35.389 30.3803C35.3763 30.5079 35.4751 30.6163 35.5995 30.6226Z" fill="white"/>
</g>
</mask>
<g mask="url(#mask70_1_16726)">
<path id="Vector_142" d="M35.7366 29.4941L36.2564 30.3933L35.4975 30.8301L34.9778 29.931L35.7366 29.4941Z" fill="#FD4380"/>
</g>
</g>
</g>
<g id="Group_74">
<g id="Clip path group_72">
<mask id="mask71_1_16726" style="mask-type:luminance" maskUnits="userSpaceOnUse" x="29" y="21" width="2" height="1">
<g id="SVGID_215_">
<path id="Vector_143" d="M29.3244 21.1751C29.2671 21.2867 29.3149 21.4238 29.4265 21.478C29.5604 21.545 29.6911 21.6119 29.8218 21.6853C29.8569 21.7044 29.892 21.714 29.9303 21.714C30.01 21.714 30.0897 21.6693 30.1311 21.596C30.1917 21.4844 30.1503 21.3473 30.0387 21.2899C29.9016 21.2166 29.7676 21.1464 29.6305 21.0763C29.5189 21.0157 29.3818 21.0635 29.3244 21.1751Z" fill="white"/>
</g>
</mask>
<g mask="url(#mask71_1_16726)">
<path id="Vector_144" d="M29.9589 20.6172L30.4914 21.5387L29.4998 22.1094L28.9673 21.1911L29.9589 20.6172Z" fill="#FD4380"/>
</g>
</g>
</g>
<g id="Group_75">
<g id="Clip path group_73">
<mask id="mask72_1_16726" style="mask-type:luminance" maskUnits="userSpaceOnUse" x="31" y="22" width="2" height="1">
<g id="SVGID_218_">
<path id="Vector_145" d="M31.853 22.9096C31.9231 22.9096 31.9965 22.8746 32.0411 22.8108C32.1113 22.7088 32.0857 22.5685 31.9837 22.4951C31.8594 22.409 31.7318 22.323 31.6075 22.2401C31.5023 22.1699 31.362 22.1986 31.2918 22.3038C31.2217 22.409 31.2504 22.5493 31.3556 22.6195C31.4799 22.7024 31.6043 22.7853 31.7286 22.8714C31.7637 22.8969 31.8084 22.9096 31.853 22.9096Z" fill="white"/>
</g>
</mask>
<g mask="url(#mask72_1_16726)">
<path id="Vector_146" d="M31.8881 21.7876L32.4301 22.725L31.4417 23.2957L30.8997 22.3551L31.8881 21.7876Z" fill="#FD4380"/>
</g>
</g>
</g>
<g id="Group_76">
<g id="Clip path group_74">
<mask id="mask73_1_16726" style="mask-type:luminance" maskUnits="userSpaceOnUse" x="22" y="19" width="2" height="1">
<g id="SVGID_221_">
<path id="Vector_147" d="M23.6999 19.5105C23.7158 19.3861 23.6266 19.2746 23.5022 19.2586C23.346 19.2395 23.1961 19.2235 23.0463 19.2108C22.9219 19.2044 22.8103 19.2905 22.7976 19.4148C22.7848 19.5392 22.8773 19.6508 23.0016 19.6635C23.1483 19.6763 23.295 19.6922 23.448 19.7114C23.4576 19.7114 23.4671 19.7146 23.4767 19.7146C23.5883 19.7114 23.6871 19.6253 23.6999 19.5105Z" fill="white"/>
</g>
</mask>
<g mask="url(#mask73_1_16726)">
<path id="Vector_148" d="M23.483 18.8027L23.9325 19.5839L23.0174 20.1132L22.5679 19.3288L23.483 18.8027Z" fill="#FD4380"/>
</g>
</g>
</g>
<g id="Group_77">
<g id="Clip path group_75">
<mask id="mask74_1_16726" style="mask-type:luminance" maskUnits="userSpaceOnUse" x="33" y="23" width="1" height="2">
<g id="SVGID_224_">
<path id="Vector_149" d="M33.7566 24.2839C33.8459 24.1979 33.849 24.0544 33.7629 23.9651C33.6545 23.8535 33.5429 23.7451 33.4313 23.6399C33.3389 23.5538 33.1954 23.5602 33.1125 23.6526C33.0296 23.7451 33.0328 23.8886 33.1253 23.9715C33.2305 24.0703 33.3357 24.1724 33.4377 24.2808C33.4824 24.3254 33.5429 24.3509 33.6003 24.3509C33.6545 24.3445 33.7119 24.3254 33.7566 24.2839Z" fill="white"/>
</g>
</mask>
<g mask="url(#mask74_1_16726)">
<path id="Vector_150" d="M33.6419 23.1934L34.1935 24.1467L33.2305 24.7015L32.6821 23.7513L33.6419 23.1934Z" fill="#FD4380"/>
</g>
</g>
</g>
<g id="Group_78">
<g id="Clip path group_76">
<mask id="mask75_1_16726" style="mask-type:luminance" maskUnits="userSpaceOnUse" x="25" y="19" width="1" height="2">
<g id="SVGID_227_">
<path id="Vector_151" d="M25.2145 20.005C25.358 20.0369 25.5047 20.0688 25.6514 20.1038C25.6705 20.107 25.6864 20.1102 25.7024 20.1102C25.8044 20.1102 25.8969 20.0401 25.9224 19.9348C25.9511 19.8137 25.8746 19.6893 25.7534 19.6606C25.6035 19.6256 25.4537 19.5905 25.307 19.5586C25.1827 19.5331 25.0647 19.6096 25.0392 19.734C25.0137 19.8583 25.0934 19.9795 25.2145 20.005Z" fill="white"/>
</g>
</mask>
<g mask="url(#mask75_1_16726)">
<path id="Vector_152" d="M25.7182 19.1313L26.2029 19.9667L25.2495 20.5183L24.7681 19.6798L25.7182 19.1313Z" fill="#FD4380"/>
</g>
</g>
</g>
<g id="Group_79">
<g id="Clip path group_77">
<mask id="mask76_1_16726" style="mask-type:luminance" maskUnits="userSpaceOnUse" x="34" y="34" width="2" height="2">
<g id="SVGID_230_">
<path id="Vector_153" d="M34.9776 34.1837C34.8597 34.1423 34.7321 34.2092 34.6907 34.3272C34.6428 34.4739 34.5918 34.6142 34.544 34.7481C34.4994 34.866 34.5599 34.9968 34.6779 35.0382C34.7034 35.0478 34.7289 35.051 34.7576 35.051C34.8501 35.051 34.9362 34.9936 34.9713 34.9043C35.0223 34.7672 35.0733 34.6205 35.1243 34.4707C35.1594 34.3495 35.0956 34.222 34.9776 34.1837Z" fill="white"/>
</g>
</mask>
<g mask="url(#mask76_1_16726)">
<path id="Vector_154" d="M34.9968 33.8555L35.5548 34.8248L34.6652 35.3381L34.1072 34.3688L34.9968 33.8555Z" fill="#FD4380"/>
</g>
</g>
</g>
<g id="Group_80">
<g id="Clip path group_78">
<mask id="mask77_1_16726" style="mask-type:luminance" maskUnits="userSpaceOnUse" x="31" y="12" width="2" height="2">
<g id="SVGID_233_">
<path id="Vector_155" d="M31.3651 13.1686C31.3683 13.1686 31.3715 13.1686 31.3747 13.1686C31.4831 13.1654 31.5915 13.1622 31.6999 13.1622H31.8115H31.8147C31.939 13.1622 32.0411 13.0634 32.0411 12.939C32.0411 12.8147 31.9422 12.7127 31.8179 12.7095H31.6999C31.5851 12.7095 31.4671 12.7127 31.3524 12.719C31.228 12.7254 31.1292 12.8306 31.1355 12.955C31.1451 13.073 31.2471 13.1686 31.3651 13.1686Z" fill="white"/>
</g>
</mask>
<g mask="url(#mask77_1_16726)">
<path id="Vector_156" d="M31.8178 12.314L32.2482 13.0537L31.3618 13.5639L30.9346 12.8241L31.8178 12.314Z" fill="#FD4380"/>
</g>
</g>
</g>
<g id="Group_81">
<g id="Clip path group_79">
<mask id="mask78_1_16726" style="mask-type:luminance" maskUnits="userSpaceOnUse" x="45" y="25" width="2" height="2">
<g id="SVGID_236_">
<path id="Vector_157" d="M46.0099 26.2413C46.0481 26.321 46.131 26.3688 46.2139 26.3688C46.249 26.3688 46.2809 26.3625 46.316 26.3465C46.4275 26.2923 46.4722 26.1552 46.418 26.0436C46.3478 25.9033 46.2777 25.7662 46.2044 25.6355C46.1438 25.5239 46.0067 25.4856 45.8983 25.5462C45.7898 25.6068 45.7484 25.7439 45.809 25.8555C45.8759 25.9735 45.9429 26.1042 46.0099 26.2413Z" fill="white"/>
</g>
</mask>
<g mask="url(#mask78_1_16726)">
<path id="Vector_158" d="M46.2904 25.1636L46.8579 26.1456L45.9269 26.6813L45.3625 25.6992L46.2904 25.1636Z" fill="#FD4380"/>
</g>
</g>
</g>
<g id="Group_82">
<g id="Clip path group_80">
<mask id="mask79_1_16726" style="mask-type:luminance" maskUnits="userSpaceOnUse" x="44" y="23" width="2" height="2">
<g id="SVGID_239_">
<path id="Vector_159" d="M44.8238 24.376C44.8684 24.4302 44.9354 24.4589 44.9991 24.4589C45.0501 24.4589 45.098 24.443 45.1426 24.4079C45.2383 24.3282 45.2542 24.1879 45.1777 24.0891C45.0757 23.9615 44.9736 23.8467 44.8748 23.7351C44.7919 23.6427 44.6484 23.6363 44.5559 23.7192C44.4635 23.8021 44.4571 23.9456 44.54 24.038C44.6325 24.1464 44.7281 24.2549 44.8238 24.376Z" fill="white"/>
</g>
</mask>
<g mask="url(#mask79_1_16726)">
<path id="Vector_160" d="M45.0564 23.292L45.6112 24.2549L44.6547 24.8065L44.0999 23.8436L45.0564 23.292Z" fill="#FD4380"/>
</g>
</g>
</g>
<g id="Group_83">
<g id="Clip path group_81">
<mask id="mask80_1_16726" style="mask-type:luminance" maskUnits="userSpaceOnUse" x="42" y="22" width="2" height="1">
<g id="SVGID_242_">
<path id="Vector_161" d="M42.9139 22.1631C42.8246 22.2524 42.8278 22.3959 42.9139 22.482C43.0287 22.5968 43.1371 22.702 43.2423 22.8008C43.287 22.8423 43.3412 22.8614 43.3986 22.8614C43.4591 22.8614 43.5197 22.8359 43.5644 22.7913C43.6505 22.702 43.6473 22.5585 43.5548 22.4724C43.4528 22.3736 43.3444 22.2716 43.2328 22.1631C43.1467 22.0739 43.0032 22.0739 42.9139 22.1631Z" fill="white"/>
</g>
</mask>
<g mask="url(#mask80_1_16726)">
<path id="Vector_162" d="M43.4463 21.7168L43.9947 22.667L43.0318 23.2186L42.4866 22.2716L43.4463 21.7168Z" fill="#FD4380"/>
</g>
</g>
</g>
<g id="Group_84">
<g id="Clip path group_82">
<mask id="mask81_1_16726" style="mask-type:luminance" maskUnits="userSpaceOnUse" x="28" y="16" width="2" height="2">
<g id="SVGID_245_">
<path id="Vector_163" d="M28.7762 17.0012L29.2226 17.0649C29.2354 17.0681 29.2449 17.0681 29.2577 17.0681C29.3693 17.0681 29.4649 16.9884 29.4809 16.8736C29.5 16.7493 29.4139 16.6345 29.2896 16.6154L28.84 16.5516C28.7156 16.5388 28.6009 16.6217 28.5849 16.7429C28.569 16.8672 28.6551 16.982 28.7762 17.0012Z" fill="white"/>
</g>
</mask>
<g mask="url(#mask81_1_16726)">
<path id="Vector_164" d="M29.2672 16.1338L29.7295 16.9341L28.8017 17.4698L28.3394 16.6695L29.2672 16.1338Z" fill="#FD4380"/>
</g>
</g>
</g>
<g id="Group_85">
<g id="Clip path group_83">
<mask id="mask82_1_16726" style="mask-type:luminance" maskUnits="userSpaceOnUse" x="27" y="14" width="1" height="1">
<g id="SVGID_248_">
<path id="Vector_165" d="M27.2551 14.8617C27.3093 14.8617 27.3667 14.8426 27.4082 14.8012C27.5102 14.7055 27.6218 14.613 27.7398 14.5206C27.8386 14.444 27.8578 14.3006 27.7812 14.2017C27.7047 14.1029 27.5612 14.0837 27.4624 14.1603C27.3317 14.2591 27.2137 14.3611 27.1021 14.4664C27.0096 14.5525 27.0032 14.6959 27.0893 14.7852C27.134 14.8362 27.1946 14.8617 27.2551 14.8617Z" fill="white"/>
</g>
</mask>
<g mask="url(#mask82_1_16726)">
<path id="Vector_166" d="M27.6441 13.7173L28.1926 14.6675L27.2169 15.2318L26.6685 14.2816L27.6441 13.7173Z" fill="#FD4380"/>
</g>
</g>
</g>
<g id="Group_86">
<g id="Clip path group_84">
<mask id="mask83_1_16726" style="mask-type:luminance" maskUnits="userSpaceOnUse" x="46" y="27" width="2" height="2">
<g id="SVGID_251_">
<path id="Vector_167" d="M46.7975 28.317C46.8262 28.4159 46.9155 28.4828 47.0143 28.4828C47.0334 28.4828 47.0558 28.4796 47.0749 28.4733C47.1961 28.4414 47.2662 28.3138 47.2311 28.1959C47.1897 28.046 47.145 27.8962 47.1004 27.7527C47.0621 27.6347 46.9346 27.5677 46.8166 27.606C46.6987 27.6443 46.6317 27.7718 46.67 27.8898C46.7146 28.0269 46.7561 28.1704 46.7975 28.317Z" fill="white"/>
</g>
</mask>
<g mask="url(#mask83_1_16726)">
<path id="Vector_168" d="M47.1068 27.2935L47.6616 28.2532L46.7911 28.757L46.2363 27.7972L47.1068 27.2935Z" fill="#FD4380"/>
</g>
</g>
</g>
<g id="Group_87">
<g id="Clip path group_85">
<mask id="mask84_1_16726" style="mask-type:luminance" maskUnits="userSpaceOnUse" x="26" y="15" width="2" height="2">
<g id="SVGID_254_">
<path id="Vector_169" d="M26.949 16.6378C26.9777 16.6505 27.0064 16.6537 27.0351 16.6537C27.1243 16.6537 27.2104 16.5995 27.2455 16.5134C27.2933 16.3986 27.2359 16.2647 27.1212 16.2169C26.9904 16.1627 26.8948 16.1021 26.8374 16.0351C26.7577 15.9395 26.6142 15.9267 26.5185 16.0064C26.4229 16.0861 26.4101 16.2296 26.4898 16.3253C26.5951 16.4496 26.7449 16.5549 26.949 16.6378Z" fill="white"/>
</g>
</mask>
<g mask="url(#mask84_1_16726)">
<path id="Vector_170" d="M27.0702 15.541L27.6058 16.4721L26.6302 17.0364L26.0913 16.1086L27.0702 15.541Z" fill="#FD4380"/>
</g>
</g>
</g>
<g id="Group_88">
<g id="Clip path group_86">
<mask id="mask85_1_16726" style="mask-type:luminance" maskUnits="userSpaceOnUse" x="38" y="20" width="2" height="2">
<g id="SVGID_257_">
<path id="Vector_171" d="M39.1099 21.6502C39.1545 21.7108 39.2215 21.7395 39.2916 21.7395C39.3394 21.7395 39.3873 21.7235 39.4287 21.6948C39.5275 21.6183 39.5467 21.478 39.4733 21.3792C39.3777 21.2548 39.282 21.1337 39.18 21.0157C39.1003 20.92 38.9568 20.9105 38.8612 20.9902C38.7655 21.0731 38.7559 21.2134 38.8356 21.309C38.9313 21.4206 39.0206 21.5322 39.1099 21.6502Z" fill="white"/>
</g>
</mask>
<g mask="url(#mask85_1_16726)">
<path id="Vector_172" d="M39.3491 20.563L39.9071 21.5323L38.9537 22.0839L38.3926 21.1146L39.3491 20.563Z" fill="#FD4380"/>
</g>
</g>
</g>
<g id="Group_89">
<g id="Clip path group_87">
<mask id="mask86_1_16726" style="mask-type:luminance" maskUnits="userSpaceOnUse" x="47" y="29" width="1" height="2">
<g id="SVGID_260_">
<path id="Vector_173" d="M47.1577 30.0611C47.18 30.2046 47.1991 30.3544 47.2151 30.5043C47.2278 30.6191 47.3267 30.7052 47.4382 30.7052C47.4478 30.7052 47.4574 30.7052 47.4638 30.7052C47.5881 30.6892 47.6774 30.5776 47.6614 30.4533C47.6423 30.2971 47.6232 30.1472 47.6009 29.9973C47.5817 29.873 47.4669 29.7933 47.3426 29.806C47.2278 29.822 47.1417 29.9368 47.1577 30.0611Z" fill="white"/>
</g>
</mask>
<g mask="url(#mask86_1_16726)">
<path id="Vector_174" d="M47.5466 29.5571L48.0791 30.4754L47.2756 30.9377L46.7463 30.0195L47.5466 29.5571Z" fill="#FD4380"/>
</g>
</g>
</g>
<g id="Group_90">
<g id="Clip path group_88">
<mask id="mask87_1_16726" style="mask-type:luminance" maskUnits="userSpaceOnUse" x="30" y="16" width="2" height="2">
<g id="SVGID_263_">
<path id="Vector_175" d="M30.992 17.3836C31.1355 17.4155 31.279 17.4506 31.4288 17.4857C31.448 17.4889 31.4671 17.4921 31.483 17.4921C31.5851 17.4921 31.6775 17.4219 31.7031 17.3199C31.7349 17.1987 31.6584 17.0744 31.5373 17.0457C31.3842 17.0074 31.2375 16.9723 31.0909 16.9404C30.9697 16.9149 30.8485 16.9915 30.8198 17.1126C30.7943 17.2338 30.8709 17.355 30.992 17.3836Z" fill="white"/>
</g>
</mask>
<g mask="url(#mask87_1_16726)">
<path id="Vector_176" d="M31.499 16.5068L31.9837 17.3486L31.0271 17.9002L30.5425 17.0584L31.499 16.5068Z" fill="#FD4380"/>
</g>
</g>
</g>
<g id="Group_91">
<g id="Clip path group_89">
<mask id="mask88_1_16726" style="mask-type:luminance" maskUnits="userSpaceOnUse" x="28" y="13" width="2" height="1">
<g id="SVGID_266_">
<path id="Vector_177" d="M29.1683 13.6631C29.197 13.6631 29.2288 13.6568 29.2575 13.644C29.3915 13.5866 29.5286 13.5356 29.6657 13.4878C29.7836 13.4463 29.8474 13.3188 29.806 13.2008C29.7645 13.0828 29.637 13.0191 29.519 13.0605C29.3723 13.1115 29.2256 13.1689 29.079 13.2295C28.9642 13.2773 28.91 13.4113 28.9578 13.526C28.9961 13.6121 29.079 13.6631 29.1683 13.6631Z" fill="white"/>
</g>
</mask>
<g mask="url(#mask88_1_16726)">
<path id="Vector_178" d="M29.6114 12.6172L30.1248 13.5036L29.1427 14.0679L28.6326 13.1815L29.6114 12.6172Z" fill="#FD4380"/>
</g>
</g>
</g>
<g id="Group_92">
<g id="Clip path group_90">
<mask id="mask89_1_16726" style="mask-type:luminance" maskUnits="userSpaceOnUse" x="40" y="27" width="2" height="2">
<g id="SVGID_269_">
<path id="Vector_179" d="M41.058 27.2744C40.9337 27.2744 40.8316 27.386 40.8316 27.5104C40.8316 27.6538 40.8285 27.7973 40.8253 27.9376C40.8221 28.062 40.9209 28.1672 41.0453 28.1704H41.0516C41.1728 28.1704 41.2748 28.0747 41.278 27.9504C41.2812 27.8069 41.2844 27.6602 41.2844 27.4912C41.2844 27.3669 41.1856 27.2744 41.058 27.2744Z" fill="white"/>
</g>
</mask>
<g mask="url(#mask89_1_16726)">
<path id="Vector_180" d="M41.1696 27.0737L41.6734 27.9474L40.9369 28.3714L40.4331 27.4978L41.1696 27.0737Z" fill="#FD4380"/>
</g>
</g>
</g>
<g id="Group_93">
<g id="Clip path group_91">
<mask id="mask90_1_16726" style="mask-type:luminance" maskUnits="userSpaceOnUse" x="40" y="29" width="2" height="2">
<g id="SVGID_272_">
<path id="Vector_181" d="M40.9243 29.5254C40.8 29.5095 40.6852 29.5924 40.6692 29.7167C40.6469 29.8761 40.6214 30.0228 40.5991 30.1567C40.5768 30.2811 40.6597 30.3959 40.784 30.4182C40.7968 30.4214 40.8095 30.4214 40.8223 30.4214C40.9307 30.4214 41.0263 30.3448 41.0455 30.2332C41.071 30.0929 41.0933 29.9399 41.1188 29.7805C41.1348 29.6593 41.0487 29.5445 40.9243 29.5254Z" fill="white"/>
</g>
</mask>
<g mask="url(#mask90_1_16726)">
<path id="Vector_182" d="M40.9945 29.2671L41.5301 30.1949L40.7171 30.6668L40.1814 29.739L40.9945 29.2671Z" fill="#FD4380"/>
</g>
</g>
</g>
<g id="Group_94">
<g id="Clip path group_92">
<mask id="mask91_1_16726" style="mask-type:luminance" maskUnits="userSpaceOnUse" x="40" y="25" width="2" height="1">
<g id="SVGID_275_">
<path id="Vector_183" d="M40.6404 25.2783C40.6659 25.425 40.6914 25.5716 40.7105 25.7151C40.7265 25.8299 40.8221 25.9096 40.9337 25.9096C40.9433 25.9096 40.956 25.9096 40.9656 25.9064C41.0899 25.8873 41.176 25.7725 41.1569 25.6514C41.1346 25.5015 41.1091 25.3485 41.0836 25.1954C41.0612 25.0711 40.9433 24.9945 40.8189 25.0137C40.6978 25.036 40.6149 25.154 40.6404 25.2783Z" fill="white"/>
</g>
</mask>
<g mask="url(#mask91_1_16726)">
<path id="Vector_184" d="M41.0357 24.7524L41.5714 25.6835L40.7551 26.1522L40.2195 25.2243L41.0357 24.7524Z" fill="#FD4380"/>
</g>
</g>
</g>
<g id="Group_95">
<g id="Clip path group_93">
<mask id="mask92_1_16726" style="mask-type:luminance" maskUnits="userSpaceOnUse" x="41" y="20" width="2" height="2">
<g id="SVGID_278_">
<path id="Vector_185" d="M42.0051 21.1559C42.1008 21.0762 42.1135 20.9327 42.0338 20.8371L42.0019 20.7956C41.9158 20.6904 41.8329 20.5884 41.7532 20.4864C41.6767 20.3875 41.5332 20.3716 41.4344 20.4481C41.3355 20.5246 41.3196 20.6681 41.3961 20.7669C41.4758 20.869 41.5619 20.9742 41.6512 21.0826L41.6863 21.1241C41.7309 21.1783 41.7947 21.207 41.8616 21.207C41.9094 21.207 41.9636 21.191 42.0051 21.1559Z" fill="white"/>
</g>
</mask>
<g mask="url(#mask92_1_16726)">
<path id="Vector_186" d="M41.9158 20.0303L42.4769 20.9996L41.5172 21.5512L40.9592 20.5819L41.9158 20.0303Z" fill="#FD4380"/>
</g>
</g>
</g>
<g id="Group_96">
<g id="Clip path group_94">
<mask id="mask93_1_16726" style="mask-type:luminance" maskUnits="userSpaceOnUse" x="39" y="33" width="1" height="2">
<g id="SVGID_281_">
<path id="Vector_187" d="M39.5977 33.8364C39.4861 33.779 39.349 33.8268 39.2948 33.9384L39.0907 34.3402C39.0333 34.4518 39.078 34.5889 39.1896 34.6463C39.2215 34.6622 39.2565 34.6718 39.2916 34.6718C39.3745 34.6718 39.4542 34.6272 39.4925 34.5474L39.6965 34.1425C39.7539 34.0277 39.7093 33.8938 39.5977 33.8364Z" fill="white"/>
</g>
</mask>
<g mask="url(#mask93_1_16726)">
<path id="Vector_188" d="M39.5753 33.4668L40.1397 34.4488L39.215 34.9845L38.6475 34.0025L39.5753 33.4668Z" fill="#FD4380"/>
</g>
</g>
</g>
<g id="Group_97">
<g id="Clip path group_95">
<mask id="mask94_1_16726" style="mask-type:luminance" maskUnits="userSpaceOnUse" x="40" y="18" width="1" height="2">
<g id="SVGID_284_">
<path id="Vector_189" d="M40.3408 19.2681C40.3823 19.3382 40.4588 19.3765 40.5353 19.3765C40.5768 19.3765 40.615 19.3669 40.6533 19.3414C40.7617 19.2777 40.7936 19.1374 40.7298 19.0321C40.6469 18.8982 40.5736 18.7707 40.5066 18.6495C40.446 18.5411 40.3089 18.5029 40.1973 18.5603C40.0889 18.6208 40.0475 18.7579 40.1081 18.8695C40.1782 18.9939 40.2547 19.1278 40.3408 19.2681Z" fill="white"/>
</g>
</mask>
<g mask="url(#mask94_1_16726)">
<path id="Vector_190" d="M40.6054 18.1777L41.1697 19.1566L40.2323 19.6986L39.668 18.7198L40.6054 18.1777Z" fill="#FD4380"/>
</g>
</g>
</g>
<g id="Group_98">
<g id="Clip path group_96">
<mask id="mask95_1_16726" style="mask-type:luminance" maskUnits="userSpaceOnUse" x="39" y="16" width="1" height="2">
<g id="SVGID_287_">
<path id="Vector_191" d="M39.2791 17.2723C39.3205 17.3424 39.397 17.3807 39.4736 17.3807C39.515 17.3807 39.5533 17.3711 39.5915 17.3488C39.6999 17.285 39.7318 17.1448 39.6681 17.0395C39.5915 16.912 39.5054 16.7813 39.4098 16.6474C39.3365 16.5453 39.1962 16.523 39.0941 16.5963C38.9921 16.6697 38.9698 16.81 39.0431 16.912C39.1292 17.0332 39.2057 17.1543 39.2791 17.2723Z" fill="white"/>
</g>
</mask>
<g mask="url(#mask95_1_16726)">
<path id="Vector_192" d="M39.5405 16.188L40.1048 17.1669L39.1579 17.7121L38.5935 16.7364L39.5405 16.188Z" fill="#FD4380"/>
</g>
</g>
</g>
<g id="Group_99">
<g id="Clip path group_97">
<mask id="mask96_1_16726" style="mask-type:luminance" maskUnits="userSpaceOnUse" x="39" y="22" width="2" height="2">
<g id="SVGID_290_">
<path id="Vector_193" d="M40.379 23.7195C40.4077 23.7195 40.4332 23.7131 40.4587 23.7036C40.5766 23.6589 40.634 23.5282 40.5894 23.4102C40.5352 23.2667 40.4746 23.1233 40.4108 22.9798C40.3598 22.865 40.2259 22.814 40.1111 22.865C39.9963 22.916 39.9453 23.0499 39.9963 23.1647C40.0569 23.2986 40.1111 23.4357 40.1653 23.5696C40.2004 23.6653 40.2865 23.7195 40.379 23.7195Z" fill="white"/>
</g>
</mask>
<g mask="url(#mask96_1_16726)">
<path id="Vector_194" d="M40.4619 22.5205L41.0263 23.493L40.1208 24.0159L39.5564 23.0434L40.4619 22.5205Z" fill="#FD4380"/>
</g>
</g>
</g>
<g id="Group_100">
<g id="Clip path group_98">
<mask id="mask97_1_16726" style="mask-type:luminance" maskUnits="userSpaceOnUse" x="37" y="14" width="2" height="2">
<g id="SVGID_293_">
<path id="Vector_195" d="M38.1405 15.2859C38.0258 15.1839 37.9046 15.085 37.7834 14.9894C37.6846 14.9129 37.5443 14.9256 37.4646 15.0245C37.3849 15.1233 37.404 15.2636 37.4997 15.3433C37.6144 15.4358 37.7292 15.5314 37.8376 15.6271C37.8823 15.6653 37.9333 15.6845 37.9875 15.6845C38.0513 15.6845 38.1118 15.659 38.1565 15.608C38.2426 15.5123 38.233 15.3688 38.1405 15.2859Z" fill="white"/>
</g>
</mask>
<g mask="url(#mask97_1_16726)">
<path id="Vector_196" d="M38.0289 14.5396L38.5773 15.4897L37.6016 16.0541L37.0532 15.1039L38.0289 14.5396Z" fill="#FD4380"/>
</g>
</g>
</g>
<g id="Group_101">
<g id="Clip path group_99">
<mask id="mask98_1_16726" style="mask-type:luminance" maskUnits="userSpaceOnUse" x="35" y="18" width="1" height="1">
<g id="SVGID_296_">
<path id="Vector_197" d="M35.2582 18.7517C35.3921 18.8122 35.526 18.876 35.66 18.9398C35.6918 18.9557 35.7269 18.9621 35.7588 18.9621C35.8417 18.9621 35.9214 18.9175 35.9629 18.8346C36.0171 18.723 35.9724 18.5859 35.8608 18.5317C35.7205 18.4647 35.5834 18.3977 35.4431 18.3372C35.3284 18.2861 35.1944 18.3372 35.1434 18.4519C35.0956 18.5667 35.1466 18.7006 35.2582 18.7517Z" fill="white"/>
</g>
</mask>
<g mask="url(#mask98_1_16726)">
<path id="Vector_198" d="M35.7907 17.8843L36.3136 18.7962L35.3252 19.3669L34.8022 18.455L35.7907 17.8843Z" fill="#FD4380"/>
</g>
</g>
</g>
<g id="Group_102">
<g id="Clip path group_100">
<mask id="mask99_1_16726" style="mask-type:luminance" maskUnits="userSpaceOnUse" x="33" y="12" width="2" height="2">
<g id="SVGID_299_">
<path id="Vector_199" d="M33.5588 13.3886C33.7023 13.4237 33.8426 13.4619 33.9861 13.5034C34.0084 13.5097 34.0275 13.5129 34.0498 13.5129C34.1487 13.5129 34.238 13.4492 34.2667 13.3503C34.3017 13.2292 34.2316 13.1048 34.1136 13.0697C33.9637 13.0251 33.8139 12.9868 33.664 12.9486C33.5429 12.9231 33.4217 12.9932 33.3898 13.1144C33.3643 13.2387 33.4376 13.3599 33.5588 13.3886Z" fill="white"/>
</g>
</mask>
<g mask="url(#mask99_1_16726)">
<path id="Vector_200" d="M34.0689 12.5151L34.5599 13.3665L33.597 13.9213L33.1091 13.0699L34.0689 12.5151Z" fill="#FD4380"/>
</g>
</g>
</g>
<g id="Group_103">
<g id="Clip path group_101">
<mask id="mask100_1_16726" style="mask-type:luminance" maskUnits="userSpaceOnUse" x="37" y="19" width="1" height="2">
<g id="SVGID_302_">
<path id="Vector_201" d="M37.4552 19.4658C37.3532 19.3957 37.2097 19.4212 37.1396 19.5232C37.0694 19.6253 37.0917 19.7656 37.197 19.8389C37.3181 19.9218 37.4361 20.0111 37.5541 20.1004C37.5955 20.1322 37.6434 20.1482 37.6912 20.1482C37.7581 20.1482 37.8251 20.1163 37.8697 20.0589C37.9463 19.9601 37.9271 19.8166 37.8283 19.7401C37.7071 19.6444 37.5828 19.5519 37.4552 19.4658Z" fill="white"/>
</g>
</mask>
<g mask="url(#mask100_1_16726)">
<path id="Vector_202" d="M37.7294 19.0132L38.2746 19.957L37.2894 20.5277L36.7441 19.5839L37.7294 19.0132Z" fill="#FD4380"/>
</g>
</g>
</g>
<g id="Group_104">
<g id="Clip path group_102">
<mask id="mask101_1_16726" style="mask-type:luminance" maskUnits="userSpaceOnUse" x="39" y="31" width="2" height="2">
<g id="SVGID_305_">
<path id="Vector_203" d="M40.2259 32.6057C40.3183 32.6057 40.4044 32.5483 40.4395 32.459C40.4937 32.3155 40.5447 32.172 40.5926 32.0254C40.634 31.9074 40.567 31.7798 40.4491 31.7384C40.3311 31.6969 40.2036 31.7639 40.1621 31.8819C40.1143 32.0254 40.0633 32.1657 40.0123 32.3028C39.9676 32.4207 40.0282 32.5515 40.1462 32.5961C40.1717 32.6025 40.2004 32.6057 40.2259 32.6057Z" fill="white"/>
</g>
</mask>
<g mask="url(#mask101_1_16726)">
<path id="Vector_204" d="M40.465 31.4102L41.0262 32.3795L40.1366 32.8928L39.5754 31.9267L40.465 31.4102Z" fill="#FD4380"/>
</g>
</g>
</g>
<g id="Group_105">
<g id="Clip path group_103">
<mask id="mask102_1_16726" style="mask-type:luminance" maskUnits="userSpaceOnUse" x="38" y="35" width="1" height="2">
<g id="SVGID_308_">
<path id="Vector_205" d="M38.3319 36.7218C38.4276 36.7218 38.5168 36.6612 38.5487 36.5655C38.5934 36.4348 38.6444 36.2977 38.7018 36.1606C38.7496 36.0458 38.6954 35.9119 38.5806 35.8641C38.4658 35.8162 38.3319 35.8704 38.2841 35.9852C38.2203 36.1351 38.1629 36.2818 38.1183 36.4252C38.08 36.5432 38.1438 36.6708 38.2618 36.7122C38.2841 36.7154 38.3096 36.7218 38.3319 36.7218Z" fill="white"/>
</g>
</mask>
<g mask="url(#mask102_1_16726)">
<path id="Vector_206" d="M38.5805 35.5229L39.1417 36.4922L38.2457 37.012L37.6846 36.0395L38.5805 35.5229Z" fill="#FD4380"/>
</g>
</g>
</g>
</g>
<g id="Group_106">
<g id="Clip path group_104">
<mask id="mask103_1_16726" style="mask-type:luminance" maskUnits="userSpaceOnUse" x="38" y="38" width="1" height="1">
<g id="SVGID_311_">
<path id="Vector_207" d="M38.638 38.1124C38.5679 38.0072 38.4276 37.9785 38.3256 38.0487C38.2203 38.1156 38.1916 38.2591 38.2618 38.3611C38.3574 38.5078 38.469 38.6353 38.5998 38.7469C38.6444 38.7852 38.6954 38.8011 38.7464 38.8011C38.8102 38.8011 38.874 38.7756 38.9186 38.7214C39.0015 38.6258 38.9888 38.4823 38.8931 38.4026C38.7943 38.3165 38.7082 38.224 38.638 38.1124Z" fill="white"/>
</g>
</mask>
<g mask="url(#mask103_1_16726)">
<path id="Vector_208" d="M38.7942 37.6279L39.3554 38.594L38.3925 39.152L37.8313 38.1827L38.7942 37.6279Z" fill="#FD4380"/>
</g>
</g>
</g>
</g>
<g id="Group_107">
<g id="Clip path group_105">
<mask id="mask104_1_16726" style="mask-type:luminance" maskUnits="userSpaceOnUse" x="57" y="26" width="5" height="9">
<g id="SVGID_314_">
<path id="Vector_209" d="M59.8158 29.6275C59.8062 28.4955 59.7329 27.3573 59.5958 26.2381C59.5799 26.1138 59.4683 26.0245 59.3439 26.0404C59.2196 26.0564 59.1303 26.168 59.1462 26.2923C59.2801 27.3923 59.3503 28.5115 59.363 29.6275C58.145 29.7454 57.1853 30.7626 57.1853 32.0124C57.1853 33.3388 58.2662 34.4197 59.5926 34.4197C60.919 34.4197 61.9999 33.3388 61.9999 32.0124C62.0031 30.7594 61.0402 29.7422 59.8158 29.6275ZM59.5958 33.967C58.5181 33.967 57.6413 33.0901 57.6413 32.0124C57.6413 30.9889 58.4352 30.1567 59.4396 30.0738C59.4938 30.0707 59.5448 30.0579 59.5958 30.0579C59.65 30.0579 59.701 30.0707 59.752 30.0738C60.7564 30.1567 61.5503 30.9889 61.5503 32.0124C61.5503 33.0901 60.6735 33.967 59.5958 33.967Z" fill="white"/>
</g>
</mask>
<g mask="url(#mask104_1_16726)">
<path id="Vector_210" d="M60.798 23.939L65.6381 32.3215L58.3907 36.5048L53.5505 28.1222L60.798 23.939Z" fill="#FD4380"/>
</g>
</g>
</g>
</g>
</svg>
