<svg width="62" height="63" viewBox="0 0 62 63" fill="none" xmlns="http://www.w3.org/2000/svg">
<g id="Group 1953">
<g id="Group">
<g id="Clip path group">
<mask id="mask0_1_16229" style="mask-type:luminance" maskUnits="userSpaceOnUse" x="13" y="16" width="8" height="14">
<g id="SVGID_17_">
<path id="Vector" d="M20.4326 16.8627C20.4959 16.8172 20.5098 16.7282 20.4623 16.6669C20.4168 16.6036 20.3278 16.5897 20.2664 16.6372C16.2761 19.5612 13.6686 24.0442 13.1166 28.9347C13.1087 29.0119 13.1641 29.0811 13.2412 29.091C13.2472 29.091 13.2511 29.091 13.2571 29.091C13.3283 29.091 13.3896 29.0376 13.3955 28.9664C13.9396 24.153 16.5055 19.7393 20.4326 16.8627Z" fill="white"/>
</g>
</mask>
<g mask="url(#mask0_1_16229)">
<path id="Vector_2" d="M18.3573 13.2285L26.1857 25.4568L15.2592 32.4523L7.43079 20.224L18.3573 13.2285Z" fill="#6B3C6A"/>
</g>
</g>
</g>
<g id="Group_2">
<g id="Clip path group_2">
<mask id="mask1_1_16229" style="mask-type:luminance" maskUnits="userSpaceOnUse" x="14" y="38" width="5" height="6">
<g id="SVGID_20_">
<path id="Vector_3" d="M14.9743 38.451C14.9407 38.3818 14.8576 38.3521 14.7863 38.3837C14.7171 38.4174 14.6874 38.5005 14.7191 38.5717C15.5995 40.4175 16.7825 42.0853 18.2386 43.5315C18.2663 43.5592 18.3019 43.573 18.3375 43.573C18.3731 43.573 18.4107 43.5592 18.4364 43.5315C18.4918 43.4761 18.4898 43.387 18.4364 43.3336C17.0041 41.9092 15.8388 40.2672 14.9743 38.451Z" fill="white"/>
</g>
</mask>
<g mask="url(#mask1_1_16229)">
<path id="Vector_4" d="M17.3859 36.6211L20.8638 42.0557L15.7933 45.3022L12.3153 39.8696L17.3859 36.6211Z" fill="#6B3C6A"/>
</g>
</g>
</g>
<g id="Group_3">
<g id="Clip path group_3">
<mask id="mask2_1_16229" style="mask-type:luminance" maskUnits="userSpaceOnUse" x="30" y="38" width="17" height="11">
<g id="SVGID_23_">
<path id="Vector_5" d="M46.8458 38.0255C46.7746 37.9938 46.6915 38.0255 46.6598 38.0967C44.1612 43.6579 38.8572 47.5592 32.8192 48.2774C32.1327 48.3585 31.4304 48.4 30.734 48.4C30.6568 48.4 30.5935 48.4633 30.5935 48.5405C30.5935 48.6176 30.6568 48.681 30.734 48.681C31.4422 48.681 32.1544 48.6394 32.8528 48.5543C38.9877 47.8243 44.3768 43.8597 46.9151 38.2094C46.9487 38.1402 46.917 38.0571 46.8458 38.0255Z" fill="white"/>
</g>
</mask>
<g mask="url(#mask2_1_16229)">
<path id="Vector_6" d="M42.1947 30.5669L51.8017 45.5748L35.3476 56.1076L25.7406 41.0997L42.1947 30.5669Z" fill="#6B3C6A"/>
</g>
</g>
</g>
<g id="Group_4">
<g id="Clip path group_4">
<mask id="mask3_1_16229" style="mask-type:luminance" maskUnits="userSpaceOnUse" x="47" y="26" width="2" height="11">
<g id="SVGID_26_">
<path id="Vector_7" d="M48.0407 27.0654C48.0249 26.9903 47.9497 26.9428 47.8725 26.9586C47.7974 26.9764 47.7479 27.0516 47.7657 27.1268C48.0447 28.3731 48.1851 29.6611 48.1851 30.951C48.1851 32.7889 47.9002 34.5991 47.3404 36.3301C47.3166 36.4033 47.3562 36.4825 47.4314 36.5082C47.4452 36.5122 47.461 36.5141 47.4749 36.5141C47.5342 36.5141 47.5896 36.4765 47.6094 36.4172C48.1792 34.6584 48.468 32.8185 48.468 30.951C48.4661 29.6393 48.3236 28.3336 48.0407 27.0654Z" fill="white"/>
</g>
</mask>
<g mask="url(#mask3_1_16229)">
<path id="Vector_8" d="M48.1336 26.4204L52.8125 33.7305L47.6509 37.0344L42.972 29.7243L48.1336 26.4204Z" fill="#6B3C6A"/>
</g>
</g>
</g>
<g id="Group_5">
<g id="Clip path group_5">
<mask id="mask4_1_16229" style="mask-type:luminance" maskUnits="userSpaceOnUse" x="35" y="13" width="10" height="8">
<g id="SVGID_29_">
<path id="Vector_9" d="M35.2367 14.0853C38.956 15.0764 42.2955 17.3179 44.6379 20.4002C44.6656 20.4358 44.7071 20.4556 44.7507 20.4556C44.7803 20.4556 44.81 20.4457 44.8357 20.4279C44.8971 20.3804 44.9089 20.2934 44.8634 20.2301C42.4835 17.0983 39.0906 14.8192 35.3099 13.8123C35.2347 13.7925 35.1576 13.838 35.1378 13.9112C35.116 13.9883 35.1615 14.0655 35.2367 14.0853Z" fill="white"/>
</g>
</mask>
<g mask="url(#mask4_1_16229)">
<path id="Vector_10" d="M42.062 9.34717L47.9338 18.5189L37.9629 24.9031L32.0911 15.7314L42.062 9.34717Z" fill="#6B3C6A"/>
</g>
</g>
</g>
<g id="Group_6">
<g id="Clip path group_6">
<mask id="mask5_1_16229" style="mask-type:luminance" maskUnits="userSpaceOnUse" x="16" y="14" width="12" height="9">
<g id="SVGID_32_">
<path id="Vector_11" d="M27.4577 14.6236C23.0341 15.5079 19.1011 18.2103 16.6717 22.0405C16.6301 22.1057 16.6499 22.1928 16.7152 22.2343C16.7389 22.2502 16.7647 22.2561 16.7904 22.2561C16.8379 22.2561 16.8834 22.2324 16.9091 22.1908C19.2989 18.426 23.1627 15.769 27.5131 14.9005C27.5903 14.8847 27.6397 14.8115 27.6239 14.7343C27.6081 14.6572 27.5329 14.6077 27.4577 14.6236Z" fill="white"/>
</g>
</mask>
<g mask="url(#mask5_1_16229)">
<path id="Vector_12" d="M24.4387 9.6084L31.1118 20.0324L19.8291 27.2535L13.1581 16.8314L24.4387 9.6084Z" fill="#6B3C6A"/>
</g>
</g>
</g>
<g id="Group_7">
<g id="Clip path group_7">
<mask id="mask6_1_16229" style="mask-type:luminance" maskUnits="userSpaceOnUse" x="15" y="36" width="10" height="11">
<g id="SVGID_35_">
<path id="Vector_13" d="M24.6525 46.1526C20.401 44.4492 17.0378 41.0147 15.4195 36.7336C15.3918 36.6604 15.3107 36.6247 15.2375 36.6524C15.1643 36.6801 15.1287 36.7613 15.1563 36.8345C16.8004 41.1908 20.2249 44.6826 24.5477 46.4157C24.5655 46.4236 24.5833 46.4256 24.5991 46.4256C24.6545 46.4256 24.7079 46.392 24.7297 46.3366C24.7594 46.2634 24.7237 46.1822 24.6525 46.1526Z" fill="white"/>
</g>
</mask>
<g mask="url(#mask6_1_16229)">
<path id="Vector_14" d="M21.96 32.2505L29.2087 43.5747L17.9281 50.7957L10.6793 39.4735L21.96 32.2505Z" fill="#6B3C6A"/>
</g>
</g>
</g>
<g id="Group_8">
<g id="Clip path group_8">
<mask id="mask7_1_16229" style="mask-type:luminance" maskUnits="userSpaceOnUse" x="32" y="44" width="9" height="4">
<g id="SVGID_38_">
<path id="Vector_15" d="M32.6827 47.4898C32.6886 47.4898 32.6946 47.4898 32.7005 47.4898C35.2862 47.1851 37.8007 46.2612 39.969 44.815C40.0343 44.7715 40.0521 44.6844 40.0086 44.6192C39.9651 44.5539 39.878 44.538 39.8147 44.5796C37.682 46.002 35.2111 46.9101 32.6688 47.2088C32.5917 47.2187 32.5363 47.288 32.5462 47.3651C32.5521 47.4364 32.6134 47.4898 32.6827 47.4898Z" fill="white"/>
</g>
</mask>
<g mask="url(#mask7_1_16229)">
<path id="Vector_16" d="M37.866 41.1255L41.3915 46.6313L34.7184 50.9026L31.193 45.3968L37.866 41.1255Z" fill="#6B3C6A"/>
</g>
</g>
</g>
<g id="Group_9">
<g id="Clip path group_9">
<mask id="mask8_1_16229" style="mask-type:luminance" maskUnits="userSpaceOnUse" x="41" y="32" width="7" height="12">
<g id="SVGID_41_">
<path id="Vector_17" d="M47.186 32.4484C47.1069 32.4445 47.0396 32.4979 47.0317 32.5751C46.6103 36.8543 44.5548 40.7378 41.243 43.5095C41.1837 43.559 41.1758 43.648 41.2252 43.7073C41.2529 43.741 41.2925 43.7568 41.334 43.7568C41.3657 43.7568 41.3973 43.7469 41.425 43.7252C44.7922 40.904 46.8834 36.9552 47.3127 32.6028C47.3186 32.5236 47.2632 32.4564 47.186 32.4484Z" fill="white"/>
</g>
</mask>
<g mask="url(#mask8_1_16229)">
<path id="Vector_18" d="M45.5341 29.6548L52.4564 40.4685L42.9622 46.5461L36.0399 35.7323L45.5341 29.6548Z" fill="#6B3C6A"/>
</g>
</g>
</g>
<g id="Group_10">
<g id="Clip path group_10">
<mask id="mask9_1_16229" style="mask-type:luminance" maskUnits="userSpaceOnUse" x="40" y="17" width="6" height="7">
<g id="SVGID_44_">
<path id="Vector_19" d="M40.883 17.743C40.8217 17.6955 40.7326 17.7074 40.6852 17.7687C40.6377 17.8301 40.6496 17.9191 40.7109 17.9666C42.6576 19.4642 44.268 21.4109 45.3699 23.597C45.3957 23.6465 45.4451 23.6742 45.4946 23.6742C45.5163 23.6742 45.5381 23.6702 45.5579 23.6583C45.6271 23.6227 45.6548 23.5396 45.6212 23.4704C44.5014 21.2467 42.8633 19.2664 40.883 17.743Z" fill="white"/>
</g>
</mask>
<g mask="url(#mask9_1_16229)">
<path id="Vector_20" d="M44.1987 15.4185L48.3711 21.9372L42.0977 25.9533L37.9233 19.4345L44.1987 15.4185Z" fill="#6B3C6A"/>
</g>
</g>
</g>
<g id="Group_11">
<g id="Clip path group_11">
<mask id="mask10_1_16229" style="mask-type:luminance" maskUnits="userSpaceOnUse" x="15" y="21" width="4" height="11">
<g id="SVGID_47_">
<path id="Vector_21" d="M18.0467 22.0104C17.4314 22.8829 16.9052 23.8206 16.4838 24.7999C15.645 26.7426 15.2196 28.81 15.2196 30.9447C15.2196 31.0219 15.2829 31.0852 15.3601 31.0852C15.4372 31.0852 15.5005 31.0219 15.5005 30.9447C15.5005 28.8496 15.918 26.8198 16.741 24.9107C17.1544 23.9512 17.6708 23.0292 18.2762 22.1726C18.3217 22.1093 18.3059 22.0223 18.2426 21.9768C18.1792 21.9313 18.0902 21.9471 18.0467 22.0104Z" fill="white"/>
</g>
</mask>
<g mask="url(#mask10_1_16229)">
<path id="Vector_22" d="M17.4195 20.5225L22.4782 28.4241L16.1217 32.4936L11.063 24.592L17.4195 20.5225Z" fill="#6B3C6A"/>
</g>
</g>
</g>
<g id="Group_12">
<g id="Clip path group_12">
<mask id="mask11_1_16229" style="mask-type:luminance" maskUnits="userSpaceOnUse" x="15" y="31" width="4" height="10">
<g id="SVGID_50_">
<path id="Vector_23" d="M15.5322 31.9262C15.5282 31.849 15.459 31.7857 15.3838 31.7936C15.3066 31.7996 15.2473 31.8649 15.2532 31.942C15.3264 33.0816 15.5243 34.2132 15.8428 35.3033C16.4244 37.2915 17.3839 39.1195 18.6995 40.7339C18.7272 40.7675 18.7688 40.7853 18.8083 40.7853C18.84 40.7853 18.8717 40.7754 18.8974 40.7537C18.9567 40.7042 18.9666 40.6172 18.9172 40.5558C17.6273 38.9712 16.6836 37.1768 16.1138 35.2222C15.7973 34.1538 15.6014 33.044 15.5322 31.9262Z" fill="white"/>
</g>
</mask>
<g mask="url(#mask11_1_16229)">
<path id="Vector_24" d="M17.8824 30.0962L23.0499 38.1699L16.3255 42.4749L11.158 34.4011L17.8824 30.0962Z" fill="#6B3C6A"/>
</g>
</g>
</g>
<g id="Group_13">
<g id="Clip path group_13">
<mask id="mask12_1_16229" style="mask-type:luminance" maskUnits="userSpaceOnUse" x="35" y="38" width="10" height="8">
<g id="SVGID_53_">
<path id="Vector_25" d="M44.1552 38.1817C42.2817 41.6458 39.1955 44.2236 35.4623 45.4384C35.3891 45.4621 35.3475 45.5412 35.3732 45.6144C35.393 45.6738 35.4484 45.7114 35.5078 45.7114C35.5216 45.7114 35.5375 45.7094 35.5513 45.7054C39.3537 44.467 42.4974 41.8437 44.4045 38.3143C44.4421 38.245 44.4164 38.1599 44.3471 38.1243C44.2779 38.0887 44.1928 38.1125 44.1552 38.1817Z" fill="white"/>
</g>
</mask>
<g mask="url(#mask12_1_16229)">
<path id="Vector_26" d="M41.797 33.96L47.9023 43.4957L37.9906 49.8403L31.8854 40.3046L41.797 33.96Z" fill="#6B3C6A"/>
</g>
</g>
</g>
<g id="Group_14">
<g id="Clip path group_14">
<mask id="mask13_1_16229" style="mask-type:luminance" maskUnits="userSpaceOnUse" x="44" y="33" width="3" height="5">
<g id="SVGID_56_">
<path id="Vector_27" d="M46.0703 33.4573C45.8626 34.7353 45.4946 35.9837 44.9763 37.1687C44.9446 37.2399 44.9783 37.323 45.0495 37.3547C45.0673 37.3626 45.0871 37.3666 45.1049 37.3666C45.1583 37.3666 45.2117 37.3349 45.2335 37.2815C45.7617 36.0747 46.1356 34.8046 46.3473 33.5028C46.3592 33.4256 46.3077 33.3544 46.2306 33.3426C46.1534 33.3267 46.0822 33.3821 46.0703 33.4573Z" fill="white"/>
</g>
</mask>
<g mask="url(#mask13_1_16229)">
<path id="Vector_28" d="M45.9477 32.6855L48.1931 36.1912L45.3562 38.0074L43.1107 34.5017L45.9477 32.6855Z" fill="#6B3C6A"/>
</g>
</g>
</g>
<g id="Group_15">
<g id="Clip path group_15">
<mask id="mask14_1_16229" style="mask-type:luminance" maskUnits="userSpaceOnUse" x="37" y="16" width="10" height="16">
<g id="SVGID_59_">
<path id="Vector_29" d="M37.2784 16.8631C37.2072 16.8295 37.1241 16.8611 37.0905 16.9304C37.0588 17.0016 37.0885 17.0847 37.1597 17.1164C39.6426 18.2717 41.7753 20.0799 43.3283 22.3472C45.0633 24.8834 45.9813 27.8569 45.9813 30.9432C45.9813 31.0203 46.0446 31.0836 46.1218 31.0836C46.1989 31.0836 46.2622 31.0203 46.2622 30.9432C46.2622 27.7995 45.3284 24.7726 43.5598 22.1889C41.979 19.8821 39.8068 18.0403 37.2784 16.8631Z" fill="white"/>
</g>
</mask>
<g mask="url(#mask14_1_16229)">
<path id="Vector_30" d="M43.5856 12.6514L52.7335 26.9411L39.7337 35.2641L30.5857 20.9744L43.5856 12.6514Z" fill="#6B3C6A"/>
</g>
</g>
</g>
<g id="Group_16">
<g id="Clip path group_16">
<mask id="mask15_1_16229" style="mask-type:luminance" maskUnits="userSpaceOnUse" x="28" y="15" width="3" height="1">
<g id="SVGID_62_">
<path id="Vector_31" d="M30.3937 15.4268C29.6894 15.4426 28.9811 15.5059 28.2887 15.6147C28.2116 15.6266 28.1601 15.6978 28.172 15.7749C28.1839 15.8442 28.2432 15.8937 28.3105 15.8937C28.3184 15.8937 28.3243 15.8937 28.3322 15.8917C29.0108 15.7848 29.7052 15.7215 30.3977 15.7057C30.4748 15.7037 30.5361 15.6404 30.5342 15.5613C30.5361 15.4881 30.4728 15.4268 30.3937 15.4268Z" fill="white"/>
</g>
</mask>
<g mask="url(#mask15_1_16229)">
<path id="Vector_32" d="M29.8477 14.3467L30.7518 15.7592L28.8526 16.9759L27.9485 15.5634L29.8477 14.3467Z" fill="#6B3C6A"/>
</g>
</g>
</g>
<g id="Group_17">
<g id="Clip path group_17">
<mask id="mask16_1_16229" style="mask-type:luminance" maskUnits="userSpaceOnUse" x="32" y="1" width="1" height="7">
<g id="SVGID_65_">
<path id="Vector_33" d="M32.2752 7.2281C32.2771 7.2281 32.2791 7.2281 32.2831 7.2281C32.3583 7.2281 32.4196 7.16875 32.4235 7.09357L32.6827 1.75791C32.6867 1.68075 32.6273 1.61547 32.5482 1.61151C32.471 1.6036 32.4057 1.6669 32.4018 1.74604L32.1426 7.0817C32.1367 7.15886 32.196 7.22414 32.2752 7.2281Z" fill="white"/>
</g>
</mask>
<g mask="url(#mask16_1_16229)">
<path id="Vector_34" d="M32.5245 1.35645L35.2388 5.59411L32.297 7.47752L29.5826 3.23985L32.5245 1.35645Z" fill="#6B3C6A"/>
</g>
</g>
</g>
<g id="Group_18">
<g id="Clip path group_18">
<mask id="mask17_1_16229" style="mask-type:luminance" maskUnits="userSpaceOnUse" x="32" y="0" width="3" height="11">
<g id="SVGID_68_">
<path id="Vector_35" d="M32.9676 10.9357C32.9735 10.9357 32.9774 10.9357 32.9834 10.9357C33.0546 10.9357 33.1159 10.8823 33.1238 10.8111L34.2258 0.652135C34.2337 0.574979 34.1783 0.505736 34.1012 0.497823C34.024 0.489909 33.9548 0.545303 33.9468 0.622459L32.8449 10.7814C32.835 10.8585 32.8904 10.9278 32.9676 10.9357Z" fill="white"/>
</g>
</mask>
<g mask="url(#mask17_1_16229)">
<path id="Vector_36" d="M33.8261 -0.146973L38.9758 7.89906L33.2405 11.5709L28.0889 3.52488L33.8261 -0.146973Z" fill="#6B3C6A"/>
</g>
</g>
</g>
<g id="Group_19">
<g id="Clip path group_19">
<mask id="mask18_1_16229" style="mask-type:luminance" maskUnits="userSpaceOnUse" x="36" y="2" width="1" height="3">
<g id="SVGID_71_">
<path id="Vector_37" d="M36.2339 4.28648C36.2438 4.28846 36.2537 4.29043 36.2636 4.29043C36.3288 4.29043 36.3862 4.24493 36.402 4.17964L36.7819 2.44659C36.7997 2.37141 36.7502 2.29624 36.6751 2.27843C36.5999 2.2626 36.5247 2.31009 36.5069 2.38526L36.1271 4.11832C36.1092 4.19547 36.1587 4.27065 36.2339 4.28648Z" fill="white"/>
</g>
</mask>
<g mask="url(#mask18_1_16229)">
<path id="Vector_38" d="M36.5979 1.95166L37.7177 3.70054L36.3111 4.60268L35.1893 2.8538L36.5979 1.95166Z" fill="#6B3C6A"/>
</g>
</g>
</g>
<g id="Group_20">
<g id="Clip path group_20">
<mask id="mask19_1_16229" style="mask-type:luminance" maskUnits="userSpaceOnUse" x="37" y="3" width="3" height="7">
<g id="SVGID_74_">
<path id="Vector_39" d="M37.2567 9.78641C37.2706 9.79036 37.2864 9.79234 37.3002 9.79234C37.3596 9.79234 37.415 9.75476 37.4348 9.6954L39.5239 3.28746C39.5477 3.21426 39.5081 3.13513 39.4349 3.10941C39.3617 3.08567 39.2826 3.12524 39.2568 3.20042L37.1677 9.60836C37.142 9.68353 37.1835 9.76267 37.2567 9.78641Z" fill="white"/>
</g>
</mask>
<g mask="url(#mask19_1_16229)">
<path id="Vector_40" d="M38.8474 1.99561L42.5924 7.84367L37.8423 10.8844L34.0973 5.03636L38.8474 1.99561Z" fill="#6B3C6A"/>
</g>
</g>
</g>
<g id="Group_21">
<g id="Clip path group_21">
<mask id="mask20_1_16229" style="mask-type:luminance" maskUnits="userSpaceOnUse" x="41" y="4" width="2" height="2">
<g id="SVGID_77_">
<path id="Vector_41" d="M41.4112 5.98794C41.429 5.99586 41.4488 5.99981 41.4666 5.99981C41.522 5.99981 41.5734 5.96816 41.5952 5.91475L42.2441 4.41712C42.2757 4.3459 42.2421 4.26281 42.1709 4.23313C42.0997 4.20148 42.0166 4.23511 41.9869 4.30633L41.338 5.80396C41.3083 5.8732 41.34 5.95629 41.4112 5.98794Z" fill="white"/>
</g>
</mask>
<g mask="url(#mask20_1_16229)">
<path id="Vector_42" d="M41.9948 3.76221L43.0908 5.47745L41.5892 6.43894L40.4912 4.72369L41.9948 3.76221Z" fill="#6B3C6A"/>
</g>
</g>
</g>
<g id="Group_22">
<g id="Clip path group_22">
<mask id="mask21_1_16229" style="mask-type:luminance" maskUnits="userSpaceOnUse" x="40" y="2" width="5" height="9">
<g id="SVGID_80_">
<path id="Vector_43" d="M40.8632 10.1541C40.883 10.164 40.9048 10.168 40.9246 10.168C40.976 10.168 41.0255 10.1383 41.0512 10.0889L44.6221 2.78274C44.6558 2.71349 44.6281 2.62842 44.5568 2.59479C44.4876 2.56116 44.4025 2.58886 44.3689 2.66008L40.7979 9.96619C40.7643 10.0354 40.794 10.1205 40.8632 10.1541Z" fill="white"/>
</g>
</mask>
<g mask="url(#mask21_1_16229)">
<path id="Vector_44" d="M43.5241 0.794434L48.11 7.95811L41.8959 11.9366L37.3101 4.77293L43.5241 0.794434Z" fill="#6B3C6A"/>
</g>
</g>
</g>
<g id="Group_23">
<g id="Clip path group_23">
<mask id="mask22_1_16229" style="mask-type:luminance" maskUnits="userSpaceOnUse" x="42" y="6" width="5" height="6">
<g id="SVGID_83_">
<path id="Vector_45" d="M43.0276 11.6302C43.0513 11.6441 43.0751 11.65 43.1008 11.65C43.1483 11.65 43.1938 11.6263 43.2215 11.5828L46.2286 6.64079C46.2682 6.57352 46.2484 6.48845 46.1811 6.44691C46.1139 6.40536 46.0288 6.42712 45.9872 6.49439L42.9801 11.4364C42.9405 11.5036 42.9623 11.5907 43.0276 11.6302Z" fill="white"/>
</g>
</mask>
<g mask="url(#mask22_1_16229)">
<path id="Vector_46" d="M45.3027 4.896L48.6501 10.1268L43.908 13.1616L40.5605 7.93279L45.3027 4.896Z" fill="#6B3C6A"/>
</g>
</g>
</g>
<g id="Group_24">
<g id="Clip path group_24">
<mask id="mask23_1_16229" style="mask-type:luminance" maskUnits="userSpaceOnUse" x="42" y="6" width="7" height="8">
<g id="SVGID_86_">
<path id="Vector_47" d="M42.9741 13.842C42.9978 13.8598 43.0255 13.8678 43.0532 13.8678C43.0987 13.8678 43.1423 13.846 43.17 13.8064L48.288 6.37764C48.3315 6.31434 48.3157 6.22729 48.2524 6.18178C48.1891 6.13826 48.102 6.15409 48.0565 6.2174L42.9385 13.6462C42.895 13.7095 42.9108 13.7965 42.9741 13.842Z" fill="white"/>
</g>
</mask>
<g mask="url(#mask23_1_16229)">
<path id="Vector_48" d="M46.7528 3.66748L51.8412 11.6185L44.4757 16.335L39.3854 8.38391L46.7528 3.66748Z" fill="#6B3C6A"/>
</g>
</g>
</g>
<g id="Group_25">
<g id="Clip path group_25">
<mask id="mask24_1_16229" style="mask-type:luminance" maskUnits="userSpaceOnUse" x="44" y="11" width="4" height="6">
<g id="SVGID_89_">
<path id="Vector_49" d="M47.7024 11.6933L44.4104 15.8222C44.3629 15.8835 44.3728 15.9705 44.4322 16.02C44.4579 16.0398 44.4896 16.0497 44.5192 16.0497C44.5608 16.0497 44.6023 16.0319 44.6281 15.9962L47.9201 11.8674C47.9675 11.8061 47.9576 11.719 47.8983 11.6696C47.8409 11.6221 47.7519 11.632 47.7024 11.6933Z" fill="white"/>
</g>
</mask>
<g mask="url(#mask24_1_16229)">
<path id="Vector_50" d="M46.9229 9.98389L49.9815 14.7617L45.4115 17.6877L42.3529 12.9099L46.9229 9.98389Z" fill="#6B3C6A"/>
</g>
</g>
</g>
<g id="Group_26">
<g id="Clip path group_26">
<mask id="mask25_1_16229" style="mask-type:luminance" maskUnits="userSpaceOnUse" x="48" y="11" width="5" height="5">
<g id="SVGID_92_">
<path id="Vector_51" d="M48.4364 15.5868L52.316 11.7567C52.3714 11.7013 52.3714 11.6123 52.3179 11.5589C52.2645 11.5035 52.1755 11.5035 52.1201 11.5569L48.2405 15.387C48.1851 15.4424 48.1851 15.5315 48.2386 15.5849C48.2662 15.6126 48.3019 15.6264 48.3394 15.6264C48.3731 15.6284 48.4087 15.6145 48.4364 15.5868Z" fill="white"/>
</g>
</mask>
<g mask="url(#mask25_1_16229)">
<path id="Vector_52" d="M51.1546 9.6001L54.2448 14.4273L49.3998 17.5294L46.3096 12.7002L51.1546 9.6001Z" fill="#6B3C6A"/>
</g>
</g>
</g>
<g id="Group_27">
<g id="Clip path group_27">
<mask id="mask26_1_16229" style="mask-type:luminance" maskUnits="userSpaceOnUse" x="46" y="14" width="6" height="5">
<g id="SVGID_95_">
<path id="Vector_53" d="M46.7785 18.6828C46.8062 18.7124 46.8438 18.7283 46.8834 18.7283C46.917 18.7283 46.9506 18.7164 46.9783 18.6927L51.491 14.6073C51.5483 14.5559 51.5523 14.4669 51.5009 14.4095C51.4494 14.3521 51.3604 14.3462 51.303 14.3996L46.7904 18.4849C46.731 18.5364 46.7271 18.6254 46.7785 18.6828Z" fill="white"/>
</g>
</mask>
<g mask="url(#mask26_1_16229)">
<path id="Vector_54" d="M50.1496 12.1562L53.5425 17.4543L48.1297 20.9204L44.7368 15.6204L50.1496 12.1562Z" fill="#6B3C6A"/>
</g>
</g>
</g>
<g id="Group_28">
<g id="Clip path group_28">
<mask id="mask27_1_16229" style="mask-type:luminance" maskUnits="userSpaceOnUse" x="49" y="12" width="8" height="7">
<g id="SVGID_98_">
<path id="Vector_55" d="M49.2219 18.2536C49.2496 18.2872 49.2911 18.305 49.3307 18.305C49.3623 18.305 49.394 18.2951 49.4197 18.2734L56.4726 12.5203C56.532 12.4708 56.5418 12.3818 56.4924 12.3224C56.4429 12.2631 56.3539 12.2532 56.2946 12.3027L49.2417 18.0558C49.1823 18.1052 49.1744 18.1942 49.2219 18.2536Z" fill="white"/>
</g>
</mask>
<g mask="url(#mask27_1_16229)">
<path id="Vector_56" d="M54.4012 8.90771L59.2898 16.5462L51.315 21.6524L46.4244 14.0119L54.4012 8.90771Z" fill="#6B3C6A"/>
</g>
</g>
</g>
<g id="Group_29">
<g id="Clip path group_29">
<mask id="mask28_1_16229" style="mask-type:luminance" maskUnits="userSpaceOnUse" x="49" y="16" width="8" height="6">
<g id="SVGID_101_">
<path id="Vector_57" d="M56.338 16.9339C56.2984 16.8666 56.2114 16.8468 56.1441 16.8884L49.7737 20.8055C49.7085 20.8471 49.6867 20.9322 49.7282 20.9994C49.754 21.043 49.8014 21.0667 49.8489 21.0667C49.8746 21.0667 49.9004 21.0608 49.9221 21.0449L56.2925 17.1278C56.3578 17.0862 56.3775 16.9992 56.338 16.9339Z" fill="white"/>
</g>
</mask>
<g mask="url(#mask28_1_16229)">
<path id="Vector_58" d="M54.4328 13.8081L58.2946 19.8382L51.6334 24.1035L47.7716 18.0735L54.4328 13.8081Z" fill="#6B3C6A"/>
</g>
</g>
</g>
<g id="Group_30">
<g id="Clip path group_30">
<mask id="mask29_1_16229" style="mask-type:luminance" maskUnits="userSpaceOnUse" x="51" y="19" width="7" height="5">
<g id="SVGID_104_">
<path id="Vector_59" d="M51.1567 23.1443C51.1805 23.1958 51.2319 23.2255 51.2853 23.2255C51.3051 23.2255 51.3249 23.2215 51.3447 23.2116L57.8397 20.2322C57.9109 20.2005 57.9406 20.1174 57.9089 20.0462C57.8773 19.975 57.7942 19.9453 57.7229 19.977L51.228 22.9564C51.1548 22.99 51.1231 23.0731 51.1567 23.1443Z" fill="white"/>
</g>
</mask>
<g mask="url(#mask29_1_16229)">
<path id="Vector_60" d="M55.9583 16.8511L59.4283 22.2718L53.1055 26.3196L49.6334 20.8988L55.9583 16.8511Z" fill="#6B3C6A"/>
</g>
</g>
</g>
<g id="Group_31">
<g id="Clip path group_31">
<mask id="mask30_1_16229" style="mask-type:luminance" maskUnits="userSpaceOnUse" x="49" y="24" width="3" height="2">
<g id="SVGID_107_">
<path id="Vector_61" d="M51.6117 24.2125L49.8925 24.8693C49.8193 24.897 49.7837 24.9781 49.8114 25.0513C49.8331 25.1067 49.8866 25.1423 49.942 25.1423C49.9578 25.1423 49.9756 25.1384 49.9914 25.1324L51.7086 24.4756C51.7818 24.4479 51.8174 24.3668 51.7897 24.2936C51.764 24.2204 51.6829 24.1848 51.6117 24.2125Z" fill="white"/>
</g>
</mask>
<g mask="url(#mask30_1_16229)">
<path id="Vector_62" d="M51.2278 23.2588L52.2546 24.8632L50.3752 26.0661L49.3484 24.4616L51.2278 23.2588Z" fill="#6B3C6A"/>
</g>
</g>
</g>
<g id="Group_32">
<g id="Clip path group_32">
<mask id="mask31_1_16229" style="mask-type:luminance" maskUnits="userSpaceOnUse" x="54" y="23" width="6" height="2">
<g id="SVGID_110_">
<path id="Vector_63" d="M54.783 24.7605C54.8028 24.8199 54.8582 24.8595 54.9176 24.8595C54.9314 24.8595 54.9453 24.8575 54.9591 24.8535L59.0069 23.6032C59.082 23.5795 59.1236 23.5023 59.0998 23.4271C59.0761 23.3539 58.9989 23.3104 58.9238 23.3341L54.876 24.5845C54.8009 24.6082 54.7593 24.6873 54.783 24.7605Z" fill="white"/>
</g>
</mask>
<g mask="url(#mask31_1_16229)">
<path id="Vector_64" d="M57.8535 21.3301L59.8259 24.4104L56.0275 26.8418L54.057 23.7615L57.8535 21.3301Z" fill="#6B3C6A"/>
</g>
</g>
</g>
<g id="Group_33">
<g id="Clip path group_33">
<mask id="mask32_1_16229" style="mask-type:luminance" maskUnits="userSpaceOnUse" x="50" y="24" width="13" height="4">
<g id="SVGID_113_">
<path id="Vector_65" d="M61.9962 24.5905C61.9784 24.5154 61.9032 24.4679 61.8261 24.4857L50.8857 27.109C50.8105 27.1268 50.763 27.202 50.7808 27.2791C50.7967 27.3444 50.854 27.386 50.9174 27.386C50.9272 27.386 50.9391 27.386 50.949 27.382L61.8894 24.7587C61.9685 24.7409 62.014 24.6657 61.9962 24.5905Z" fill="white"/>
</g>
</mask>
<g mask="url(#mask32_1_16229)">
<path id="Vector_66" d="M58.7437 19.3599L63.3395 26.5394L54.0352 32.4962L49.4395 25.3167L58.7437 19.3599Z" fill="#6B3C6A"/>
</g>
</g>
</g>
<g id="Group_34">
<g id="Clip path group_34">
<mask id="mask33_1_16229" style="mask-type:luminance" maskUnits="userSpaceOnUse" x="55" y="26" width="5" height="2">
<g id="SVGID_116_">
<path id="Vector_67" d="M59.6973 26.9387L55.6773 27.6054C55.6001 27.6173 55.5487 27.6905 55.5626 27.7677C55.5744 27.8369 55.6338 27.8844 55.701 27.8844C55.709 27.8844 55.7169 27.8844 55.7248 27.8824L59.7429 27.2157C59.82 27.2038 59.8714 27.1306 59.8596 27.0535C59.8457 26.9783 59.7725 26.9249 59.6973 26.9387Z" fill="white"/>
</g>
</mask>
<g mask="url(#mask33_1_16229)">
<path id="Vector_68" d="M58.6152 24.9624L60.3067 27.6055L56.805 29.847L55.1135 27.2039L58.6152 24.9624Z" fill="#6B3C6A"/>
</g>
</g>
</g>
<g id="Group_35">
<g id="Clip path group_35">
<mask id="mask34_1_16229" style="mask-type:luminance" maskUnits="userSpaceOnUse" x="54" y="30" width="7" height="2">
<g id="SVGID_119_">
<path id="Vector_69" d="M60.1266 30.8777C60.1246 30.8006 60.0574 30.7412 59.9822 30.7412L54.3715 30.9015C54.2944 30.9034 54.2331 30.9687 54.235 31.0459C54.237 31.123 54.3003 31.1824 54.3755 31.1824H54.3794L59.9901 31.0221C60.0673 31.0202 60.1286 30.9549 60.1266 30.8777Z" fill="white"/>
</g>
</mask>
<g mask="url(#mask34_1_16229)">
<path id="Vector_70" d="M58.4153 28.0625L60.3284 31.0538L55.9463 33.8591L54.0312 30.8678L58.4153 28.0625Z" fill="#6B3C6A"/>
</g>
</g>
</g>
<g id="Group_36">
<g id="Clip path group_36">
<mask id="mask35_1_16229" style="mask-type:luminance" maskUnits="userSpaceOnUse" x="51" y="32" width="6" height="1">
<g id="SVGID_122_">
<path id="Vector_71" d="M51.4831 32.1914C51.404 32.1914 51.3406 32.2508 51.3387 32.3279C51.3367 32.4051 51.398 32.4704 51.4752 32.4723L56.7594 32.6227H56.7634C56.8385 32.6227 56.9018 32.5633 56.9038 32.4862C56.9058 32.409 56.8445 32.3437 56.7673 32.3418L51.4831 32.1914Z" fill="white"/>
</g>
</mask>
<g mask="url(#mask35_1_16229)">
<path id="Vector_72" d="M55.2875 29.6631L57.1017 32.4981L52.957 35.1511L51.1409 32.3161L55.2875 29.6631Z" fill="#6B3C6A"/>
</g>
</g>
</g>
<g id="Group_37">
<g id="Clip path group_37">
<mask id="mask36_1_16229" style="mask-type:luminance" maskUnits="userSpaceOnUse" x="55" y="35" width="7" height="2">
<g id="SVGID_125_">
<path id="Vector_73" d="M61.7232 36.0531L55.7999 35.2043C55.7228 35.1944 55.6516 35.2459 55.6417 35.323C55.6298 35.4002 55.6832 35.4714 55.7604 35.4813L61.6836 36.33C61.6895 36.33 61.6975 36.332 61.7034 36.332C61.7726 36.332 61.832 36.2806 61.8419 36.2113C61.8537 36.1362 61.8003 36.0649 61.7232 36.0531Z" fill="white"/>
</g>
</mask>
<g mask="url(#mask36_1_16229)">
<path id="Vector_74" d="M60.0436 32.3672L62.3702 36.0015L57.4401 39.1589L55.1135 35.5247L60.0436 32.3672Z" fill="#6B3C6A"/>
</g>
</g>
</g>
<g id="Group_38">
<g id="Clip path group_38">
<mask id="mask37_1_16229" style="mask-type:luminance" maskUnits="userSpaceOnUse" x="51" y="35" width="6" height="3">
<g id="SVGID_128_">
<path id="Vector_75" d="M56.4389 36.791L51.5306 35.8018C51.4534 35.7859 51.3802 35.8354 51.3644 35.9126C51.3486 35.9877 51.398 36.0629 51.4752 36.0787L56.3835 37.0679C56.3934 37.0699 56.4033 37.0699 56.4112 37.0699C56.4765 37.0699 56.5359 37.0244 56.5497 36.9571C56.5636 36.882 56.5141 36.8068 56.4389 36.791Z" fill="white"/>
</g>
</mask>
<g mask="url(#mask37_1_16229)">
<path id="Vector_76" d="M55.0482 33.4199L57.1472 36.6981L52.866 39.4381L50.767 36.16L55.0482 33.4199Z" fill="#6B3C6A"/>
</g>
</g>
</g>
<g id="Group_39">
<g id="Clip path group_39">
<mask id="mask38_1_16229" style="mask-type:luminance" maskUnits="userSpaceOnUse" x="50" y="37" width="11" height="5">
<g id="SVGID_131_">
<path id="Vector_77" d="M50.2763 38.0354C50.2526 38.1086 50.2941 38.1877 50.3673 38.2114L60.095 41.3392C60.1088 41.3432 60.1247 41.3472 60.1385 41.3472C60.1979 41.3472 60.2533 41.3096 60.273 41.2502C60.2968 41.177 60.2552 41.0979 60.182 41.0741L50.4544 37.9463C50.3792 37.9226 50.3001 37.9622 50.2763 38.0354Z" fill="white"/>
</g>
</mask>
<g mask="url(#mask38_1_16229)">
<path id="Vector_78" d="M57.3768 33.3604L61.8518 40.3519L53.1727 45.9091L48.6957 38.9176L57.3768 33.3604Z" fill="#6B3C6A"/>
</g>
</g>
</g>
<g id="Group_40">
<g id="Clip path group_40">
<mask id="mask39_1_16229" style="mask-type:luminance" maskUnits="userSpaceOnUse" x="5" y="4" width="56" height="51">
<g id="SVGID_134_">
<path id="Vector_79" d="M60.8764 43.0958L48.2781 38.3438C48.2682 38.3398 48.2584 38.3398 48.2504 38.3398C48.4878 37.7799 48.6975 37.2082 48.8815 36.6226C48.8934 36.6305 48.9033 36.6364 48.9171 36.6404L52.1676 37.4891C52.1795 37.4931 52.1913 37.4931 52.2032 37.4931C52.2665 37.4931 52.3219 37.4515 52.3397 37.3882C52.3595 37.313 52.314 37.2359 52.2388 37.2161L48.9884 36.3674C48.9765 36.3634 48.9666 36.3654 48.9567 36.3654C49.2337 35.4376 49.4394 34.478 49.572 33.4968C49.5839 33.5027 49.5977 33.5067 49.6115 33.5086L54.0213 33.8865C54.0253 33.8865 54.0293 33.8865 54.0332 33.8865C54.1044 33.8865 54.1677 33.8311 54.1737 33.7579C54.1796 33.6808 54.1222 33.6135 54.0451 33.6056L49.6353 33.2277C49.6254 33.2277 49.6155 33.2297 49.6056 33.2317C49.6946 32.4819 49.7481 31.7222 49.7481 30.9486C49.7481 30.6558 49.7382 30.367 49.7263 30.0781C49.7342 30.0801 49.7401 30.0821 49.7481 30.0821C49.752 30.0821 49.7579 30.0821 49.7619 30.0821L57.25 29.36C57.3272 29.3521 57.3846 29.2828 57.3766 29.2057C57.3687 29.1285 57.2995 29.0731 57.2223 29.0791L49.7322 29.8012C49.7243 29.8012 49.7164 29.8071 49.7085 29.8091C49.574 27.5577 49.0477 25.4092 48.195 23.4348C49.1803 22.9046 54.6505 19.9667 55.2974 19.6185C55.3152 19.6086 55.7307 19.3851 55.7425 19.3791C55.8098 19.3435 55.8375 19.2584 55.8019 19.1892C55.7663 19.12 55.6812 19.0942 55.6139 19.1299C55.61 19.1318 55.1648 19.3712 55.1629 19.3712C54.5199 19.7155 49.1051 22.6256 48.0803 23.1776C47.8152 22.588 47.5224 22.0163 47.1999 21.4604C47.2237 21.4584 47.2454 21.4525 47.2672 21.4386L50.943 18.8331C51.0063 18.7876 51.0221 18.7005 50.9766 18.6372C50.9311 18.5739 50.8441 18.5601 50.7808 18.6036L47.105 21.2071C47.0931 21.217 47.0832 21.2269 47.0753 21.2388C46.3215 19.9746 45.4233 18.8054 44.4065 17.7529C44.4183 17.745 44.4302 17.7391 44.4401 17.7272L52.868 8.25674C52.9194 8.19936 52.9135 8.11034 52.8561 8.0589C52.7987 8.00746 52.7097 8.0134 52.6582 8.07077L44.2304 17.5412C44.2264 17.5472 44.2244 17.5531 44.2205 17.559C43.7813 17.1179 43.3223 16.6965 42.8416 16.2988C42.8435 16.2949 42.8495 16.2949 42.8515 16.2909L45.2591 13.0662C45.3066 13.0028 45.2928 12.9158 45.2314 12.8703C45.1681 12.8248 45.0811 12.8367 45.0356 12.898L42.6279 16.1227C42.6259 16.1247 42.6259 16.1247 42.6259 16.1267C41.8939 15.5391 41.1164 15.003 40.3013 14.5262L44.1651 7.46341C44.2027 7.39615 44.177 7.3091 44.1097 7.27349C44.0424 7.2359 43.9554 7.26162 43.9198 7.32888L40.06 14.3857C39.1994 13.901 38.3012 13.4777 37.3654 13.1295L40.0837 5.95589C40.1114 5.88269 40.0738 5.80158 40.0026 5.77388C39.9294 5.74619 39.8483 5.78378 39.8206 5.855L37.1003 13.0325C36.58 12.8466 36.0498 12.6804 35.5078 12.5399L36.8451 7.64542C36.8649 7.57024 36.8214 7.49308 36.7462 7.4733C36.671 7.45352 36.5939 7.49704 36.5741 7.57222L35.2347 12.4766C34.75 12.3579 34.2594 12.257 33.7609 12.1779L34.8509 5.57209C34.8628 5.49493 34.8114 5.42371 34.7342 5.40986C34.6571 5.39601 34.5858 5.44943 34.572 5.52659L33.4799 12.1363C32.6807 12.0196 31.8636 11.9563 31.0366 11.9444C31.0406 11.9306 31.0446 11.9187 31.0426 11.9049L30.8151 4.87175C30.8131 4.79459 30.7478 4.7293 30.6706 4.73524C30.5935 4.73722 30.5322 4.8025 30.5341 4.87966L30.7577 11.9167C30.7577 11.9246 30.7616 11.9325 30.7636 11.9405C30.7537 11.9405 30.7458 11.9405 30.7359 11.9405C28.6191 11.9405 26.5853 12.2926 24.6821 12.9356C24.6821 12.9198 24.6801 12.9059 24.6742 12.8901L22.5079 7.33086C22.4802 7.25766 22.3971 7.22205 22.3259 7.25172C22.2527 7.27942 22.2171 7.36053 22.2467 7.43373L24.4131 12.993C24.417 13.0048 24.4269 13.0108 24.4348 13.0206C23.8591 13.2244 23.2953 13.4539 22.7453 13.7091C22.7433 13.6933 22.7394 13.6794 22.7314 13.6656L19.018 6.57117C18.9824 6.50192 18.8974 6.4762 18.8281 6.51181C18.7589 6.54742 18.7332 6.6325 18.7688 6.70174L22.4822 13.7962C22.4881 13.8061 22.496 13.81 22.5039 13.8199C21.6473 14.2334 20.8263 14.7102 20.0468 15.2424C20.0428 15.2285 20.0369 15.2147 20.027 15.2028L15.8349 9.63962C15.7874 9.57829 15.7003 9.56444 15.637 9.61192C15.5757 9.6594 15.5618 9.74645 15.6093 9.80778L19.8015 15.371C19.8094 15.3808 19.8213 15.3868 19.8312 15.3947C18.7767 16.1366 17.7994 16.9813 16.917 17.9171C16.9091 17.9013 16.8972 17.8874 16.8834 17.8756L12.1551 14.1088C12.0938 14.0613 12.0067 14.0712 11.9572 14.1305C11.9098 14.1918 11.9197 14.2789 11.979 14.3284L16.7073 18.0952C16.7152 18.1011 16.7251 18.1051 16.733 18.109C16.3275 18.5502 15.9456 19.0112 15.5836 19.4879C15.5737 19.4741 15.5638 19.4622 15.548 19.4543L9.90766 15.7646C9.84237 15.7231 9.75532 15.7409 9.71378 15.8042C9.67025 15.8695 9.69004 15.9566 9.75334 15.9981L15.3937 19.6878C15.4036 19.6937 15.4154 19.6937 15.4253 19.6976C15.0692 20.1804 14.7349 20.6809 14.4243 21.1992C14.4144 21.1893 14.4025 21.1775 14.3906 21.1715L6.97571 17.1891C6.90647 17.1515 6.8214 17.1772 6.78579 17.2464C6.7482 17.3157 6.77392 17.4008 6.84316 17.4364L14.2581 21.4188C14.27 21.4248 14.2818 21.4248 14.2937 21.4287C13.4707 22.8452 12.8238 24.3765 12.3866 25.9948C12.3747 25.9869 12.3608 25.9809 12.347 25.977L7.99457 25.0234C7.9194 25.0056 7.84422 25.0551 7.82641 25.1302C7.81059 25.2074 7.85807 25.2806 7.93324 25.2984L12.2857 26.252C12.2955 26.254 12.3035 26.254 12.3134 26.254C12.2481 26.5092 12.1887 26.7683 12.1353 27.0275C12.1234 27.0216 12.1116 27.0156 12.0977 27.0137L5.70956 25.9889C5.6324 25.977 5.56118 26.0284 5.54931 26.1056C5.53744 26.1827 5.58888 26.254 5.66603 26.2658L12.0542 27.2926C12.0621 27.2946 12.07 27.2946 12.076 27.2946C12.0779 27.2946 12.0799 27.2926 12.0839 27.2926C11.8524 28.4776 11.7278 29.7003 11.7278 30.9526C11.7278 32.5709 11.9315 34.1417 12.3153 35.6433C12.3015 35.6433 12.2896 35.6433 12.2758 35.6473L6.73435 37.3368C6.65917 37.3605 6.61763 37.4377 6.64137 37.5129C6.65917 37.5742 6.71655 37.6118 6.7759 37.6118C6.78975 37.6118 6.80359 37.6098 6.81744 37.6058L12.3589 35.9163C12.3687 35.9124 12.3786 35.9064 12.3866 35.9005C12.6378 36.8343 12.9603 37.7384 13.3461 38.6109C13.3302 38.6128 13.3164 38.6148 13.3025 38.6227L10.1292 40.2054C10.06 40.2391 10.0323 40.3241 10.0659 40.3934C10.0916 40.4428 10.1411 40.4705 10.1925 40.4705C10.2143 40.4705 10.2341 40.4666 10.2558 40.4547L13.4292 38.872C13.441 38.8661 13.4489 38.8582 13.4569 38.8502C14.1433 40.3479 15.0158 41.7426 16.0505 43.0009C16.0366 43.0068 16.0248 43.0127 16.0129 43.0246L11.8247 46.8092C11.7673 46.8607 11.7634 46.9497 11.8148 47.0071C11.8425 47.0367 11.8801 47.0526 11.9197 47.0526C11.9533 47.0526 11.9869 47.0407 12.0146 47.0169L16.2028 43.2323C16.2127 43.2244 16.2187 43.2125 16.2246 43.2027C16.6124 43.6597 17.0199 44.0989 17.4472 44.5183C17.4334 44.5262 17.4195 44.5341 17.4096 44.546L14.4975 47.8103C14.446 47.8676 14.452 47.9567 14.5093 48.0081C14.5351 48.0319 14.5687 48.0437 14.6023 48.0437C14.6419 48.0437 14.6795 48.0279 14.7072 47.9962L17.6193 44.7319C17.6273 44.722 17.6332 44.7102 17.6391 44.6983C18.0724 45.1118 18.5254 45.5035 18.9963 45.8754C18.9824 45.8853 18.9706 45.8952 18.9607 45.9091L15.8724 50.2318C15.8269 50.2951 15.8428 50.3822 15.9041 50.4277C15.9298 50.4455 15.9575 50.4534 15.9852 50.4534C16.0287 50.4534 16.0723 50.4336 16.1 50.394L19.1882 46.0713C19.1961 46.0614 19.1981 46.0495 19.202 46.0377C20.7689 47.2385 22.5277 48.2 24.423 48.8707C24.415 48.8825 24.4071 48.8944 24.4012 48.9102L23.044 53.4328C23.0223 53.508 23.0638 53.5851 23.139 53.6069C23.1528 53.6109 23.1667 53.6128 23.1786 53.6128C23.2399 53.6128 23.2953 53.5733 23.3131 53.5119L24.6702 48.9894C24.6742 48.9775 24.6722 48.9656 24.6742 48.9557C26.5814 49.6007 28.6191 49.9548 30.7419 49.9548C31.8636 49.9548 32.9596 49.852 34.0279 49.664C34.026 49.6779 34.026 49.6917 34.0279 49.7075L35.1734 54.8434C35.1873 54.9087 35.2466 54.9542 35.3099 54.9542C35.3198 54.9542 35.3297 54.9522 35.3396 54.9502C35.4148 54.9324 35.4623 54.8572 35.4464 54.782L34.301 49.6462C34.299 49.6363 34.293 49.6264 34.2891 49.6185C36.6493 49.1714 38.8552 48.2871 40.8217 47.0506C40.8256 47.0664 40.8316 47.0803 40.8414 47.0941L43.9079 51.5039C43.9356 51.5435 43.9791 51.5632 44.0227 51.5632C44.0504 51.5632 44.0781 51.5553 44.1038 51.5375C44.1671 51.494 44.1829 51.405 44.1394 51.3417L41.0729 46.9319C41.065 46.922 41.0551 46.9141 41.0452 46.9062C41.8385 46.3918 42.5923 45.82 43.2986 45.1968C43.3045 45.2107 43.3124 45.2245 43.3243 45.2364L46.4818 48.4948C46.5095 48.5245 46.5471 48.5383 46.5827 48.5383C46.6183 48.5383 46.6539 48.5245 46.6796 48.4987C46.735 48.4453 46.737 48.3563 46.6836 48.3009L43.5241 45.0425C43.5162 45.0346 43.5063 45.0287 43.4964 45.0228C44.45 44.1582 45.3126 43.1987 46.0742 42.1581C46.0841 42.1699 46.094 42.1818 46.1079 42.1917L49.392 44.3699C49.4157 44.3857 49.4434 44.3936 49.4691 44.3936C49.5146 44.3936 49.5601 44.3719 49.5858 44.3303C49.6294 44.265 49.6116 44.178 49.5463 44.1345L46.2622 41.9563C46.2503 41.9484 46.2384 41.9464 46.2266 41.9424C46.9744 40.8939 47.6174 39.7662 48.1436 38.5752C48.1555 38.5851 48.1673 38.595 48.1832 38.601L60.7814 43.353C60.7973 43.3589 60.8151 43.3629 60.8309 43.3629C60.8883 43.3629 60.9417 43.3293 60.9634 43.2719C60.9872 43.2046 60.9496 43.1235 60.8764 43.0958ZM30.734 49.6779C20.4069 49.6779 12.0047 41.2757 12.0047 30.9486C12.0047 20.6215 20.4069 12.2194 30.734 12.2194C32.3008 12.2194 33.8202 12.4153 35.2763 12.7793C35.2802 12.7813 35.2842 12.7852 35.2882 12.7852C35.3 12.7892 35.3119 12.7892 35.3218 12.7892C43.4371 14.8408 49.4632 22.2042 49.4632 30.9467C49.4632 41.2757 41.061 49.6779 30.734 49.6779Z" fill="white"/>
</g>
</mask>
<g mask="url(#mask39_1_16229)">
<path id="Vector_80" d="M44.8674 -20.4512L83.7958 40.356L21.6552 80.137L-17.2732 19.3299L44.8674 -20.4512Z" fill="#6B3C6A"/>
</g>
</g>
</g>
<g id="Group_41">
<g id="Clip path group_41">
<mask id="mask40_1_16229" style="mask-type:luminance" maskUnits="userSpaceOnUse" x="49" y="40" width="6" height="3">
<g id="SVGID_137_">
<path id="Vector_81" d="M53.8156 42.2789C53.8354 42.2868 53.8532 42.2907 53.8729 42.2907C53.9264 42.2907 53.9778 42.2611 54.0015 42.2076C54.0332 42.1364 54.0015 42.0533 53.9303 42.0217L49.7283 40.1363C49.657 40.1046 49.574 40.1363 49.5423 40.2075C49.5106 40.2787 49.5423 40.3618 49.6135 40.3935L53.8156 42.2789Z" fill="white"/>
</g>
</mask>
<g mask="url(#mask40_1_16229)">
<path id="Vector_82" d="M52.7175 38.0513L55.0243 41.6559L50.8242 44.3445L48.5175 40.7419L52.7175 38.0513Z" fill="#6B3C6A"/>
</g>
</g>
</g>
<g id="Group_42">
<g id="Clip path group_42">
<mask id="mask41_1_16229" style="mask-type:luminance" maskUnits="userSpaceOnUse" x="47" y="40" width="9" height="5">
<g id="SVGID_140_">
<path id="Vector_83" d="M47.8627 40.629C47.827 40.6983 47.8528 40.7834 47.922 40.819L55.0362 44.5422C55.058 44.5521 55.0797 44.5581 55.1015 44.5581C55.1529 44.5581 55.2004 44.5304 55.2261 44.4829C55.2618 44.4137 55.236 44.3286 55.1668 44.293L48.0526 40.5697C47.9833 40.5341 47.8983 40.5598 47.8627 40.629Z" fill="white"/>
</g>
</mask>
<g mask="url(#mask41_1_16229)">
<path id="Vector_84" d="M53.0994 37.1572L57.0898 43.3891L49.9874 47.9354L45.999 41.7035L53.0994 37.1572Z" fill="#6B3C6A"/>
</g>
</g>
</g>
<g id="Group_43">
<g id="Clip path group_43">
<mask id="mask42_1_16229" style="mask-type:luminance" maskUnits="userSpaceOnUse" x="48" y="42" width="11" height="6">
<g id="SVGID_143_">
<path id="Vector_85" d="M57.986 47.6561L49.1744 42.4807C49.1071 42.4411 49.022 42.4628 48.9825 42.5301C48.9429 42.5974 48.9647 42.6824 49.0319 42.722L57.8436 47.8974C57.8654 47.9113 57.8911 47.9172 57.9148 47.9172C57.9623 47.9172 58.0098 47.8915 58.0355 47.848C58.0751 47.7807 58.0533 47.6956 57.986 47.6561Z" fill="white"/>
</g>
</mask>
<g mask="url(#mask42_1_16229)">
<path id="Vector_86" d="M55.4221 38.2944L60.5619 46.3266L51.598 52.0639L46.4562 44.0337L55.4221 38.2944Z" fill="#6B3C6A"/>
</g>
</g>
</g>
<g id="Group_44">
<g id="Clip path group_44">
<mask id="mask43_1_16229" style="mask-type:luminance" maskUnits="userSpaceOnUse" x="47" y="44" width="3" height="3">
<g id="SVGID_146_">
<path id="Vector_87" d="M49.7165 46.2139C49.76 46.2139 49.8035 46.1941 49.8312 46.1565C49.8767 46.0932 49.8629 46.0062 49.7996 45.9607L47.3365 44.1742C47.2732 44.1287 47.1861 44.1426 47.1406 44.2059C47.0951 44.2692 47.109 44.3562 47.1723 44.4017L49.6354 46.1882C49.6591 46.206 49.6868 46.2139 49.7165 46.2139Z" fill="white"/>
</g>
</mask>
<g mask="url(#mask43_1_16229)">
<path id="Vector_88" d="M49.0675 42.8667L50.8223 45.6087L47.9023 47.4763L46.1475 44.7363L49.0675 42.8667Z" fill="#6B3C6A"/>
</g>
</g>
</g>
<g id="Group_45">
<g id="Clip path group_45">
<mask id="mask44_1_16229" style="mask-type:luminance" maskUnits="userSpaceOnUse" x="50" y="48" width="3" height="3">
<g id="SVGID_149_">
<path id="Vector_89" d="M50.8045 48.428C50.7452 48.3785 50.6561 48.3864 50.6067 48.4458C50.5572 48.5051 50.5651 48.5942 50.6245 48.6436L52.6503 50.3272C52.6761 50.349 52.7077 50.3589 52.7394 50.3589C52.7789 50.3589 52.8205 50.3411 52.8482 50.3074C52.8976 50.2481 52.8897 50.1591 52.8304 50.1096L50.8045 48.428Z" fill="white"/>
</g>
</mask>
<g mask="url(#mask44_1_16229)">
<path id="Vector_90" d="M52.2191 47.3164L53.7998 49.7854L51.2378 51.4255L49.6571 48.9565L52.2191 47.3164Z" fill="#6B3C6A"/>
</g>
</g>
</g>
<g id="Group_46">
<g id="Clip path group_46">
<mask id="mask45_1_16229" style="mask-type:luminance" maskUnits="userSpaceOnUse" x="46" y="46" width="5" height="4">
<g id="SVGID_152_">
<path id="Vector_91" d="M46.3038 46.2218C46.2464 46.1684 46.1574 46.1723 46.1059 46.2297C46.0525 46.2871 46.0565 46.3761 46.1139 46.4275L49.8985 49.9332C49.9262 49.9589 49.9598 49.9708 49.9934 49.9708C50.031 49.9708 50.0686 49.955 50.0963 49.9253C50.1497 49.8679 50.1458 49.7789 50.0884 49.7275L46.3038 46.2218Z" fill="white"/>
</g>
</mask>
<g mask="url(#mask45_1_16229)">
<path id="Vector_92" d="M48.9568 44.3086L51.8729 48.8648L47.2416 51.8304L44.3254 47.2742L48.9568 44.3086Z" fill="#6B3C6A"/>
</g>
</g>
</g>
<g id="Group_47">
<g id="Clip path group_47">
<mask id="mask46_1_16229" style="mask-type:luminance" maskUnits="userSpaceOnUse" x="46" y="50" width="4" height="4">
<g id="SVGID_155_">
<path id="Vector_93" d="M46.6044 50.1689C46.553 50.1096 46.4659 50.1036 46.4066 50.1551C46.3472 50.2065 46.3413 50.2955 46.3927 50.3529L49.2317 53.6152C49.2594 53.6469 49.299 53.6627 49.3385 53.6627C49.3702 53.6627 49.4038 53.6508 49.4315 53.6291C49.4909 53.5776 49.4968 53.4886 49.4454 53.4313L46.6044 50.1689Z" fill="white"/>
</g>
</mask>
<g mask="url(#mask46_1_16229)">
<path id="Vector_94" d="M48.5788 48.6733L51.1112 52.6301L47.2593 55.0971L44.725 51.1384L48.5788 48.6733Z" fill="#6B3C6A"/>
</g>
</g>
</g>
<g id="Group_48">
<g id="Clip path group_48">
<mask id="mask47_1_16229" style="mask-type:luminance" maskUnits="userSpaceOnUse" x="42" y="47" width="3" height="3">
<g id="SVGID_158_">
<path id="Vector_95" d="M42.4241 47.2152C42.3628 47.2627 42.3509 47.3517 42.3984 47.413L43.9574 49.427C43.9851 49.4626 44.0266 49.4824 44.0682 49.4824C44.0978 49.4824 44.1295 49.4725 44.1532 49.4527C44.2146 49.4052 44.2264 49.3162 44.179 49.2549L42.62 47.2409C42.5725 47.1796 42.4855 47.1677 42.4241 47.2152Z" fill="white"/>
</g>
</mask>
<g mask="url(#mask47_1_16229)">
<path id="Vector_96" d="M43.6824 46.3169L45.2769 48.8096L42.897 50.333L41.3004 47.8402L43.6824 46.3169Z" fill="#6B3C6A"/>
</g>
</g>
</g>
<g id="Group_49">
<g id="Clip path group_49">
<mask id="mask48_1_16229" style="mask-type:luminance" maskUnits="userSpaceOnUse" x="41" y="49" width="6" height="9">
<g id="SVGID_161_">
<path id="Vector_97" d="M41.7041 49.9471C41.6645 49.8799 41.5775 49.8601 41.5122 49.8996C41.4449 49.9392 41.4251 50.0263 41.4647 50.0935L46.2306 57.9219C46.2563 57.9655 46.3038 57.9892 46.3513 57.9892C46.377 57.9892 46.4007 57.9833 46.4245 57.9694C46.4917 57.9298 46.5115 57.8428 46.472 57.7755L41.7041 49.9471Z" fill="white"/>
</g>
</mask>
<g mask="url(#mask48_1_16229)">
<path id="Vector_98" d="M45.0337 47.5493L50.2032 55.625L42.903 60.2979L37.7335 52.2222L45.0337 47.5493Z" fill="#6B3C6A"/>
</g>
</g>
</g>
<g id="Group_50">
<g id="Clip path group_50">
<mask id="mask49_1_16229" style="mask-type:luminance" maskUnits="userSpaceOnUse" x="39" y="49" width="4" height="5">
<g id="SVGID_164_">
<path id="Vector_99" d="M39.9473 49.2212C39.9097 49.1539 39.8246 49.1282 39.7574 49.1658C39.6881 49.2034 39.6644 49.2885 39.702 49.3557L42.0325 53.6389C42.0582 53.6864 42.1057 53.7121 42.1571 53.7121C42.1789 53.7121 42.2026 53.7061 42.2244 53.6943C42.2917 53.6567 42.3174 53.5716 42.2798 53.5024L39.9473 49.2212Z" fill="white"/>
</g>
</mask>
<g mask="url(#mask49_1_16229)">
<path id="Vector_100" d="M41.5439 47.9233L44.3967 52.3786L40.434 54.9149L37.5812 50.4596L41.5439 47.9233Z" fill="#6B3C6A"/>
</g>
</g>
</g>
<g id="Group_51">
<g id="Clip path group_51">
<mask id="mask50_1_16229" style="mask-type:luminance" maskUnits="userSpaceOnUse" x="40" y="53" width="3" height="4">
<g id="SVGID_167_">
<path id="Vector_101" d="M40.6536 53.3181C40.6199 53.2488 40.5368 53.2172 40.4656 53.2508C40.3944 53.2844 40.3647 53.3675 40.3984 53.4388L41.8109 56.4142C41.8347 56.4637 41.8861 56.4953 41.9375 56.4953C41.9573 56.4953 41.9791 56.4914 41.9969 56.4815C42.0681 56.4479 42.0978 56.3648 42.0641 56.2935L40.6536 53.3181Z" fill="white"/>
</g>
</mask>
<g mask="url(#mask50_1_16229)">
<path id="Vector_102" d="M41.5953 52.4316L43.5876 55.5436L40.8693 57.2826L38.879 54.1706L41.5953 52.4316Z" fill="#6B3C6A"/>
</g>
</g>
</g>
<g id="Group_52">
<g id="Clip path group_52">
<mask id="mask51_1_16229" style="mask-type:luminance" maskUnits="userSpaceOnUse" x="38" y="50" width="4" height="10">
<g id="SVGID_170_">
<path id="Vector_103" d="M38.4496 51.0746C38.4219 51.0034 38.3408 50.9658 38.2676 50.9935C38.1944 51.0212 38.1588 51.1023 38.1865 51.1755L41.3756 59.4748C41.3974 59.5302 41.4508 59.5638 41.5062 59.5638C41.524 59.5638 41.5398 59.5599 41.5557 59.5539C41.6289 59.5262 41.6645 59.4451 41.6368 59.3719L38.4496 51.0746Z" fill="white"/>
</g>
</mask>
<g mask="url(#mask51_1_16229)">
<path id="Vector_104" d="M40.6456 49.375L45.5698 57.0649L39.1777 61.1562L34.2555 53.4663L40.6456 49.375Z" fill="#6B3C6A"/>
</g>
</g>
</g>
<g id="Group_53">
<g id="Clip path group_53">
<mask id="mask52_1_16229" style="mask-type:luminance" maskUnits="userSpaceOnUse" x="36" y="49" width="2" height="5">
<g id="SVGID_173_">
<path id="Vector_105" d="M37.7512 53.9179C37.7671 53.9179 37.7829 53.9159 37.7987 53.91C37.8719 53.8842 37.9095 53.8031 37.8838 53.7299L36.4495 49.7455C36.4237 49.6723 36.3426 49.6347 36.2694 49.6604C36.1962 49.6861 36.1586 49.7673 36.1844 49.8405L37.6187 53.8249C37.6385 53.8823 37.6939 53.9179 37.7512 53.9179Z" fill="white"/>
</g>
</mask>
<g mask="url(#mask52_1_16229)">
<path id="Vector_106" d="M37.401 48.8394L39.8542 52.6734L36.667 54.7131L34.2139 50.8791L37.401 48.8394Z" fill="#6B3C6A"/>
</g>
</g>
</g>
<g id="Group_54">
<g id="Clip path group_54">
<mask id="mask53_1_16229" style="mask-type:luminance" maskUnits="userSpaceOnUse" x="36" y="52" width="3" height="8">
<g id="SVGID_176_">
<path id="Vector_107" d="M36.3051 52.8394C36.2833 52.7642 36.2062 52.7207 36.131 52.7424C36.0558 52.7642 36.0123 52.8413 36.034 52.9145L37.8739 59.5183C37.8917 59.5797 37.9471 59.6212 38.0104 59.6212C38.0223 59.6212 38.0362 59.6192 38.048 59.6153C38.1232 59.5935 38.1667 59.5164 38.145 59.4432L36.3051 52.8394Z" fill="white"/>
</g>
</mask>
<g mask="url(#mask53_1_16229)">
<path id="Vector_108" d="M37.5396 51.7432L41.2985 57.615L36.6394 60.5983L32.8805 54.7265L37.5396 51.7432Z" fill="#6B3C6A"/>
</g>
</g>
</g>
<g id="Group_55">
<g id="Clip path group_55">
<mask id="mask54_1_16229" style="mask-type:luminance" maskUnits="userSpaceOnUse" x="33" y="54" width="2" height="5">
<g id="SVGID_179_">
<path id="Vector_109" d="M33.7866 54.0624C33.7095 54.0742 33.658 54.1474 33.6699 54.2246L34.3762 58.5256C34.3881 58.5948 34.4474 58.6443 34.5147 58.6443C34.5226 58.6443 34.5305 58.6443 34.5384 58.6423C34.6156 58.6304 34.667 58.5572 34.6551 58.48L33.9489 54.1791C33.935 54.0999 33.8618 54.0465 33.7866 54.0624Z" fill="white"/>
</g>
</mask>
<g mask="url(#mask54_1_16229)">
<path id="Vector_110" d="M34.3743 53.5894L36.7543 57.3067L33.9509 59.1011L31.5709 55.3837L34.3743 53.5894Z" fill="#6B3C6A"/>
</g>
</g>
</g>
<g id="Group_56">
<g id="Clip path group_56">
<mask id="mask55_1_16229" style="mask-type:luminance" maskUnits="userSpaceOnUse" x="32" y="52" width="2" height="11">
<g id="SVGID_182_">
<path id="Vector_111" d="M32.3246 52.903C32.2475 52.911 32.1901 52.9802 32.198 53.0574L33.112 62.3913C33.1199 62.4645 33.1793 62.5179 33.2525 62.5179C33.2564 62.5179 33.2624 62.5179 33.2663 62.5179C33.3435 62.51 33.4008 62.4408 33.3929 62.3636L32.4789 53.0297C32.469 52.9525 32.4018 52.8991 32.3246 52.903Z" fill="white"/>
</g>
</mask>
<g mask="url(#mask55_1_16229)">
<path id="Vector_112" d="M33.0468 52.3511L37.7652 59.7225L32.5403 63.0659L27.8219 55.6965L33.0468 52.3511Z" fill="#6B3C6A"/>
</g>
</g>
</g>
<g id="Group_57">
<g id="Clip path group_57">
<mask id="mask56_1_16229" style="mask-type:luminance" maskUnits="userSpaceOnUse" x="30" y="54" width="2" height="8">
<g id="SVGID_185_">
<path id="Vector_113" d="M31.0979 54.7485C31.0208 54.7524 30.9614 54.8197 30.9654 54.8968L31.3828 61.831C31.3868 61.9062 31.4501 61.9636 31.5233 61.9636C31.5253 61.9636 31.5292 61.9636 31.5312 61.9636C31.6084 61.9596 31.6677 61.8924 31.6638 61.8152L31.2463 54.881C31.2424 54.8019 31.1751 54.7366 31.0979 54.7485Z" fill="white"/>
</g>
</mask>
<g mask="url(#mask56_1_16229)">
<path id="Vector_114" d="M31.4639 54.416L34.9518 59.8625L31.1672 62.286L27.6813 56.8375L31.4639 54.416Z" fill="#6B3C6A"/>
</g>
</g>
</g>
<g id="Group_58">
<g id="Clip path group_58">
<mask id="mask57_1_16229" style="mask-type:luminance" maskUnits="userSpaceOnUse" x="29" y="50" width="1" height="7">
<g id="SVGID_188_">
<path id="Vector_115" d="M29.7844 50.77C29.7052 50.77 29.6439 50.8314 29.6419 50.9085L29.5984 56.1255C29.5984 56.2026 29.6597 56.2659 29.7369 56.2679H29.7389C29.816 56.2679 29.8793 56.2066 29.8793 56.1294L29.9228 50.9125C29.9248 50.8333 29.8615 50.77 29.7844 50.77Z" fill="white"/>
</g>
</mask>
<g mask="url(#mask57_1_16229)">
<path id="Vector_116" d="M29.8299 50.6216L32.4195 54.6693L29.6933 56.4162L27.1017 52.3685L29.8299 50.6216Z" fill="#6B3C6A"/>
</g>
</g>
</g>
<g id="Group_59">
<g id="Clip path group_59">
<mask id="mask58_1_16229" style="mask-type:luminance" maskUnits="userSpaceOnUse" x="28" y="53" width="1" height="6">
<g id="SVGID_191_">
<path id="Vector_117" d="M28.4371 53.8091C28.3599 53.7992 28.2926 53.8645 28.2887 53.9417L28.0078 58.757C28.0038 58.8342 28.0631 58.9014 28.1403 58.9054C28.1423 58.9054 28.1462 58.9054 28.1482 58.9054C28.2214 58.9054 28.2847 58.848 28.2887 58.7728L28.5696 53.9575C28.5736 53.8803 28.5142 53.815 28.4371 53.8091Z" fill="white"/>
</g>
</mask>
<g mask="url(#mask58_1_16229)">
<path id="Vector_118" d="M28.4074 53.542L30.8903 57.4216L28.168 59.1645L25.6852 55.2849L28.4074 53.542Z" fill="#6B3C6A"/>
</g>
</g>
</g>
<g id="Group_60">
<g id="Clip path group_60">
<mask id="mask59_1_16229" style="mask-type:luminance" maskUnits="userSpaceOnUse" x="26" y="50" width="2" height="7">
<g id="SVGID_194_">
<path id="Vector_119" d="M27.622 50.2556C27.5468 50.2457 27.4756 50.2991 27.4637 50.3763L26.6308 56.6259C26.6209 56.7031 26.6743 56.7743 26.7515 56.7842C26.7574 56.7842 26.7634 56.7862 26.7713 56.7862C26.8405 56.7862 26.9019 56.7347 26.9098 56.6635L27.7427 50.4138C27.7526 50.3367 27.6991 50.2655 27.622 50.2556Z" fill="white"/>
</g>
</mask>
<g mask="url(#mask59_1_16229)">
<path id="Vector_120" d="M27.4241 49.7314L30.7221 54.8831L26.9493 57.2967L23.6514 52.1451L27.4241 49.7314Z" fill="#6B3C6A"/>
</g>
</g>
</g>
<g id="Group_61">
<g id="Clip path group_61">
<mask id="mask60_1_16229" style="mask-type:luminance" maskUnits="userSpaceOnUse" x="24" y="52" width="3" height="10">
<g id="SVGID_197_">
<path id="Vector_121" d="M25.974 52.8197C25.8968 52.8059 25.8236 52.8553 25.8098 52.9325L24.1974 61.5502C24.1835 61.6274 24.233 61.7006 24.3102 61.7145C24.3181 61.7164 24.328 61.7164 24.3359 61.7164C24.4031 61.7164 24.4605 61.669 24.4744 61.6017L26.0867 52.9859C26.1006 52.9068 26.0491 52.8336 25.974 52.8197Z" fill="white"/>
</g>
</mask>
<g mask="url(#mask60_1_16229)">
<path id="Vector_122" d="M25.5427 51.9355L30.1464 59.1249L24.7395 62.5851L20.1378 55.3957L25.5427 51.9355Z" fill="#6B3C6A"/>
</g>
</g>
</g>
<g id="Group_62">
<g id="Clip path group_62">
<mask id="mask61_1_16229" style="mask-type:luminance" maskUnits="userSpaceOnUse" x="23" y="55" width="2" height="5">
<g id="SVGID_200_">
<path id="Vector_123" d="M24.1044 55.2431C24.0292 55.2253 23.9521 55.2708 23.9343 55.348L23.0163 59.1761C22.9985 59.2513 23.044 59.3265 23.1192 59.3462C23.1311 59.3482 23.1409 59.3502 23.1528 59.3502C23.2161 59.3502 23.2735 59.3067 23.2893 59.2434L24.2073 55.4152C24.2271 55.3361 24.1796 55.2609 24.1044 55.2431Z" fill="white"/>
</g>
</mask>
<g mask="url(#mask61_1_16229)">
<path id="Vector_124" d="M23.869 54.6675L26.0986 58.1494L23.3546 59.9062L21.125 56.4243L23.869 54.6675Z" fill="#6B3C6A"/>
</g>
</g>
</g>
<g id="Group_63">
<g id="Clip path group_63">
<mask id="mask62_1_16229" style="mask-type:luminance" maskUnits="userSpaceOnUse" x="19" y="53" width="4" height="7">
<g id="SVGID_203_">
<path id="Vector_125" d="M21.9164 53.0989C21.8432 53.0732 21.762 53.1108 21.7363 53.182L19.5878 59.0875C19.5621 59.1607 19.5997 59.2418 19.6709 59.2675C19.6867 59.2734 19.7026 59.2754 19.7184 59.2754C19.7758 59.2754 19.8292 59.2398 19.8509 59.1824L21.9994 53.277C22.0252 53.2058 21.9876 53.1266 21.9164 53.0989Z" fill="white"/>
</g>
</mask>
<g mask="url(#mask62_1_16229)">
<path id="Vector_126" d="M21.309 51.9536L24.8443 57.4752L20.2783 60.3973L16.7429 54.8776L21.309 51.9536Z" fill="#6B3C6A"/>
</g>
</g>
</g>
<g id="Group_64">
<g id="Clip path group_64">
<mask id="mask63_1_16229" style="mask-type:luminance" maskUnits="userSpaceOnUse" x="19" y="50" width="3" height="6">
<g id="SVGID_206_">
<path id="Vector_127" d="M21.4238 50.9108C21.3526 50.8792 21.2695 50.9128 21.2398 50.986L19.3109 55.5165C19.2812 55.5877 19.3129 55.6708 19.3861 55.7005C19.4039 55.7084 19.4217 55.7123 19.4414 55.7123C19.4968 55.7123 19.5483 55.6807 19.57 55.6273L21.4989 51.0968C21.5286 51.0236 21.495 50.9405 21.4238 50.9108Z" fill="white"/>
</g>
</mask>
<g mask="url(#mask63_1_16229)">
<path id="Vector_128" d="M20.8757 49.8584L23.7226 54.3058L19.934 56.7313L17.0872 52.2839L20.8757 49.8584Z" fill="#6B3C6A"/>
</g>
</g>
</g>
<g id="Group_65">
<g id="Clip path group_65">
<mask id="mask64_1_16229" style="mask-type:luminance" maskUnits="userSpaceOnUse" x="17" y="51" width="3" height="5">
<g id="SVGID_209_">
<path id="Vector_129" d="M19.5917 51.9076C19.5225 51.872 19.4374 51.8997 19.4018 51.9709L17.5006 55.7496C17.465 55.8188 17.4947 55.9039 17.5639 55.9375C17.5837 55.9474 17.6055 55.9534 17.6272 55.9534C17.6787 55.9534 17.7281 55.9257 17.7538 55.8762L19.6551 52.0975C19.6887 52.0263 19.661 51.9412 19.5917 51.9076Z" fill="white"/>
</g>
</mask>
<g mask="url(#mask64_1_16229)">
<path id="Vector_130" d="M19.0438 50.8633L21.5425 54.7666L18.112 56.9626L15.6133 53.0573L19.0438 50.8633Z" fill="#6B3C6A"/>
</g>
</g>
</g>
<g id="Group_66">
<g id="Clip path group_66">
<mask id="mask65_1_16229" style="mask-type:luminance" maskUnits="userSpaceOnUse" x="17" y="48" width="4" height="5">
<g id="SVGID_212_">
<path id="Vector_131" d="M17.6709 52.6815C17.6926 52.6934 17.7164 52.6993 17.7401 52.6993C17.7896 52.6993 17.837 52.6736 17.8628 52.6281L20.1161 48.6199C20.1537 48.5526 20.13 48.4656 20.0627 48.428C19.9954 48.3904 19.9084 48.4141 19.8708 48.4814L17.6174 52.4896C17.5798 52.5588 17.6036 52.6439 17.6709 52.6815Z" fill="white"/>
</g>
</mask>
<g mask="url(#mask65_1_16229)">
<path id="Vector_132" d="M19.4058 47.2212L22.1103 51.447L18.3276 53.8685L15.6212 49.6427L19.4058 47.2212Z" fill="#6B3C6A"/>
</g>
</g>
</g>
<g id="Group_67">
<g id="Clip path group_67">
<mask id="mask66_1_16229" style="mask-type:luminance" maskUnits="userSpaceOnUse" x="13" y="49" width="5" height="8">
<g id="SVGID_215_">
<path id="Vector_133" d="M17.7737 49.9489C17.7084 49.9074 17.6214 49.9272 17.5798 49.9944L13.4233 56.6417C13.3817 56.707 13.4015 56.7941 13.4668 56.8356C13.4905 56.8495 13.5162 56.8574 13.542 56.8574C13.5894 56.8574 13.6349 56.8337 13.6607 56.7921L17.8172 50.1448C17.8588 50.0775 17.839 49.9905 17.7737 49.9489Z" fill="white"/>
</g>
</mask>
<g mask="url(#mask66_1_16229)">
<path id="Vector_134" d="M16.557 47.8755L21.0142 54.8354L14.6834 58.8871L10.2281 51.9272L16.557 47.8755Z" fill="#6B3C6A"/>
</g>
</g>
</g>
<g id="Group_68">
<g id="Clip path group_68">
<mask id="mask67_1_16229" style="mask-type:luminance" maskUnits="userSpaceOnUse" x="10" y="50" width="5" height="5">
<g id="SVGID_218_">
<path id="Vector_135" d="M14.1019 50.4771C14.0405 50.4296 13.9535 50.4376 13.904 50.4969L10.4953 54.6891C10.4458 54.7484 10.4557 54.8375 10.5151 54.8869C10.5408 54.9087 10.5724 54.9186 10.6041 54.9186C10.6456 54.9186 10.6852 54.9008 10.7129 54.8671L14.1216 50.675C14.1711 50.6156 14.1612 50.5266 14.1019 50.4771Z" fill="white"/>
</g>
</mask>
<g mask="url(#mask67_1_16229)">
<path id="Vector_136" d="M13.087 48.7383L16.2088 53.615L11.528 56.6122L8.40613 51.7355L13.087 48.7383Z" fill="#6B3C6A"/>
</g>
</g>
</g>
<g id="Group_69">
<g id="Clip path group_69">
<mask id="mask68_1_16229" style="mask-type:luminance" maskUnits="userSpaceOnUse" x="10" y="45" width="5" height="6">
<g id="SVGID_221_">
<path id="Vector_137" d="M10.6614 50.2202C10.697 50.2202 10.7346 50.2063 10.7623 50.1786L14.913 45.9865C14.9683 45.9311 14.9664 45.842 14.913 45.7886C14.8576 45.7332 14.7685 45.7352 14.7151 45.7906L10.5645 49.9828C10.5091 50.0382 10.5111 50.1272 10.5665 50.1806C10.5902 50.2063 10.6258 50.2202 10.6614 50.2202Z" fill="white"/>
</g>
</mask>
<g mask="url(#mask68_1_16229)">
<path id="Vector_138" d="M13.6705 43.7075L17.004 48.9146L11.8029 52.2442L8.46936 47.0371L13.6705 43.7075Z" fill="#6B3C6A"/>
</g>
</g>
</g>
<g id="Group_70">
<g id="Clip path group_70">
<mask id="mask69_1_16229" style="mask-type:luminance" maskUnits="userSpaceOnUse" x="6" y="46" width="5" height="4">
<g id="SVGID_224_">
<path id="Vector_139" d="M9.86419 46.669L6.43172 49.4486C6.37039 49.4981 6.36247 49.5871 6.40995 49.6465C6.43765 49.6801 6.4792 49.6979 6.51876 49.6979C6.55042 49.6979 6.58009 49.688 6.60779 49.6663L10.0403 46.8847C10.1016 46.8352 10.1095 46.7482 10.062 46.6868C10.0126 46.6295 9.92354 46.6196 9.86419 46.669Z" fill="white"/>
</g>
</mask>
<g mask="url(#mask69_1_16229)">
<path id="Vector_140" d="M9.02138 44.918L11.5082 48.8035L7.45253 51.4011L4.96375 47.5156L9.02138 44.918Z" fill="#6B3C6A"/>
</g>
</g>
</g>
<g id="Group_71">
<g id="Clip path group_71">
<mask id="mask70_1_16229" style="mask-type:luminance" maskUnits="userSpaceOnUse" x="8" y="42" width="6" height="5">
<g id="SVGID_227_">
<path id="Vector_141" d="M13.0394 42.8307C12.9939 42.7674 12.9069 42.7516 12.8436 42.7991L8.36651 46.0041C8.3032 46.0496 8.28935 46.1366 8.33485 46.1999C8.36255 46.2375 8.40608 46.2593 8.4496 46.2593C8.4773 46.2593 8.50697 46.2513 8.53071 46.2335L13.0078 43.0286C13.0711 42.9811 13.0849 42.8941 13.0394 42.8307Z" fill="white"/>
</g>
</mask>
<g mask="url(#mask70_1_16229)">
<path id="Vector_142" d="M11.6921 40.5732L14.6775 45.2382L9.68409 48.4333L6.69873 43.7703L11.6921 40.5732Z" fill="#6B3C6A"/>
</g>
</g>
</g>
<g id="Group_72">
<g id="Clip path group_72">
<mask id="mask71_1_16229" style="mask-type:luminance" maskUnits="userSpaceOnUse" x="4" y="42" width="8" height="5">
<g id="SVGID_230_">
<path id="Vector_143" d="M11.1501 42.6313C11.1086 42.566 11.0215 42.5482 10.9562 42.5897L4.99541 46.4634C4.93013 46.5049 4.91232 46.592 4.95387 46.6573C4.98156 46.6988 5.02509 46.7206 5.07257 46.7206C5.09829 46.7206 5.12599 46.7127 5.14973 46.6968L11.1106 42.8232C11.1739 42.7816 11.1936 42.6966 11.1501 42.6313Z" fill="white"/>
</g>
</mask>
<g mask="url(#mask71_1_16229)">
<path id="Vector_144" d="M9.36756 39.6953L13.0889 45.5078L6.73831 49.5753L3.01501 43.7609L9.36756 39.6953Z" fill="#6B3C6A"/>
</g>
</g>
</g>
<g id="Group_73">
<g id="Clip path group_73">
<mask id="mask72_1_16229" style="mask-type:luminance" maskUnits="userSpaceOnUse" x="7" y="40" width="6" height="4">
<g id="SVGID_233_">
<path id="Vector_145" d="M12.351 40.356L7.42879 43.1594C7.36152 43.197 7.33778 43.284 7.37537 43.3513C7.40109 43.3968 7.44857 43.4225 7.49803 43.4225C7.52177 43.4225 7.54551 43.4166 7.56727 43.4047L12.4895 40.6014C12.5567 40.5638 12.5805 40.4767 12.5429 40.4095C12.5033 40.3402 12.4182 40.3165 12.351 40.356Z" fill="white"/>
</g>
</mask>
<g mask="url(#mask72_1_16229)">
<path id="Vector_146" d="M11.0552 37.9365L13.9891 42.5184L8.86117 45.8025L5.92725 41.2206L11.0552 37.9365Z" fill="#6B3C6A"/>
</g>
</g>
</g>
<g id="Group_74">
<g id="Clip path group_74">
<mask id="mask73_1_16229" style="mask-type:luminance" maskUnits="userSpaceOnUse" x="1" y="40" width="6" height="3">
<g id="SVGID_236_">
<path id="Vector_147" d="M6.62159 40.5164C6.58993 40.4452 6.50684 40.4136 6.43562 40.4432L1.71919 42.4968C1.64797 42.5265 1.61631 42.6095 1.64599 42.6808C1.66973 42.7342 1.72117 42.7658 1.77458 42.7658C1.79436 42.7658 1.81217 42.7619 1.82998 42.754L6.54839 40.7004C6.62159 40.6707 6.65324 40.5877 6.62159 40.5164Z" fill="white"/>
</g>
</mask>
<g mask="url(#mask73_1_16229)">
<path id="Vector_148" d="M5.18925 38.1265L7.72157 42.0832L3.08031 45.0547L0.546021 41.098L5.18925 38.1265Z" fill="#6B3C6A"/>
</g>
</g>
</g>
<g id="Group_75">
<g id="Clip path group_75">
<mask id="mask74_1_16229" style="mask-type:luminance" maskUnits="userSpaceOnUse" x="4" y="38" width="5" height="3">
<g id="SVGID_239_">
<path id="Vector_149" d="M8.79388 38.0435L4.16252 39.7429C4.08932 39.7706 4.05173 39.8497 4.07943 39.9229C4.10119 39.9803 4.15461 40.0159 4.21198 40.0159C4.22781 40.0159 4.24364 40.0139 4.25946 40.008L8.89083 38.3086C8.96403 38.2809 9.00161 38.2017 8.97392 38.1285C8.9482 38.0533 8.86708 38.0177 8.79388 38.0435Z" fill="white"/>
</g>
</mask>
<g mask="url(#mask74_1_16229)">
<path id="Vector_150" d="M7.56333 35.7705L9.90967 39.4345L5.49198 42.2635L3.14563 38.5976L7.56333 35.7705Z" fill="#6B3C6A"/>
</g>
</g>
</g>
<g id="Group_76">
<g id="Clip path group_76">
<mask id="mask75_1_16229" style="mask-type:luminance" maskUnits="userSpaceOnUse" x="2" y="35" width="6" height="3">
<g id="SVGID_242_">
<path id="Vector_151" d="M7.63854 35.8256C7.62074 35.7505 7.54358 35.703 7.4684 35.7228L2.11296 37.0305C2.03778 37.0483 1.99228 37.1254 2.01008 37.2006C2.02591 37.2639 2.08328 37.3074 2.14659 37.3074C2.15846 37.3074 2.16835 37.3055 2.18022 37.3035L7.53567 35.9958C7.61084 35.978 7.65635 35.9008 7.63854 35.8256Z" fill="white"/>
</g>
</mask>
<g mask="url(#mask75_1_16229)">
<path id="Vector_152" d="M6.01039 33.1328L8.38443 36.8403L3.63833 39.8791L1.26428 36.1696L6.01039 33.1328Z" fill="#6B3C6A"/>
</g>
</g>
</g>
<g id="Group_77">
<g id="Clip path group_77">
<mask id="mask76_1_16229" style="mask-type:luminance" maskUnits="userSpaceOnUse" x="0" y="34" width="9" height="2">
<g id="SVGID_245_">
<path id="Vector_153" d="M8.73257 34.2684C8.71872 34.1913 8.64552 34.1418 8.56836 34.1556L0.243384 35.6948C0.166227 35.7087 0.116768 35.7819 0.130617 35.859C0.142487 35.9263 0.201838 35.9738 0.269102 35.9738C0.277016 35.9738 0.286908 35.9738 0.294822 35.9718L8.6198 34.4326C8.69696 34.4188 8.74641 34.3456 8.73257 34.2684Z" fill="white"/>
</g>
</mask>
<g mask="url(#mask76_1_16229)">
<path id="Vector_154" d="M6.2379 30.2227L9.57937 35.4416L2.6254 39.8929L-0.716064 34.674L6.2379 30.2227Z" fill="#6B3C6A"/>
</g>
</g>
</g>
<g id="Group_78">
<g id="Clip path group_78">
<mask id="mask77_1_16229" style="mask-type:luminance" maskUnits="userSpaceOnUse" x="5" y="32" width="6" height="2">
<g id="SVGID_248_">
<path id="Vector_155" d="M5.67393 33.5363C5.67986 33.5363 5.6858 33.5363 5.69173 33.5344L10.2934 32.9349C10.3706 32.925 10.426 32.8538 10.4141 32.7766C10.4042 32.6995 10.335 32.6461 10.2558 32.656L5.65414 33.2554C5.57699 33.2653 5.52159 33.3365 5.53346 33.4137C5.54336 33.4829 5.60271 33.5363 5.67393 33.5363Z" fill="white"/>
</g>
</mask>
<g mask="url(#mask77_1_16229)">
<path id="Vector_156" d="M8.99958 30.4204L10.8276 33.2772L6.94801 35.76L5.12 32.9052L8.99958 30.4204Z" fill="#6B3C6A"/>
</g>
</g>
</g>
<g id="Group_79">
<g id="Clip path group_79">
<mask id="mask78_1_16229" style="mask-type:luminance" maskUnits="userSpaceOnUse" x="1" y="31" width="7" height="2">
<g id="SVGID_251_">
<path id="Vector_157" d="M7.44266 31.8033C7.43672 31.7262 7.37143 31.6668 7.2923 31.6728L1.49963 32.0724C1.42248 32.0783 1.36313 32.1456 1.36906 32.2228C1.37302 32.296 1.43633 32.3533 1.50953 32.3533C1.51348 32.3533 1.51546 32.3533 1.51942 32.3533L7.31208 31.9537C7.39122 31.9478 7.44859 31.8805 7.44266 31.8033Z" fill="white"/>
</g>
</mask>
<g mask="url(#mask78_1_16229)">
<path id="Vector_158" d="M5.6799 28.9028L7.76114 32.1533L3.13374 35.1149L1.05249 31.8664L5.6799 28.9028Z" fill="#6B3C6A"/>
</g>
</g>
</g>
<g id="Group_80">
<g id="Clip path group_80">
<mask id="mask79_1_16229" style="mask-type:luminance" maskUnits="userSpaceOnUse" x="0" y="30" width="12" height="1">
<g id="SVGID_254_">
<path id="Vector_159" d="M0.142443 30.7271L10.978 30.549C11.0551 30.5471 11.1165 30.4838 11.1165 30.4066C11.1145 30.3294 11.0532 30.2661 10.974 30.2681L0.138487 30.4462C0.0613304 30.4481 0 30.5115 0 30.5886C0.00197837 30.6658 0.0633076 30.7271 0.140464 30.7271H0.142443Z" fill="white"/>
</g>
</mask>
<g mask="url(#mask79_1_16229)">
<path id="Vector_160" d="M7.88577 25.2153L11.3281 30.5925L3.23067 35.7759L-0.209717 30.3987L7.88577 25.2153Z" fill="#6B3C6A"/>
</g>
</g>
</g>
<g id="Group_81">
<g id="Clip path group_81">
<mask id="mask80_1_16229" style="mask-type:luminance" maskUnits="userSpaceOnUse" x="4" y="28" width="6" height="2">
<g id="SVGID_257_">
<path id="Vector_161" d="M4.32477 28.9545C4.32081 29.0317 4.38214 29.097 4.4593 29.1009L9.31026 29.3225C9.31223 29.3225 9.31421 29.3225 9.31619 29.3225C9.39137 29.3225 9.4527 29.2631 9.45666 29.188C9.46061 29.1108 9.39928 29.0455 9.32213 29.0416L4.47117 28.82C4.39401 28.8121 4.32872 28.8774 4.32477 28.9545Z" fill="white"/>
</g>
</mask>
<g mask="url(#mask80_1_16229)">
<path id="Vector_162" d="M7.96498 26.4795L9.69012 29.174L5.81449 31.6549L4.08936 28.9604L7.96498 26.4795Z" fill="#6B3C6A"/>
</g>
</g>
</g>
<g id="Group_82">
<g id="Clip path group_82">
<mask id="mask81_1_16229" style="mask-type:luminance" maskUnits="userSpaceOnUse" x="0" y="27" width="8" height="1">
<g id="SVGID_260_">
<path id="Vector_163" d="M0.270984 27.2848L6.89259 27.8585C6.89654 27.8585 6.9005 27.8585 6.90446 27.8585C6.97766 27.8585 7.03899 27.8031 7.04492 27.7299C7.05086 27.6527 6.99348 27.5835 6.91633 27.5776L0.294725 27.0038C0.217569 26.9979 0.148325 27.0553 0.14239 27.1324C0.136455 27.2116 0.193828 27.2788 0.270984 27.2848Z" fill="white"/>
</g>
</mask>
<g mask="url(#mask81_1_16229)">
<path id="Vector_164" d="M5.0428 23.8604L7.44256 27.6094L2.14844 31.0003L-0.253296 27.2493L5.0428 23.8604Z" fill="#6B3C6A"/>
</g>
</g>
</g>
<g id="Group_83">
<g id="Clip path group_83">
<mask id="mask82_1_16229" style="mask-type:luminance" maskUnits="userSpaceOnUse" x="0" y="21" width="6" height="3">
<g id="SVGID_263_">
<path id="Vector_165" d="M1.07618 22.2006L5.63632 23.4687C5.64819 23.4727 5.66204 23.4747 5.67391 23.4747C5.73524 23.4747 5.79261 23.4351 5.80844 23.3718C5.8302 23.2966 5.7847 23.2195 5.7115 23.1997L1.15136 21.9315C1.07618 21.9117 0.999024 21.9553 0.97924 22.0285C0.957478 22.1017 1.001 22.1808 1.07618 22.2006Z" fill="white"/>
</g>
</mask>
<g mask="url(#mask82_1_16229)">
<path id="Vector_166" d="M4.41364 19.6978L6.54039 23.0194L2.37394 25.6863L0.247192 22.3646L4.41364 19.6978Z" fill="#6B3C6A"/>
</g>
</g>
</g>
<g id="Group_84">
<g id="Clip path group_84">
<mask id="mask83_1_16229" style="mask-type:luminance" maskUnits="userSpaceOnUse" x="6" y="21" width="5" height="3">
<g id="SVGID_266_">
<path id="Vector_167" d="M6.06767 21.7614C6.04196 21.8346 6.08152 21.9137 6.15472 21.9395L10.6159 23.4945C10.6318 23.5004 10.6476 23.5024 10.6614 23.5024C10.7188 23.5024 10.7742 23.4668 10.794 23.4074C10.8197 23.3342 10.7801 23.2531 10.7069 23.2274L6.24573 21.6744C6.17451 21.6486 6.09339 21.6882 6.06767 21.7614Z" fill="white"/>
</g>
</mask>
<g mask="url(#mask83_1_16229)">
<path id="Vector_168" d="M9.43092 19.4805L11.6605 22.9644L7.43079 25.6708L5.20117 22.1869L9.43092 19.4805Z" fill="#6B3C6A"/>
</g>
</g>
</g>
<g id="Group_85">
<g id="Clip path group_85">
<mask id="mask84_1_16229" style="mask-type:luminance" maskUnits="userSpaceOnUse" x="3" y="19" width="6" height="3">
<g id="SVGID_269_">
<path id="Vector_169" d="M8.80973 21.1542L3.93899 19.1916C3.86777 19.162 3.78468 19.1976 3.755 19.2688C3.72533 19.34 3.76094 19.4231 3.83216 19.4528L8.7029 21.4153C8.72071 21.4232 8.73852 21.4252 8.75632 21.4252C8.81172 21.4252 8.86513 21.3916 8.88689 21.3382C8.91657 21.265 8.88293 21.1819 8.80973 21.1542Z" fill="white"/>
</g>
</mask>
<g mask="url(#mask84_1_16229)">
<path id="Vector_170" d="M7.40908 16.8057L9.94337 20.7664L5.23683 23.7814L2.70056 19.8207L7.40908 16.8057Z" fill="#6B3C6A"/>
</g>
</g>
</g>
<g id="Group_86">
<g id="Clip path group_86">
<mask id="mask85_1_16229" style="mask-type:luminance" maskUnits="userSpaceOnUse" x="3" y="17" width="3" height="2">
<g id="SVGID_272_">
<path id="Vector_171" d="M3.21284 17.4782L5.46818 18.5346C5.48797 18.5445 5.50775 18.5485 5.52753 18.5485C5.58095 18.5485 5.63041 18.5188 5.65415 18.4674C5.68778 18.3962 5.65613 18.3131 5.58689 18.2794L3.33154 17.223C3.26032 17.1894 3.17723 17.221 3.1436 17.2903C3.11194 17.3615 3.14162 17.4446 3.21284 17.4782Z" fill="white"/>
</g>
</mask>
<g mask="url(#mask85_1_16229)">
<path id="Vector_172" d="M4.93989 16.02L6.30497 18.1527L3.86168 19.7176L2.49463 17.5849L4.93989 16.02Z" fill="#6B3C6A"/>
</g>
</g>
</g>
<g id="Group_87">
<g id="Clip path group_87">
<mask id="mask86_1_16229" style="mask-type:luminance" maskUnits="userSpaceOnUse" x="4" y="14" width="6" height="4">
<g id="SVGID_275_">
<path id="Vector_173" d="M4.96764 14.3642L9.75133 17.3673C9.77507 17.3812 9.80079 17.3891 9.82651 17.3891C9.87399 17.3891 9.91949 17.3653 9.94521 17.3238C9.98676 17.2585 9.96698 17.1715 9.90169 17.1299L5.11799 14.1267C5.05271 14.0852 4.96566 14.105 4.92411 14.1703C4.88257 14.2375 4.90235 14.3246 4.96764 14.3642Z" fill="white"/>
</g>
</mask>
<g mask="url(#mask86_1_16229)">
<path id="Vector_174" d="M8.50295 11.7666L11.4883 16.4296L6.36631 19.7078L3.38293 15.0467L8.50295 11.7666Z" fill="#6B3C6A"/>
</g>
</g>
</g>
<g id="Group_88">
<g id="Clip path group_88">
<mask id="mask87_1_16229" style="mask-type:luminance" maskUnits="userSpaceOnUse" x="6" y="11" width="7" height="6">
<g id="SVGID_278_">
<path id="Vector_175" d="M12.2896 16.1999C12.3153 16.2197 12.345 16.2296 12.3746 16.2296C12.4162 16.2296 12.4577 16.2098 12.4854 16.1742C12.5329 16.1129 12.521 16.0238 12.4597 15.9764L7.04096 11.8099C6.97963 11.7624 6.8906 11.7743 6.84312 11.8356C6.79564 11.897 6.80751 11.986 6.86884 12.0335L12.2896 16.1999Z" fill="white"/>
</g>
</mask>
<g mask="url(#mask87_1_16229)">
<path id="Vector_176" d="M10.8651 9.15869L14.5607 14.9316L8.46339 18.8349L4.76978 13.062L10.8651 9.15869Z" fill="#6B3C6A"/>
</g>
</g>
</g>
<g id="Group_89">
<g id="Clip path group_89">
<mask id="mask88_1_16229" style="mask-type:luminance" maskUnits="userSpaceOnUse" x="9" y="10" width="4" height="3">
<g id="SVGID_281_">
<path id="Vector_177" d="M12.2342 12.3876C12.2619 12.4133 12.2955 12.4272 12.3311 12.4272C12.3687 12.4272 12.4063 12.4133 12.432 12.3836C12.4854 12.3283 12.4835 12.2392 12.4281 12.1858L10.2301 10.0828C10.1727 10.0294 10.0857 10.0314 10.0323 10.0868C9.97885 10.1422 9.98083 10.2312 10.0362 10.2846L12.2342 12.3876Z" fill="white"/>
</g>
</mask>
<g mask="url(#mask88_1_16229)">
<path id="Vector_178" d="M11.7574 8.88965L13.5755 11.7306L10.7069 13.5665L8.88879 10.7256L11.7574 8.88965Z" fill="#6B3C6A"/>
</g>
</g>
</g>
<g id="Group_90">
<g id="Clip path group_90">
<mask id="mask89_1_16229" style="mask-type:luminance" maskUnits="userSpaceOnUse" x="12" y="10" width="5" height="5">
<g id="SVGID_284_">
<path id="Vector_179" d="M12.4499 10.3421C12.3945 10.3955 12.3925 10.4845 12.446 10.5399L15.8349 14.0278C15.8626 14.0555 15.8982 14.0693 15.9358 14.0693C15.9714 14.0693 16.007 14.0555 16.0327 14.0297C16.0881 13.9763 16.0901 13.8873 16.0347 13.8319L12.6458 10.344C12.5943 10.2886 12.5053 10.2886 12.4499 10.3421Z" fill="white"/>
</g>
</mask>
<g mask="url(#mask89_1_16229)">
<path id="Vector_180" d="M15.0159 8.60889L17.8093 12.9712L13.4668 15.7508L10.6733 11.3865L15.0159 8.60889Z" fill="#6B3C6A"/>
</g>
</g>
</g>
<g id="Group_91">
<g id="Clip path group_91">
<mask id="mask90_1_16229" style="mask-type:luminance" maskUnits="userSpaceOnUse" x="11" y="6" width="5" height="5">
<g id="SVGID_287_">
<path id="Vector_181" d="M14.7547 10.8647C14.7824 10.8983 14.8219 10.9141 14.8615 10.9141C14.8932 10.9141 14.9248 10.9043 14.9525 10.8805C15.0119 10.8311 15.0198 10.742 14.9703 10.6827L11.5814 6.65867C11.5319 6.59932 11.4429 6.59141 11.3835 6.64087C11.3242 6.69033 11.3163 6.77935 11.3657 6.83871L14.7547 10.8647Z" fill="white"/>
</g>
</mask>
<g mask="url(#mask90_1_16229)">
<path id="Vector_182" d="M13.9436 4.90967L16.9824 9.65775L12.3925 12.5956L9.35376 7.84952L13.9436 4.90967Z" fill="#6B3C6A"/>
</g>
</g>
</g>
<g id="Group_92">
<g id="Clip path group_92">
<mask id="mask91_1_16229" style="mask-type:luminance" maskUnits="userSpaceOnUse" x="14" y="6" width="5" height="5">
<g id="SVGID_290_">
<path id="Vector_183" d="M17.9181 10.708C17.9458 10.7476 17.9893 10.7693 18.0348 10.7693C18.0625 10.7693 18.0902 10.7614 18.1139 10.7456C18.1792 10.7021 18.195 10.615 18.1515 10.5497L15.1998 6.15579C15.1563 6.0905 15.0692 6.07468 15.0039 6.1182C14.9386 6.16172 14.9228 6.24877 14.9663 6.31406L17.9181 10.708Z" fill="white"/>
</g>
</mask>
<g mask="url(#mask91_1_16229)">
<path id="Vector_184" d="M17.2435 4.58887L20.3258 9.4062L15.8725 12.257L12.7902 7.4397L17.2435 4.58887Z" fill="#6B3C6A"/>
</g>
</g>
</g>
<g id="Group_93">
<g id="Clip path group_93">
<mask id="mask92_1_16229" style="mask-type:luminance" maskUnits="userSpaceOnUse" x="18" y="9" width="3" height="4">
<g id="SVGID_293_">
<path id="Vector_185" d="M20.3198 12.0594C20.3436 12.0594 20.3693 12.0535 20.391 12.0397C20.4583 12.0001 20.4801 11.913 20.4405 11.8478L19.1981 9.76058C19.1585 9.69331 19.0715 9.67155 19.0062 9.71112C18.9389 9.75069 18.9172 9.83773 18.9567 9.90302L20.1991 11.9902C20.2268 12.0357 20.2723 12.0594 20.3198 12.0594Z" fill="white"/>
</g>
</mask>
<g mask="url(#mask92_1_16229)">
<path id="Vector_186" d="M20.027 8.96143L21.5662 11.3651L19.3722 12.7698L17.833 10.3661L20.027 8.96143Z" fill="#6B3C6A"/>
</g>
</g>
</g>
<g id="Group_94">
<g id="Clip path group_94">
<mask id="mask93_1_16229" style="mask-type:luminance" maskUnits="userSpaceOnUse" x="18" y="2" width="4" height="8">
<g id="SVGID_296_">
<path id="Vector_187" d="M21.5761 9.28555C21.5998 9.33699 21.6512 9.36864 21.7046 9.36864C21.7244 9.36864 21.7442 9.36469 21.762 9.35677C21.8332 9.32512 21.8649 9.24203 21.8313 9.17081L18.7252 2.34346C18.6936 2.27223 18.6085 2.24058 18.5393 2.27421C18.468 2.30587 18.4384 2.38896 18.47 2.46018L21.5761 9.28555Z" fill="white"/>
</g>
</mask>
<g mask="url(#mask93_1_16229)">
<path id="Vector_188" d="M20.8677 0.681641L25.1014 7.29533L19.4334 10.9237L15.1997 4.30997L20.8677 0.681641Z" fill="#6B3C6A"/>
</g>
</g>
</g>
<g id="Group_95">
<g id="Clip path group_95">
<mask id="mask94_1_16229" style="mask-type:luminance" maskUnits="userSpaceOnUse" x="22" y="2" width="3" height="8">
<g id="SVGID_299_">
<path id="Vector_189" d="M24.2311 9.05208C24.2508 9.11143 24.3062 9.14901 24.3656 9.14901C24.3794 9.14901 24.3953 9.14704 24.4091 9.1411C24.4823 9.11736 24.5239 9.03823 24.5001 8.96305L22.5099 2.86571C22.4861 2.79251 22.407 2.75097 22.3318 2.77669C22.2586 2.80043 22.2171 2.87956 22.2408 2.95474L24.2311 9.05208Z" fill="white"/>
</g>
</mask>
<g mask="url(#mask94_1_16229)">
<path id="Vector_190" d="M23.8532 1.70654L27.4281 7.29148L22.8878 10.1977L19.3129 4.61277L23.8532 1.70654Z" fill="#6B3C6A"/>
</g>
</g>
</g>
<g id="Group_96">
<g id="Clip path group_96">
<mask id="mask95_1_16229" style="mask-type:luminance" maskUnits="userSpaceOnUse" x="24" y="6" width="2" height="5">
<g id="SVGID_302_">
<path id="Vector_191" d="M25.7168 10.1484C25.7326 10.2136 25.79 10.2572 25.8533 10.2572C25.8632 10.2572 25.8751 10.2552 25.885 10.2532C25.9601 10.2354 26.0076 10.1602 25.9898 10.085L25.2123 6.68819C25.1945 6.61301 25.1193 6.56553 25.0441 6.58333C24.969 6.60114 24.9215 6.67632 24.9393 6.7515L25.7168 10.1484Z" fill="white"/>
</g>
</mask>
<g mask="url(#mask95_1_16229)">
<path id="Vector_192" d="M25.693 6.07275L27.6852 9.18473L25.2379 10.7516L23.2457 7.63962L25.693 6.07275Z" fill="#6B3C6A"/>
</g>
</g>
</g>
<g id="Group_97">
<g id="Clip path group_97">
<mask id="mask96_1_16229" style="mask-type:luminance" maskUnits="userSpaceOnUse" x="25" y="2" width="2" height="5">
<g id="SVGID_305_">
<path id="Vector_193" d="M26.2114 5.98185C26.2252 6.04911 26.2826 6.09461 26.3499 6.09461C26.3597 6.09461 26.3696 6.09462 26.3776 6.09264C26.4547 6.07681 26.5022 6.00361 26.4864 5.92646L25.7049 2.12601C25.6891 2.04885 25.6139 2.00137 25.5387 2.0172C25.4616 2.03302 25.4141 2.10622 25.4299 2.18338L26.2114 5.98185Z" fill="white"/>
</g>
</mask>
<g mask="url(#mask96_1_16229)">
<path id="Vector_194" d="M26.1856 1.50684L28.3599 4.90567L25.7306 6.58927L23.5564 3.19043L26.1856 1.50684Z" fill="#6B3C6A"/>
</g>
</g>
</g>
<g id="Group_98">
<g id="Clip path group_98">
<mask id="mask97_1_16229" style="mask-type:luminance" maskUnits="userSpaceOnUse" x="26" y="0" width="3" height="12">
<g id="SVGID_308_">
<path id="Vector_195" d="M28.6111 11.6004C28.619 11.6004 28.625 11.6004 28.6329 11.5984C28.71 11.5865 28.7635 11.5153 28.7516 11.4382L27.0265 0.119919C27.0146 0.0427629 26.9434 -0.00867591 26.8662 0.00121594C26.789 0.0130862 26.7356 0.0843085 26.7475 0.161465L28.4726 11.4797C28.4825 11.5509 28.5419 11.6004 28.6111 11.6004Z" fill="white"/>
</g>
</mask>
<g mask="url(#mask97_1_16229)">
<path id="Vector_196" d="M28.1719 -0.926758L34.0318 8.22716L27.3251 12.5202L21.4652 3.3663L28.1719 -0.926758Z" fill="#6B3C6A"/>
</g>
</g>
</g>
<g id="Group_99">
<g id="Clip path group_99">
<mask id="mask98_1_16229" style="mask-type:luminance" maskUnits="userSpaceOnUse" x="28" y="1" width="2" height="6">
<g id="SVGID_311_">
<path id="Vector_197" d="M29.268 6.24286C29.272 6.24286 29.2759 6.24286 29.2799 6.24286C29.3571 6.23692 29.4144 6.16768 29.4065 6.09053L29.0207 1.74405C29.0128 1.66689 28.9456 1.60754 28.8684 1.61545C28.7912 1.62139 28.7339 1.69063 28.7398 1.76779L29.1276 6.11229C29.1335 6.18747 29.1948 6.24286 29.268 6.24286Z" fill="white"/>
</g>
</mask>
<g mask="url(#mask98_1_16229)">
<path id="Vector_198" d="M29.2166 1.29883L31.5175 4.8955L28.9317 6.5514L26.6289 2.95472L29.2166 1.29883Z" fill="#6B3C6A"/>
</g>
</g>
</g>
</g>
</svg>
