<svg width="14" height="19" viewBox="0 0 14 19" fill="none" xmlns="http://www.w3.org/2000/svg">
<path d="M12.8451 9.19646C10.1518 8.49921 8.06675 5.92679 7.57746 2.67825C7.42758 1.67992 7.23804 0.739688 6.99559 0.000183105C6.75315 0.739688 6.55919 1.67992 6.40932 2.68353C5.92003 5.94264 3.82179 8.51506 1.12406 9.20702C0.454032 9.38134 0 9.50283 0 9.50283C0.458438 9.7194 0.952144 9.90427 1.46348 10.0575C4.03338 10.8287 5.95529 13.3852 6.44459 16.507C6.59005 17.4367 6.77078 18.3082 7 19.0002C7.22922 18.3082 7.40995 17.4367 7.55542 16.507C8.04471 13.3852 9.96222 10.8287 12.5365 10.0575C13.0435 9.90427 13.5372 9.72468 14 9.50283C13.9956 9.50283 13.5283 9.37077 12.8451 9.19646Z" fill="white"/>
</svg>
