<svg width="29" height="29" viewBox="0 0 29 29" fill="none" xmlns="http://www.w3.org/2000/svg">
<path d="M20.7646 3.68076C18.9227 2.61195 16.7828 2 14.5 2C7.59644 2 2 7.59644 2 14.5C2 21.4036 7.59644 27 14.5 27C21.4036 27 27 21.4036 27 14.5C27 12.2329 26.3965 10.1068 25.3413 8.27356" stroke="white" stroke-width="2.5" stroke-linecap="round" stroke-linejoin="round"/>
<path d="M19.4685 9.53125C19.4685 9.53125 17.3512 15.1841 16.375 16.1604C15.3987 17.1367 13.8157 17.1367 12.8394 16.1604C11.8631 15.1841 11.8631 13.6011 12.8394 12.6248C13.8157 11.6485 19.4685 9.53125 19.4685 9.53125Z" stroke="white" stroke-width="2" stroke-linejoin="round"/>
</svg>
